<svg width="221" height="54" viewBox="0 0 221 54" fill="none" xmlns="http://www.w3.org/2000/svg">
<path d="M77.078 33.21C75.698 33.21 74.458 32.97 73.358 32.49C72.278 31.99 71.428 31.31 70.808 30.45C70.188 29.57 69.868 28.56 69.848 27.42H72.758C72.858 28.4 73.258 29.23 73.958 29.91C74.678 30.57 75.718 30.9 77.078 30.9C78.378 30.9 79.398 30.58 80.138 29.94C80.898 29.28 81.278 28.44 81.278 27.42C81.278 26.62 81.058 25.97 80.618 25.47C80.178 24.97 79.628 24.59 78.968 24.33C78.308 24.07 77.418 23.79 76.298 23.49C74.918 23.13 73.808 22.77 72.968 22.41C72.148 22.05 71.438 21.49 70.838 20.73C70.258 19.95 69.968 18.91 69.968 17.61C69.968 16.47 70.258 15.46 70.838 14.58C71.418 13.7 72.228 13.02 73.268 12.54C74.328 12.06 75.538 11.82 76.898 11.82C78.858 11.82 80.458 12.31 81.698 13.29C82.958 14.27 83.668 15.57 83.828 17.19H80.828C80.728 16.39 80.308 15.69 79.568 15.09C78.828 14.47 77.848 14.16 76.628 14.16C75.488 14.16 74.558 14.46 73.838 15.06C73.118 15.64 72.758 16.46 72.758 17.52C72.758 18.28 72.968 18.9 73.388 19.38C73.828 19.86 74.358 20.23 74.978 20.49C75.618 20.73 76.508 21.01 77.648 21.33C79.028 21.71 80.138 22.09 80.978 22.47C81.818 22.83 82.538 23.4 83.138 24.18C83.738 24.94 84.038 25.98 84.038 27.3C84.038 28.32 83.768 29.28 83.228 30.18C82.688 31.08 81.888 31.81 80.828 32.37C79.768 32.93 78.518 33.21 77.078 33.21ZM91.0521 18.81V28.5C91.0521 29.3 91.2221 29.87 91.5621 30.21C91.9021 30.53 92.4921 30.69 93.3321 30.69H95.3421V33H92.8821C91.3621 33 90.2221 32.65 89.4621 31.95C88.7021 31.25 88.3221 30.1 88.3221 28.5V18.81H86.1921V16.56H88.3221V12.42H91.0521V16.56H95.3421V18.81H91.0521ZM97.2965 24.72C97.2965 23.04 97.6365 21.57 98.3165 20.31C98.9965 19.03 99.9265 18.04 101.107 17.34C102.307 16.64 103.637 16.29 105.097 16.29C106.537 16.29 107.787 16.6 108.847 17.22C109.907 17.84 110.697 18.62 111.217 19.56V16.56H113.977V33H111.217V29.94C110.677 30.9 109.867 31.7 108.787 32.34C107.727 32.96 106.487 33.27 105.067 33.27C103.607 33.27 102.287 32.91 101.107 32.19C99.9265 31.47 98.9965 30.46 98.3165 29.16C97.6365 27.86 97.2965 26.38 97.2965 24.72ZM111.217 24.75C111.217 23.51 110.967 22.43 110.467 21.51C109.967 20.59 109.287 19.89 108.427 19.41C107.587 18.91 106.657 18.66 105.637 18.66C104.617 18.66 103.687 18.9 102.847 19.38C102.007 19.86 101.337 20.56 100.837 21.48C100.337 22.4 100.087 23.48 100.087 24.72C100.087 25.98 100.337 27.08 100.837 28.02C101.337 28.94 102.007 29.65 102.847 30.15C103.687 30.63 104.617 30.87 105.637 30.87C106.657 30.87 107.587 30.63 108.427 30.15C109.287 29.65 109.967 28.94 110.467 28.02C110.967 27.08 111.217 25.99 111.217 24.75ZM120.987 19.23C121.467 18.29 122.147 17.56 123.027 17.04C123.927 16.52 125.017 16.26 126.297 16.26V19.08H125.577C122.517 19.08 120.987 20.74 120.987 24.06V33H118.257V16.56H120.987V19.23ZM134.935 33.27C133.675 33.27 132.545 33.06 131.545 32.64C130.545 32.2 129.755 31.6 129.175 30.84C128.595 30.06 128.275 29.17 128.215 28.17H131.035C131.115 28.99 131.495 29.66 132.175 30.18C132.875 30.7 133.785 30.96 134.905 30.96C135.945 30.96 136.765 30.73 137.365 30.27C137.965 29.81 138.265 29.23 138.265 28.53C138.265 27.81 137.945 27.28 137.305 26.94C136.665 26.58 135.675 26.23 134.335 25.89C133.115 25.57 132.115 25.25 131.335 24.93C130.575 24.59 129.915 24.1 129.355 23.46C128.815 22.8 128.545 21.94 128.545 20.88C128.545 20.04 128.795 19.27 129.295 18.57C129.795 17.87 130.505 17.32 131.425 16.92C132.345 16.5 133.395 16.29 134.575 16.29C136.395 16.29 137.865 16.75 138.985 17.67C140.105 18.59 140.705 19.85 140.785 21.45H138.055C137.995 20.59 137.645 19.9 137.005 19.38C136.385 18.86 135.545 18.6 134.485 18.6C133.505 18.6 132.725 18.81 132.145 19.23C131.565 19.65 131.275 20.2 131.275 20.88C131.275 21.42 131.445 21.87 131.785 22.23C132.145 22.57 132.585 22.85 133.105 23.07C133.645 23.27 134.385 23.5 135.325 23.76C136.505 24.08 137.465 24.4 138.205 24.72C138.945 25.02 139.575 25.48 140.095 26.1C140.635 26.72 140.915 27.53 140.935 28.53C140.935 29.43 140.685 30.24 140.185 30.96C139.685 31.68 138.975 32.25 138.055 32.67C137.155 33.07 136.115 33.27 134.935 33.27ZM160.295 18.15C159.715 16.93 158.875 15.99 157.775 15.33C156.675 14.65 155.395 14.31 153.935 14.31C152.475 14.31 151.155 14.65 149.975 15.33C148.815 15.99 147.895 16.95 147.215 18.21C146.555 19.45 146.225 20.89 146.225 22.53C146.225 24.17 146.555 25.61 147.215 26.85C147.895 28.09 148.815 29.05 149.975 29.73C151.155 30.39 152.475 30.72 153.935 30.72C155.975 30.72 157.655 30.11 158.975 28.89C160.295 27.67 161.065 26.02 161.285 23.94H152.945V21.72H164.195V23.82C164.035 25.54 163.495 27.12 162.575 28.56C161.655 29.98 160.445 31.11 158.945 31.95C157.445 32.77 155.775 33.18 153.935 33.18C151.995 33.18 150.225 32.73 148.625 31.83C147.025 30.91 145.755 29.64 144.815 28.02C143.895 26.4 143.435 24.57 143.435 22.53C143.435 20.49 143.895 18.66 144.815 17.04C145.755 15.4 147.025 14.13 148.625 13.23C150.225 12.31 151.995 11.85 153.935 11.85C156.155 11.85 158.115 12.4 159.815 13.5C161.535 14.6 162.785 16.15 163.565 18.15H160.295ZM181.631 16.56L171.731 40.74H168.911L172.151 32.82L165.521 16.56H168.551L173.711 29.88L178.811 16.56H181.631ZM183.022 24.72C183.022 23.04 183.362 21.57 184.042 20.31C184.722 19.03 185.652 18.04 186.832 17.34C188.032 16.64 189.362 16.29 190.822 16.29C192.262 16.29 193.512 16.6 194.572 17.22C195.632 17.84 196.422 18.62 196.942 19.56V16.56H199.702V33H196.942V29.94C196.402 30.9 195.592 31.7 194.512 32.34C193.452 32.96 192.212 33.27 190.792 33.27C189.332 33.27 188.012 32.91 186.832 32.19C185.652 31.47 184.722 30.46 184.042 29.16C183.362 27.86 183.022 26.38 183.022 24.72ZM196.942 24.75C196.942 23.51 196.692 22.43 196.192 21.51C195.692 20.59 195.012 19.89 194.152 19.41C193.312 18.91 192.382 18.66 191.362 18.66C190.342 18.66 189.412 18.9 188.572 19.38C187.732 19.86 187.062 20.56 186.562 21.48C186.062 22.4 185.812 23.48 185.812 24.72C185.812 25.98 186.062 27.08 186.562 28.02C187.062 28.94 187.732 29.65 188.572 30.15C189.412 30.63 190.342 30.87 191.362 30.87C192.382 30.87 193.312 30.63 194.152 30.15C195.012 29.65 195.692 28.94 196.192 28.02C196.692 27.08 196.942 25.99 196.942 24.75ZM211.993 16.26C213.993 16.26 215.613 16.87 216.853 18.09C218.093 19.29 218.713 21.03 218.713 23.31V33H216.013V23.7C216.013 22.06 215.603 20.81 214.783 19.95C213.963 19.07 212.843 18.63 211.423 18.63C209.983 18.63 208.833 19.08 207.973 19.98C207.133 20.88 206.713 22.19 206.713 23.91V33H203.983V16.56H206.713V18.9C207.253 18.06 207.983 17.41 208.903 16.95C209.843 16.49 210.873 16.26 211.993 16.26Z" fill="#9F013B"/>
<path d="M81.43 47.25C81.43 46.6833 81.5433 46.19 81.77 45.77C81.9967 45.3433 82.31 45.0133 82.71 44.78C83.1167 44.5467 83.58 44.43 84.1 44.43C84.7733 44.43 85.3267 44.5933 85.76 44.92C86.2 45.2467 86.49 45.7 86.63 46.28H85.65C85.5567 45.9467 85.3733 45.6833 85.1 45.49C84.8333 45.2967 84.5 45.2 84.1 45.2C83.58 45.2 83.16 45.38 82.84 45.74C82.52 46.0933 82.36 46.5967 82.36 47.25C82.36 47.91 82.52 48.42 82.84 48.78C83.16 49.14 83.58 49.32 84.1 49.32C84.5 49.32 84.8333 49.2267 85.1 49.04C85.3667 48.8533 85.55 48.5867 85.65 48.24H86.63C86.4833 48.8 86.19 49.25 85.75 49.59C85.31 49.9233 84.76 50.09 84.1 50.09C83.58 50.09 83.1167 49.9733 82.71 49.74C82.31 49.5067 81.9967 49.1767 81.77 48.75C81.5433 48.3233 81.43 47.8233 81.43 47.25ZM92.4342 50.09C91.9209 50.09 91.4542 49.9733 91.0342 49.74C90.6209 49.5067 90.2942 49.1767 90.0542 48.75C89.8209 48.3167 89.7042 47.8167 89.7042 47.25C89.7042 46.69 89.8242 46.1967 90.0642 45.77C90.3109 45.3367 90.6442 45.0067 91.0642 44.78C91.4842 44.5467 91.9542 44.43 92.4742 44.43C92.9942 44.43 93.4642 44.5467 93.8842 44.78C94.3042 45.0067 94.6342 45.3333 94.8742 45.76C95.1209 46.1867 95.2442 46.6833 95.2442 47.25C95.2442 47.8167 95.1176 48.3167 94.8642 48.75C94.6176 49.1767 94.2809 49.5067 93.8542 49.74C93.4276 49.9733 92.9542 50.09 92.4342 50.09ZM92.4342 49.29C92.7609 49.29 93.0676 49.2133 93.3542 49.06C93.6409 48.9067 93.8709 48.6767 94.0442 48.37C94.2242 48.0633 94.3142 47.69 94.3142 47.25C94.3142 46.81 94.2276 46.4367 94.0542 46.13C93.8809 45.8233 93.6542 45.5967 93.3742 45.45C93.0942 45.2967 92.7909 45.22 92.4642 45.22C92.1309 45.22 91.8242 45.2967 91.5442 45.45C91.2709 45.5967 91.0509 45.8233 90.8842 46.13C90.7176 46.4367 90.6342 46.81 90.6342 47.25C90.6342 47.6967 90.7142 48.0733 90.8742 48.38C91.0409 48.6867 91.2609 48.9167 91.5342 49.07C91.8076 49.2167 92.1076 49.29 92.4342 49.29ZM101.311 44.42C101.977 44.42 102.517 44.6233 102.931 45.03C103.344 45.43 103.551 46.01 103.551 46.77V50H102.651V46.9C102.651 46.3533 102.514 45.9367 102.241 45.65C101.967 45.3567 101.594 45.21 101.121 45.21C100.641 45.21 100.257 45.36 99.9707 45.66C99.6907 45.96 99.5507 46.3967 99.5507 46.97V50H98.6407V44.52H99.5507V45.3C99.7307 45.02 99.974 44.8033 100.281 44.65C100.594 44.4967 100.937 44.42 101.311 44.42ZM109.177 50.09C108.757 50.09 108.381 50.02 108.047 49.88C107.714 49.7333 107.451 49.5333 107.257 49.28C107.064 49.02 106.957 48.7233 106.937 48.39H107.877C107.904 48.6633 108.031 48.8867 108.257 49.06C108.491 49.2333 108.794 49.32 109.167 49.32C109.514 49.32 109.787 49.2433 109.987 49.09C110.187 48.9367 110.287 48.7433 110.287 48.51C110.287 48.27 110.181 48.0933 109.967 47.98C109.754 47.86 109.424 47.7433 108.977 47.63C108.571 47.5233 108.237 47.4167 107.977 47.31C107.724 47.1967 107.504 47.0333 107.317 46.82C107.137 46.6 107.047 46.3133 107.047 45.96C107.047 45.68 107.131 45.4233 107.297 45.19C107.464 44.9567 107.701 44.7733 108.007 44.64C108.314 44.5 108.664 44.43 109.057 44.43C109.664 44.43 110.154 44.5833 110.527 44.89C110.901 45.1967 111.101 45.6167 111.127 46.15H110.217C110.197 45.8633 110.081 45.6333 109.867 45.46C109.661 45.2867 109.381 45.2 109.027 45.2C108.701 45.2 108.441 45.27 108.247 45.41C108.054 45.55 107.957 45.7333 107.957 45.96C107.957 46.14 108.014 46.29 108.127 46.41C108.247 46.5233 108.394 46.6167 108.567 46.69C108.747 46.7567 108.994 46.8333 109.307 46.92C109.701 47.0267 110.021 47.1333 110.267 47.24C110.514 47.34 110.724 47.4933 110.897 47.7C111.077 47.9067 111.171 48.1767 111.177 48.51C111.177 48.81 111.094 49.08 110.927 49.32C110.761 49.56 110.524 49.75 110.217 49.89C109.917 50.0233 109.571 50.09 109.177 50.09ZM119.522 44.52V50H118.612V49.19C118.438 49.47 118.195 49.69 117.882 49.85C117.575 50.0033 117.235 50.08 116.862 50.08C116.435 50.08 116.052 49.9933 115.712 49.82C115.372 49.64 115.102 49.3733 114.902 49.02C114.708 48.6667 114.612 48.2367 114.612 47.73V44.52H115.512V47.61C115.512 48.15 115.648 48.5667 115.922 48.86C116.195 49.1467 116.568 49.29 117.042 49.29C117.528 49.29 117.912 49.14 118.192 48.84C118.472 48.54 118.612 48.1033 118.612 47.53V44.52H119.522ZM124.168 42.6V50H123.258V42.6H124.168ZM129.029 45.27V48.5C129.029 48.7667 129.086 48.9567 129.199 49.07C129.313 49.1767 129.509 49.23 129.789 49.23H130.459V50H129.639C129.133 50 128.753 49.8833 128.499 49.65C128.246 49.4167 128.119 49.0333 128.119 48.5V45.27H127.409V44.52H128.119V43.14H129.029V44.52H130.459V45.27H129.029ZM143.978 50L143.068 49.08C142.728 49.4333 142.364 49.6967 141.978 49.87C141.591 50.0367 141.154 50.12 140.668 50.12C140.188 50.12 139.761 50.0333 139.388 49.86C139.021 49.6867 138.734 49.44 138.528 49.12C138.328 48.8 138.228 48.4267 138.228 48C138.228 47.5133 138.364 47.0867 138.638 46.72C138.918 46.3467 139.328 46.0533 139.868 45.84C139.654 45.5867 139.501 45.3533 139.408 45.14C139.314 44.9267 139.268 44.6933 139.268 44.44C139.268 44.1467 139.341 43.8833 139.488 43.65C139.641 43.41 139.858 43.2233 140.138 43.09C140.418 42.9567 140.741 42.89 141.108 42.89C141.468 42.89 141.781 42.96 142.048 43.1C142.314 43.24 142.514 43.4367 142.648 43.69C142.781 43.9367 142.841 44.2133 142.828 44.52H141.918C141.924 44.2467 141.848 44.0333 141.688 43.88C141.528 43.72 141.321 43.64 141.068 43.64C140.801 43.64 140.584 43.7167 140.418 43.87C140.258 44.0167 140.178 44.2067 140.178 44.44C140.178 44.64 140.231 44.8333 140.338 45.02C140.451 45.2067 140.638 45.4367 140.898 45.71L142.978 47.8L143.158 47.52L143.838 46.38H144.818L143.998 47.8C143.884 48 143.751 48.21 143.598 48.43L145.168 50H143.978ZM140.668 49.34C141.028 49.34 141.351 49.27 141.638 49.13C141.931 48.99 142.208 48.7733 142.468 48.48L140.418 46.42C139.564 46.7467 139.138 47.2633 139.138 47.97C139.138 48.3633 139.278 48.69 139.558 48.95C139.844 49.21 140.214 49.34 140.668 49.34ZM152.746 47.25C152.746 46.6833 152.86 46.19 153.086 45.77C153.313 45.3433 153.626 45.0133 154.026 44.78C154.433 44.5467 154.896 44.43 155.416 44.43C156.09 44.43 156.643 44.5933 157.076 44.92C157.516 45.2467 157.806 45.7 157.946 46.28H156.966C156.873 45.9467 156.69 45.6833 156.416 45.49C156.15 45.2967 155.816 45.2 155.416 45.2C154.896 45.2 154.476 45.38 154.156 45.74C153.836 46.0933 153.676 46.5967 153.676 47.25C153.676 47.91 153.836 48.42 154.156 48.78C154.476 49.14 154.896 49.32 155.416 49.32C155.816 49.32 156.15 49.2267 156.416 49.04C156.683 48.8533 156.866 48.5867 156.966 48.24H157.946C157.8 48.8 157.506 49.25 157.066 49.59C156.626 49.9233 156.076 50.09 155.416 50.09C154.896 50.09 154.433 49.9733 154.026 49.74C153.626 49.5067 153.313 49.1767 153.086 48.75C152.86 48.3233 152.746 47.8233 152.746 47.25ZM163.751 50.09C163.237 50.09 162.771 49.9733 162.351 49.74C161.937 49.5067 161.611 49.1767 161.371 48.75C161.137 48.3167 161.021 47.8167 161.021 47.25C161.021 46.69 161.141 46.1967 161.381 45.77C161.627 45.3367 161.961 45.0067 162.381 44.78C162.801 44.5467 163.271 44.43 163.791 44.43C164.311 44.43 164.781 44.5467 165.201 44.78C165.621 45.0067 165.951 45.3333 166.191 45.76C166.437 46.1867 166.561 46.6833 166.561 47.25C166.561 47.8167 166.434 48.3167 166.181 48.75C165.934 49.1767 165.597 49.5067 165.171 49.74C164.744 49.9733 164.271 50.09 163.751 50.09ZM163.751 49.29C164.077 49.29 164.384 49.2133 164.671 49.06C164.957 48.9067 165.187 48.6767 165.361 48.37C165.541 48.0633 165.631 47.69 165.631 47.25C165.631 46.81 165.544 46.4367 165.371 46.13C165.197 45.8233 164.971 45.5967 164.691 45.45C164.411 45.2967 164.107 45.22 163.781 45.22C163.447 45.22 163.141 45.2967 162.861 45.45C162.587 45.5967 162.367 45.8233 162.201 46.13C162.034 46.4367 161.951 46.81 161.951 47.25C161.951 47.6967 162.031 48.0733 162.191 48.38C162.357 48.6867 162.577 48.9167 162.851 49.07C163.124 49.2167 163.424 49.29 163.751 49.29ZM172.627 44.42C173.294 44.42 173.834 44.6233 174.247 45.03C174.66 45.43 174.867 46.01 174.867 46.77V50H173.967V46.9C173.967 46.3533 173.83 45.9367 173.557 45.65C173.284 45.3567 172.91 45.21 172.437 45.21C171.957 45.21 171.574 45.36 171.287 45.66C171.007 45.96 170.867 46.3967 170.867 46.97V50H169.957V44.52H170.867V45.3C171.047 45.02 171.29 44.8033 171.597 44.65C171.91 44.4967 172.254 44.42 172.627 44.42ZM178.214 47.24C178.214 46.68 178.327 46.19 178.554 45.77C178.78 45.3433 179.09 45.0133 179.484 44.78C179.884 44.5467 180.33 44.43 180.824 44.43C181.297 44.43 181.71 44.5367 182.064 44.75C182.424 44.9567 182.687 45.2133 182.854 45.52V44.52H183.774V52.6H182.854V48.99C182.68 49.2967 182.414 49.5567 182.054 49.77C181.694 49.9833 181.274 50.09 180.794 50.09C180.314 50.09 179.877 49.97 179.484 49.73C179.09 49.49 178.78 49.1533 178.554 48.72C178.327 48.2867 178.214 47.7933 178.214 47.24ZM182.854 47.25C182.854 46.8367 182.77 46.4767 182.604 46.17C182.437 45.8633 182.21 45.63 181.924 45.47C181.644 45.3033 181.334 45.22 180.994 45.22C180.654 45.22 180.344 45.3 180.064 45.46C179.784 45.62 179.56 45.8533 179.394 46.16C179.227 46.4667 179.144 46.8267 179.144 47.24C179.144 47.66 179.227 48.0267 179.394 48.34C179.56 48.6467 179.784 48.8833 180.064 49.05C180.344 49.21 180.654 49.29 180.994 49.29C181.334 49.29 181.644 49.21 181.924 49.05C182.21 48.8833 182.437 48.6467 182.604 48.34C182.77 48.0267 182.854 47.6633 182.854 47.25ZM192.371 44.52V50H191.461V49.19C191.288 49.47 191.045 49.69 190.731 49.85C190.425 50.0033 190.085 50.08 189.711 50.08C189.285 50.08 188.901 49.9933 188.561 49.82C188.221 49.64 187.951 49.3733 187.751 49.02C187.558 48.6667 187.461 48.2367 187.461 47.73V44.52H188.361V47.61C188.361 48.15 188.498 48.5667 188.771 48.86C189.045 49.1467 189.418 49.29 189.891 49.29C190.378 49.29 190.761 49.14 191.041 48.84C191.321 48.54 191.461 48.1033 191.461 47.53V44.52H192.371ZM201.108 47.05C201.108 47.2233 201.098 47.4067 201.078 47.6H196.698C196.731 48.14 196.915 48.5633 197.248 48.87C197.588 49.17 197.998 49.32 198.478 49.32C198.871 49.32 199.198 49.23 199.458 49.05C199.725 48.8633 199.911 48.6167 200.018 48.31H200.998C200.851 48.8367 200.558 49.2667 200.118 49.6C199.678 49.9267 199.131 50.09 198.478 50.09C197.958 50.09 197.491 49.9733 197.078 49.74C196.671 49.5067 196.351 49.1767 196.118 48.75C195.885 48.3167 195.768 47.8167 195.768 47.25C195.768 46.6833 195.881 46.1867 196.108 45.76C196.335 45.3333 196.651 45.0067 197.058 44.78C197.471 44.5467 197.945 44.43 198.478 44.43C198.998 44.43 199.458 44.5433 199.858 44.77C200.258 44.9967 200.565 45.31 200.778 45.71C200.998 46.1033 201.108 46.55 201.108 47.05ZM200.168 46.86C200.168 46.5133 200.091 46.2167 199.938 45.97C199.785 45.7167 199.575 45.5267 199.308 45.4C199.048 45.2667 198.758 45.2 198.438 45.2C197.978 45.2 197.585 45.3467 197.258 45.64C196.938 45.9333 196.755 46.34 196.708 46.86H200.168ZM205.419 45.41C205.579 45.0967 205.806 44.8533 206.099 44.68C206.399 44.5067 206.762 44.42 207.189 44.42V45.36H206.949C205.929 45.36 205.419 45.9133 205.419 47.02V50H204.509V44.52H205.419V45.41Z" fill="#9F013B"/>
<path fill-rule="evenodd" clip-rule="evenodd" d="M10.4646 19.3864C9.06429 19.3677 7.81849 19.577 5.94104 19.7771C5.56171 19.9218 5.17631 20.1229 4.93346 20.2659C4.84433 20.3926 4.78679 20.5801 4.73579 20.6935C5.43106 21.412 5.91749 21.3368 7.02657 21.6175C7.13148 21.6442 7.44206 21.7253 7.50715 21.7503C8.50428 22.1315 6.71886 21.361 7.73372 21.8525L7.94939 21.9802C9.27291 21.8654 8.41687 22.5174 9.9269 22.7202C10.5726 22.8068 11.653 22.9528 12.791 23.1247C11.9921 22.2219 11.3284 21.2287 10.8162 20.1765C10.6899 19.9167 10.5724 19.6532 10.4646 19.3864V19.3864ZM41.9133 26.1926C42.3254 26.1584 42.7392 26.1229 43.1518 26.0872C43.2368 24.4134 43.1931 22.7488 43.0081 21.1216C42.5984 21.1525 42.1887 21.1826 41.7795 21.2088C41.9675 22.8377 42.008 24.5103 41.9133 26.1926ZM44.3948 25.9767C47.8038 25.6673 50.9055 25.3276 51.8982 25.0731C53.1722 24.7468 53.02 24.4671 53.747 23.9039C53.6679 22.6182 53.6353 22.1689 52.6751 21.6925C51.9021 21.3093 50.9358 21.1648 49.9149 21.0366C48.0285 20.7989 46.134 20.8921 44.2398 21.0291C44.4227 22.6538 44.4705 24.3119 44.3948 25.9767V25.9767ZM40.7336 33.3114C41.1561 33.2861 41.5886 33.2584 42.0296 33.2288C42.3929 31.8469 42.6778 30.4411 42.874 29.0286L41.6107 29.1529C41.4038 30.5531 41.1092 31.9455 40.7336 33.3114V33.3114ZM43.3294 33.1353C50.1702 32.6113 58.1812 31.4965 57.9969 29.2122C57.6923 25.4282 49.606 27.287 46.628 27.6238C45.8501 27.7117 45.056 27.8108 44.2515 27.9133C44.2211 28.2098 44.1869 28.5063 44.1492 28.8025H45.1685L44.1361 28.9043C43.9508 30.3255 43.6796 31.741 43.3294 33.1353V33.1353ZM42.9928 28.0745C42.5746 28.1282 42.1547 28.1811 41.7339 28.2333C41.711 28.4232 41.6865 28.6131 41.6605 28.8025H42.9027C42.935 28.5599 42.9658 28.3174 42.9928 28.0745V28.0745ZM21.6606 28.3586L16.4493 28.1913C13.0771 28.6639 11.6419 27.449 10.706 27.4026C9.95021 27.3655 9.33361 27.4337 8.55431 27.3353C7.27911 27.1743 6.0848 26.756 4.84846 26.5937C3.9152 26.4714 1.70868 26.7411 0.703286 26.8645L0.0257551 27.2841L1.37622 28.0383C1.92141 28.3445 0.90413 27.7411 1.57512 28.1631L1.76477 28.3025C3.42804 28.5386 2.74857 29.2508 4.15393 29.7238C5.98451 30.3404 8.34111 30.8216 10.1826 31.3806C11.2291 31.698 12.1606 32.2754 13.3348 32.3286C15.6025 32.4321 21.9512 32.9036 26.8111 33.2412C26.5054 32.6824 26.1413 32.1434 25.7227 31.6298C24.6799 30.3506 23.3032 29.2311 21.6606 28.3586V28.3586ZM27.5776 35.075C26.9078 35.068 26.2368 35.051 25.6263 34.9198C23.9207 34.5544 15.9442 34.8366 13.7957 34.6005C11.8949 34.3917 8.58515 34.0758 6.71061 34.1955C3.10214 34.4269 1.77862 33.3633 0 33.7213C0.153723 34.1661 -0.248185 34.1003 1.15329 34.5724C10.7237 37.7901 6.40561 34.279 9.69183 38.0948C11.2881 37.742 10.2076 38.1813 12.2461 38.7573L13.6456 39.071C13.7967 39.0989 13.9555 39.1266 14.1238 39.154C17.4377 39.5836 23.1643 40.035 26.5671 40.5676C26.6297 40.4966 26.6911 40.4248 26.7504 40.3514C27.2278 39.7657 27.6089 39.1091 27.8728 38.4018C27.9047 38.1301 27.9226 37.8544 27.926 37.5754L27.9277 37.3576C27.9173 36.5837 27.7978 35.8188 27.5776 35.075V35.075ZM38.0071 40.24C38.4785 40.2009 38.9615 40.1591 39.453 40.1149C40.2586 38.4957 40.9502 36.7833 41.5114 35.0163C41.0675 35.0575 40.6187 35.0974 40.1784 35.1364C39.6718 36.6549 39.0654 38.1281 38.3709 39.529C38.2521 39.7682 38.1307 40.0052 38.0071 40.24V40.24ZM40.8897 39.9804C44.8894 39.589 49.2058 39.0275 52.129 38.243C54.1366 37.7044 55.7357 37.0716 55.6024 34.5568C52.9823 32.7322 48.0683 34.1059 44.8265 34.6328C44.2692 34.7234 43.5851 34.8067 42.8454 34.8847C42.3133 36.6432 41.6566 38.3537 40.8897 39.9804V39.9804Z" fill="#EF7F1A"/>
<path fill-rule="evenodd" clip-rule="evenodd" d="M32.3209 4.82869C50.6437 13.9148 43.2901 44.84 28.8219 51.4491C22.9047 54.1523 16.9467 51.8218 14.6632 49.6383C15.5647 49.971 27.7894 52.5137 32.0875 41.5215C34.6525 34.962 31.7468 27.6169 25.5595 24.5369C10.2128 16.6216 24.6173 2.89796 32.3209 4.82869V4.82869Z" fill="#036922"/>
<path d="M32.4157 16.8487C33.6983 17.6052 34.8492 17.475 34.9865 16.5577C35.1237 15.6405 34.1953 14.2836 32.9128 13.5271C31.6303 12.7705 30.4794 12.9008 30.3421 13.818C30.2048 14.7352 31.1332 16.0921 32.4157 16.8487Z" fill="#FEFEFE"/>
<path d="M33.0355 13.3181C33.7075 13.7144 34.2876 14.2693 34.6815 14.8453C35.0898 15.4419 35.3035 16.072 35.2258 16.5927C35.2017 16.7544 35.1507 16.8991 35.0769 17.0242C34.9411 17.2544 34.7311 17.4153 34.4664 17.504C34.2211 17.5861 33.9297 17.6043 33.6115 17.5569C33.2101 17.497 32.7572 17.3313 32.2917 17.0569C31.6197 16.6606 31.0395 16.1058 30.6456 15.5298C30.2374 14.9332 30.0237 14.303 30.1014 13.7824C30.1255 13.6207 30.1764 13.476 30.2503 13.3509C30.386 13.1207 30.5966 12.9594 30.8608 12.8711C31.1061 12.789 31.3977 12.7703 31.7163 12.8181C32.1175 12.8783 32.5705 13.0439 33.0355 13.3181V13.3181ZM34.2813 15.1187C33.9251 14.5978 33.399 14.0952 32.7888 13.7353C32.3793 13.4939 31.9871 13.3489 31.6452 13.2979C31.4007 13.2615 31.1857 13.2727 31.0143 13.33C30.8618 13.381 30.7421 13.4713 30.6675 13.5976C30.6255 13.6687 30.5959 13.7545 30.5813 13.8528C30.5223 14.2489 30.7042 14.7569 31.0459 15.2564C31.4021 15.7772 31.9281 16.2799 32.5384 16.6398C32.9478 16.8811 33.3403 17.0258 33.6827 17.0771C33.9268 17.1135 34.1417 17.1024 34.3129 17.045C34.4654 16.9941 34.5849 16.904 34.6597 16.7774C34.7017 16.7063 34.7313 16.6208 34.7459 16.5222C34.8049 16.1262 34.623 15.6182 34.2813 15.1187V15.1187Z" fill="#036922"/>
<path d="M14.0556 50.3105C10.8702 47.4257 10.1355 45.2539 9.60565 43.6835L7.68011 38.0336L11.0814 42.522C11.8037 43.4752 12.7231 44.2882 13.7829 44.9081C14.8196 45.5147 15.9969 45.9391 17.2626 46.1322L17.3372 46.1499C18.0502 46.3214 18.7399 46.3757 19.4084 46.3333C20.0772 46.2908 20.7244 46.1501 21.3529 45.9318L21.4204 45.9105C23.4055 45.3811 25.1219 44.2624 26.3374 42.7714C27.5176 41.3237 28.2267 39.5248 28.2488 37.5776L28.2505 37.3535C28.2223 35.2319 27.4047 33.1817 25.9733 31.4253C24.518 29.6395 22.4299 28.159 19.8876 27.2088C19.7559 27.1597 19.4966 27.0599 19.2078 26.9453L18.5881 26.6933L18.1699 26.5296C14.9226 25.1982 12.4681 22.8291 11.1074 20.0342C9.7346 17.2149 9.47136 13.962 10.6186 10.8932L10.7514 10.5532C12.1451 7.15408 14.9857 4.63278 18.3355 3.23943C21.7847 1.80456 25.7919 1.56294 29.3173 2.79141L38.8775 6.12352C35.883 5.65073 34.4309 5.25808 31.6641 4.51575L28.6393 4.50653C28.5873 4.49876 28.4749 4.47423 28.4297 4.47423C28.2444 4.44922 28.0463 4.42857 27.8377 4.41376C27.6145 4.39773 27.4154 4.38875 27.2415 4.3873C27.1189 4.38584 26.8903 4.37952 26.7706 4.39749L26.7699 4.39505C26.5848 4.40282 26.3949 4.41667 26.2009 4.4361C26.0061 4.45577 25.8075 4.48273 25.6078 4.51575C25.517 4.51575 25.2902 4.58083 25.1897 4.59662L25.1892 4.59394L24.9947 4.6374V4.64106L24.9803 4.64421C24.8349 4.67723 24.7125 4.70855 24.6102 4.73672C24.5007 4.76707 24.3769 4.80472 24.2384 4.84964L24.0612 4.90646L24.0624 4.90961C23.9222 4.95964 23.7722 5.00868 23.6357 5.06695L23.6347 5.06454C22.7447 5.42829 21.9787 5.87535 21.2215 6.46663L21.2232 6.46858C20.6372 6.94744 20.2472 7.35054 19.7596 7.91924C19.4985 8.25823 19.2768 8.56444 19.0524 8.92504L19.0497 8.92333L18.8334 9.29703L18.6843 9.58041L18.6869 9.58188L18.6223 9.71131L18.6197 9.7101C18.3401 10.2929 18.1337 10.8533 17.9642 11.475L17.9616 11.4742C17.8515 11.9023 17.7797 12.3101 17.7168 12.7479L17.6806 13.0954L17.683 13.0956C17.6388 13.6633 17.6369 14.1643 17.6874 14.7308L17.6849 14.7311L17.7355 15.1788L17.769 15.4059C17.8246 15.7101 17.8841 16.0015 17.9589 16.3019L17.9616 16.3012C18.2054 17.2023 18.5099 17.9179 18.9711 18.7261L18.9689 18.7273C19.5741 19.7423 20.3742 20.6702 21.3126 21.3914L21.3104 21.394C21.7522 21.734 22.2027 22.022 22.693 22.2869L22.6942 22.2842L23.0152 22.4503L23.242 22.5555C23.4735 22.6579 23.7073 22.7587 23.9405 22.8559C23.9784 22.8714 25.2623 23.3668 25.2812 23.3777V23.4039C28.726 24.9048 31.3051 27.6117 32.7146 30.8308C34.1928 34.2074 34.3829 38.1485 32.9348 41.8521C31.3509 45.9022 28.7437 48.2358 25.9699 49.5405C21.012 51.8727 15.5095 50.8355 14.5078 50.5417L14.2028 50.4436L14.0556 50.3105ZM13.0823 46.5974C13.5874 47.2774 14.245 48.019 15.1197 48.8261C16.2247 49.1153 20.9275 49.9075 25.2016 47.8971C27.5963 46.7708 29.8543 44.7386 31.2417 41.1906C32.5076 37.9527 32.3415 34.5075 31.0496 31.5564C29.7581 28.6068 27.3401 26.1489 24.1022 24.883C23.8878 24.7953 23.6566 24.7181 23.4358 24.6387V24.6224L23.4103 24.6125V24.6035L23.243 24.5348C22.9916 24.4299 22.741 24.3221 22.4958 24.2113L21.8544 23.899L21.8474 23.892C21.2509 23.5732 20.7346 23.2364 20.1991 22.8248L20.1887 22.8211L19.9289 22.6089H19.9167L19.6615 22.3848L19.6634 22.3823L19.5279 22.2631H19.5121C19.4342 22.1861 19.2025 21.9814 19.1496 21.901H19.1362L18.7882 21.5235H18.7765L18.6146 21.329H18.6029C18.3372 20.9931 18.0648 20.6604 17.8243 20.3062H17.8064L17.5426 19.8749H17.5239L17.2804 19.4325H17.2638L17.1536 19.2074H17.1383L17.0341 18.9796H17.0227L16.9234 18.7496H16.9066L16.7186 18.2829H16.6963L16.5309 17.8079H16.5001L16.3612 17.3254H16.3393L16.2201 16.8364H16.1914L16.096 16.3415H16.0681L15.9957 15.8418H15.9653C15.942 15.5909 15.9243 15.3345 15.8949 15.0849H15.8536C15.8308 13.8948 15.8539 13.1537 15.9583 11.9898H15.9925C16.0865 11.4667 16.2133 10.9774 16.3401 10.457H16.3651L16.5171 9.94878H16.5336L16.6159 9.69528H16.6419C16.7493 9.42865 16.8653 9.17343 16.9897 8.91458L16.9933 8.90025L17.0579 8.77082L17.065 8.76378C17.201 8.49789 17.3413 8.23515 17.5014 7.98237C17.8222 7.16404 19.3701 5.65219 20.0707 5.06017C20.4774 4.81492 20.8876 4.44775 21.3425 4.17942C20.5532 4.36057 19.7788 4.60803 19.033 4.91836C16.104 6.13663 13.6296 8.31869 12.4304 11.2433L12.319 11.5265C11.3549 14.1058 11.5815 16.8502 12.7437 19.2372C13.9177 21.6485 16.0431 23.6958 18.8601 24.8507C19.2006 24.9845 19.5376 25.1212 19.8766 25.2591L20.5209 25.5085C23.3732 26.5745 25.7278 28.2505 27.3819 30.2801C29.0677 32.3485 30.0308 34.7868 30.0646 37.3321L30.0629 37.599C30.034 39.9765 29.175 42.1634 27.7459 43.9166C26.2966 45.6944 24.2596 47.028 21.909 47.6606C21.1378 47.9248 20.3436 48.0952 19.5221 48.1472C18.7093 48.1989 17.8671 48.1348 16.9921 47.9318C15.5882 47.7179 14.2674 47.2565 13.0823 46.5974Z" fill="#FEFEFE"/>
<path fill-rule="evenodd" clip-rule="evenodd" d="M14.6634 49.6385C11.4274 46.7075 10.8732 44.5675 10.3552 43.0702C11.9233 45.1391 14.3377 46.6068 17.1268 47.0324C18.742 47.4207 20.2382 47.2801 21.6511 46.7894C25.9495 45.643 29.105 41.9624 29.1553 37.5849C29.1575 37.5036 29.1577 37.4227 29.157 37.3431C29.095 32.6815 25.6056 28.3779 20.2037 26.359C19.9713 26.2725 19.3646 26.0365 18.9161 25.8478C12.4731 23.439 9.19272 16.7461 11.5904 10.8986C14.2304 4.45973 22.5136 1.38213 29.0181 3.64893L29.0088 3.64746L28.8119 3.61348L28.7704 3.60691L28.5775 3.57827L28.5501 3.57462C28.1152 3.51536 27.6805 3.48452 27.248 3.48064L27.2008 3.48016L27.0058 3.48137L26.9845 3.48161C26.9133 3.48258 26.8412 3.48454 26.77 3.48721H26.7693C26.3293 3.50396 25.8924 3.54816 25.4613 3.61979L25.4363 3.62368L25.2394 3.65913L25.2177 3.66326L25.0191 3.70284L24.997 3.7077L24.7983 3.75214L24.784 3.75529C24.5048 3.8211 24.2291 3.89733 23.9569 3.98548L23.9413 3.99058C23.8172 4.03064 23.6941 4.07364 23.5717 4.11856L23.4979 4.14576L23.3464 4.20429L23.3043 4.22079L23.1361 4.28951L23.0899 4.30893C22.9653 4.36139 22.8415 4.41674 22.7191 4.47429L22.695 4.48596C22.5187 4.56998 22.3441 4.65837 22.1724 4.75186L22.1202 4.78003L21.9954 4.85067L21.9051 4.90242L21.7948 4.96796L21.7171 5.01458L21.5925 5.09206L21.5082 5.14572L21.4019 5.21518L21.304 5.28098L21.2108 5.34461L21.0881 5.43128L21.0289 5.4733L21.0111 5.48615C20.9516 5.52914 20.8926 5.57334 20.8339 5.61826L20.8276 5.62313L20.7933 5.64983L20.6464 5.7647L20.54 5.85163L20.4754 5.90432L20.3678 5.99586L20.2799 6.07212L20.1998 6.14326L20.1121 6.22242L20.015 6.31251L19.9363 6.38754L19.8472 6.474L19.7653 6.55583L19.6794 6.64251L19.6711 6.65078L19.5203 6.80983L19.5171 6.81322C19.4666 6.86762 19.4159 6.92322 19.3663 6.97931L19.3651 6.98078L19.2816 7.07694L19.2019 7.16921L19.1327 7.25273L19.0487 7.35499L18.9846 7.43559L18.895 7.55093L18.8294 7.63689L18.7541 7.73865L18.6873 7.83092L18.6157 7.93265L18.5416 8.03974L18.5346 8.04947L18.4183 8.22502L18.4088 8.24008C18.3673 8.30418 18.3265 8.36878 18.2866 8.4341L18.2798 8.44503L18.2434 8.50622L18.1577 8.64997L18.1103 8.73328L18.0343 8.86804L17.9906 8.94938L17.9136 9.09508L17.8719 9.17667L17.8073 9.3061L17.7558 9.4132L17.6955 9.54286L17.654 9.63342L17.5785 9.80632L17.5542 9.86314C17.5212 9.9423 17.4886 10.022 17.4571 10.1023C17.424 10.1864 17.3925 10.2699 17.3624 10.3539C17.332 10.4379 17.3028 10.5219 17.2747 10.6062H17.2744C17.2465 10.6905 17.2196 10.775 17.1938 10.8597H17.1933C17.1676 10.9442 17.1431 11.0285 17.1193 11.1132C17.096 11.198 17.0734 11.283 17.0522 11.368H17.0517C17.0306 11.4527 17.0105 11.5379 16.9913 11.6229C16.9721 11.7079 16.9541 11.7929 16.9374 11.8781C16.9201 11.9631 16.9046 12.0484 16.89 12.1336C16.8752 12.2191 16.8616 12.3043 16.8492 12.3893C16.8366 12.4748 16.8249 12.56 16.8147 12.6452C16.804 12.7307 16.7951 12.8155 16.7871 12.9007H16.7868C16.7785 12.9859 16.7715 13.0709 16.7654 13.1561C16.7594 13.2414 16.7543 13.3261 16.7504 13.4114C16.7465 13.4966 16.7436 13.5813 16.7416 13.6663C16.7399 13.7511 16.739 13.8363 16.7395 13.9208C16.7397 14.0056 16.7407 14.0901 16.7429 14.1746H16.7433C16.7458 14.2593 16.7489 14.3436 16.753 14.4278C16.7574 14.5116 16.763 14.5964 16.7693 14.6804C16.7759 14.7642 16.7832 14.8479 16.7914 14.9315H16.7919C16.8006 15.0153 16.8096 15.0985 16.8201 15.1821C16.8305 15.2653 16.8417 15.3484 16.8543 15.4312H16.8546C16.8667 15.514 16.8803 15.5968 16.8946 15.6791C16.9092 15.7617 16.9247 15.8438 16.941 15.9261H16.9413C16.9578 16.0079 16.9748 16.0898 16.993 16.1713C17.0114 16.2529 17.0309 16.3343 17.051 16.4151H17.0513C17.0717 16.496 17.0926 16.5769 17.1149 16.6572L17.1841 16.8977H17.1843C17.2084 16.9775 17.2336 17.057 17.2594 17.1361C17.2856 17.2153 17.3121 17.2942 17.34 17.3726H17.3405C17.3682 17.4513 17.3971 17.5295 17.4267 17.6072C17.4563 17.6851 17.4869 17.7624 17.5185 17.8393H17.5188C17.5503 17.9163 17.5826 17.9933 17.6161 18.0693H17.6164C17.6496 18.1455 17.6839 18.2213 17.7188 18.2971H17.7191C17.7543 18.3723 17.79 18.4479 17.8272 18.5222H17.8274C17.8643 18.597 17.9022 18.671 17.9411 18.7449C17.9799 18.8184 18.019 18.8918 18.0598 18.9646H18.0603C18.1006 19.0375 18.1421 19.1101 18.1844 19.1817C18.2267 19.2536 18.2696 19.325 18.3136 19.3959H18.3138C18.358 19.4665 18.403 19.5367 18.4486 19.6066C18.4943 19.6766 18.5409 19.746 18.5883 19.8147C18.6359 19.8837 18.6839 19.9515 18.7332 20.0192C18.7823 20.0867 18.8326 20.1542 18.8831 20.2207C18.9341 20.2873 18.9855 20.3533 19.038 20.4187H19.0382C19.0907 20.4837 19.1434 20.5488 19.1978 20.6132H19.198C19.2519 20.6773 19.3068 20.7409 19.3627 20.8038C19.4185 20.8667 19.4747 20.9296 19.5322 20.9908H19.5324C19.5898 21.0524 19.648 21.1134 19.7068 21.1736C19.7658 21.2341 19.8256 21.2941 19.8858 21.3528H19.886C19.9467 21.4121 20.0079 21.4701 20.0699 21.5277C20.132 21.5857 20.1949 21.6425 20.2583 21.6986H20.2585C20.3222 21.7547 20.3868 21.8106 20.4519 21.8652C20.5169 21.9201 20.5828 21.9737 20.6493 22.0272C20.7163 22.0806 20.7838 22.133 20.8518 22.1848C20.9203 22.2365 20.9888 22.2877 21.0585 22.3377C21.128 22.3878 21.1986 22.4376 21.2695 22.4864C21.3407 22.5349 21.4126 22.5825 21.4852 22.6296C21.5578 22.6767 21.6314 22.7229 21.7054 22.768C21.7795 22.8134 21.8538 22.8579 21.9294 22.9016C22.0051 22.9453 22.0811 22.988 22.1579 23.03C22.2348 23.0716 22.3123 23.1126 22.3908 23.1529C22.469 23.193 22.5479 23.2323 22.6275 23.2707C22.7074 23.3088 22.7878 23.3465 22.8687 23.3829C23.3454 23.5983 23.8345 23.7984 24.3204 23.9924V23.9926L24.3459 24.0026V24.0028L24.3581 24.0072V24.0077L24.37 24.0121V24.0123L24.3923 24.021L24.403 24.0254H24.4032L24.4129 24.0293H24.4134L24.4229 24.0332L24.4324 24.0368C31.3751 26.7514 34.8022 34.5797 32.0877 41.5217C27.9066 52.2139 16.2283 50.1003 14.7634 49.6705L14.6634 49.6385V49.6385Z" fill="#850B3A"/>
</svg>
