<svg width="100" height="100" viewBox="0 0 100 100" fill="none" xmlns="http://www.w3.org/2000/svg">
<path d="M49.6229 99C76.4361 99 98.1559 77.0527 98.1559 50C98.1559 22.9473 76.4361 1 49.6229 1C22.8096 1 1.08984 22.9473 1.08984 50C1.08984 77.0527 22.8096 99 49.6229 99Z" fill="#850B3A" stroke="#FFAF00" stroke-width="2" stroke-linecap="round" stroke-linejoin="bevel"/>
<path d="M19.2312 57.5976C19.2312 58.7378 18.3062 59.6622 17.1652 59.6622C16.0242 59.6622 15.0991 58.7378 15.0991 57.5976V46.9354C15.0991 45.0029 15.8887 43.2476 17.1608 41.9764C18.4329 40.7052 20.1895 39.9161 22.1234 39.9161H30.31C31.451 39.9161 32.376 40.8405 32.376 41.9807C32.376 43.1209 31.451 44.0453 30.31 44.0453H22.1234C21.3302 44.0453 20.6075 44.3711 20.0824 44.8959C19.5572 45.4207 19.2312 46.1428 19.2312 46.9354V57.5976ZM70.5453 61.5866C69.4519 61.2536 68.8356 60.0978 69.1688 59.0051C69.502 57.9125 70.6586 57.2967 71.7521 57.6297L80.5513 60.3143C80.6181 60.3272 80.6819 60.3385 80.7411 60.3476L80.8007 49.4112L72.1117 53.9814C71.0999 54.5129 69.8485 54.1242 69.3165 53.1132C69.3059 53.0929 69.2957 53.0725 69.2858 53.0521C69.1474 52.775 69.0695 52.4624 69.0695 52.1317V46.9354C69.0695 46.1429 68.7435 45.4207 68.2183 44.8959C67.6932 44.3711 66.9704 44.0453 66.1773 44.0453H42.0399C40.8989 44.0453 40.6712 43.1209 40.6712 41.9807C40.6712 40.8405 40.8989 39.9161 42.0399 39.9161H66.1773C68.1111 39.9161 69.8678 40.7052 71.1399 41.9764C72.4119 43.2476 73.2016 45.003 73.2016 46.9354L73.2788 48.6929L74.4544 48.0746L85.1212 42.4207L85.0792 65.9999L81.6213 64.9135C81.4724 64.9022 81.3223 64.8746 81.1734 64.8292L70.5453 61.5866Z" fill="#FFAF00"/>
<path d="M55.7116 46.6895H65.1329V50.2508H61.3698V53.6543H64.8857V57.0354H61.3698V60.9573H65.5174V64.5186H55.7116V46.6895Z" fill="#FEFEFE"/>
<path d="M54.7368 46.6895L51.8756 64.5186H43.3195L40.8154 50.8982C40.775 50.6606 40.7293 50.4428 40.6816 50.2441C41.4322 49.8597 42.1452 49.3659 42.7978 48.7618C43.4721 48.1378 44.0344 47.4386 44.4836 46.6895H46.0021C46.6751 51.6069 47.1649 55.7656 47.4716 59.1654C47.7738 55.728 48.0851 52.6776 48.4009 50.0141L48.7764 46.6895H54.7368Z" fill="#FEFEFE"/>
<path d="M39.0755 50.8854V64.5185H33.4173V50.7861C34.2677 51.069 35.1524 51.2283 36.0423 51.2623C37.0635 51.3014 38.0892 51.1763 39.0755 50.8854Z" fill="#FEFEFE"/>
<path d="M28.6284 47.1767V60.9573H32.0344V64.5186H22.9701V46.6895H28.3142C28.4133 46.8541 28.518 47.0167 28.6284 47.1767Z" fill="#FEFEFE"/>
<path d="M41.4343 37.199C42.0688 37.8835 42.5365 38.6592 42.8391 39.4767C43.1529 40.3246 43.2917 41.2232 43.2574 42.1171C43.2232 43.0114 43.0151 43.8984 42.6359 44.7229C42.2703 45.5173 41.745 46.2553 41.062 46.8875C40.377 47.5215 39.6008 47.9888 38.7827 48.2913C37.9342 48.6049 37.0349 48.7435 36.1404 48.7093C35.2455 48.6751 34.3579 48.4672 33.5329 48.0882C32.7379 47.7229 31.9994 47.198 31.3667 46.5154C30.7323 45.8308 30.2646 45.0553 29.962 44.2378C29.6482 43.3899 29.5094 42.4912 29.5437 41.5972C29.5779 40.7029 29.786 39.8159 30.1652 38.9915C30.5308 38.1971 31.0561 37.459 31.7391 36.8269C32.4241 36.1929 33.2003 35.7255 34.0184 35.4231C34.8669 35.1095 35.7662 34.9708 36.6607 35.0051C37.5556 35.0393 38.4433 35.2472 39.2683 35.6263C40.0632 35.9915 40.8018 36.5164 41.4343 37.199ZM40.2335 42.0067C40.2526 41.5081 40.1738 41.0032 39.996 40.5231C39.8255 40.0623 39.5654 39.629 39.2153 39.2513C38.8635 38.8717 38.4515 38.5791 38.0074 38.3749C37.545 38.1624 37.049 38.046 36.5502 38.0269C36.0512 38.0078 35.546 38.0865 35.0656 38.2642C34.6044 38.4346 34.1708 38.6945 33.7929 39.0443C33.413 39.396 33.1202 39.8077 32.9158 40.2515C32.7032 40.7135 32.5867 41.2092 32.5676 41.7076C32.5485 42.2063 32.6273 42.7112 32.805 43.1912C32.9756 43.652 33.2357 44.0854 33.5858 44.463C33.9376 44.8427 34.3497 45.1353 34.7938 45.3395C35.2561 45.5519 35.7521 45.6684 36.2509 45.6875C36.7499 45.7065 37.2552 45.6278 37.7355 45.4501C38.1967 45.2797 38.6303 45.0198 39.0082 44.67C39.3881 44.3184 39.6809 43.9067 39.8853 43.4628C40.0978 43.0009 40.2144 42.5052 40.2335 42.0067Z" fill="#FFAF00"/>
<path d="M36.4007 36.5764C39.3192 36.5764 41.685 38.9406 41.685 41.8571C41.685 44.7736 39.3192 47.1378 36.4007 47.1378C33.4822 47.1378 31.1164 44.7736 31.1164 41.8571C31.1164 38.9406 33.4822 36.5764 36.4007 36.5764Z" fill="#FEFEFE"/>
<path fill-rule="evenodd" clip-rule="evenodd" d="M34.3535 45.3302V38.3835L40.4282 41.8589L34.3535 45.3302Z" fill="#BD0A4E"/>
</svg>
