<svg width="196" height="67" viewBox="0 0 196 67" fill="none" xmlns="http://www.w3.org/2000/svg">
<rect width="196" height="67" rx="10" fill="black"/>
<path d="M22.4875 27.3639V41.1613C22.4875 42.9951 21.0464 44.4611 19.2107 44.4611C17.3883 44.4611 15.625 42.9837 15.625 41.1613V27.3639C15.625 25.5644 17.3883 24.087 19.2107 24.087C21.0102 24.087 22.4875 25.5644 22.4875 27.3639ZM23.7742 46.0699C23.7742 48.0238 25.3469 49.5965 27.3008 49.5965H29.6722L29.7084 56.8765C29.7084 61.2723 36.2849 61.238 36.2849 56.8765V49.5965H40.717V56.8765C40.717 61.2494 47.3298 61.2608 47.3298 56.8765V49.5965H49.7354C50.197 49.595 50.6537 49.5026 51.0795 49.3245C51.5053 49.1464 51.8918 48.8862 52.217 48.5587C52.5422 48.2312 52.7997 47.8429 52.9747 47.4158C53.1498 46.9888 53.239 46.5314 53.2372 46.0699V24.697H23.7742V46.0699ZM53.3211 23.54H23.6427C23.6427 18.4407 26.6927 14.0087 31.22 11.6983L28.944 7.49314C28.6104 6.90983 29.4567 6.54002 29.7427 7.03945L32.0531 11.2809C36.2106 9.4337 40.9896 9.52902 44.9565 11.2809L47.2554 7.05089C47.5528 6.53811 48.3877 6.91936 48.0541 7.50458L45.7781 11.6983C50.2692 14.0087 53.3192 18.4426 53.3192 23.54H53.3211ZM32.9833 16.9272C32.9833 16.5955 32.8516 16.2775 32.6171 16.0429C32.3825 15.8084 32.0645 15.6767 31.7328 15.6767C31.0542 15.6767 30.5185 16.2485 30.5185 16.9272C30.5185 17.6058 31.0675 18.1777 31.7328 18.1777C32.4362 18.1777 32.9833 17.6058 32.9833 16.9272ZM46.4948 16.9272C46.4964 16.6009 46.3698 16.2871 46.1424 16.0533C45.9149 15.8194 45.6048 15.6842 45.2786 15.6767C44.947 15.6767 44.6289 15.8084 44.3944 16.0429C44.1599 16.2775 44.0281 16.5955 44.0281 16.9272C44.0281 17.2588 44.1599 17.5769 44.3944 17.8114C44.6289 18.0459 44.947 18.1777 45.2786 18.1777C45.9458 18.1777 46.4948 17.6058 46.4948 16.9272ZM57.7893 24.089C55.9898 24.089 54.5125 25.5301 54.5125 27.3658V41.1632C54.5125 42.9971 55.9898 44.463 57.7893 44.463C59.6251 44.463 61.375 42.9856 61.375 41.1632V27.3658C61.375 25.532 59.6117 24.089 57.7893 24.089Z" fill="#12BF43"/>
<path d="M76.41 15.545C77.55 15.545 78.535 15.76 79.365 16.19C80.205 16.61 80.845 17.215 81.285 18.005C81.735 18.795 81.96 19.725 81.96 20.795C81.96 21.865 81.735 22.795 81.285 23.585C80.845 24.365 80.205 24.965 79.365 25.385C78.535 25.795 77.55 26 76.41 26H73.155V15.545H76.41ZM76.41 24.875C77.76 24.875 78.79 24.52 79.5 23.81C80.21 23.09 80.565 22.085 80.565 20.795C80.565 19.495 80.205 18.48 79.485 17.75C78.775 17.02 77.75 16.655 76.41 16.655H74.52V24.875H76.41ZM87.3455 26.135C86.5755 26.135 85.8755 25.96 85.2455 25.61C84.6255 25.26 84.1355 24.765 83.7755 24.125C83.4255 23.475 83.2505 22.725 83.2505 21.875C83.2505 21.035 83.4305 20.295 83.7905 19.655C84.1605 19.005 84.6605 18.51 85.2905 18.17C85.9205 17.82 86.6255 17.645 87.4055 17.645C88.1855 17.645 88.8905 17.82 89.5205 18.17C90.1505 18.51 90.6455 19 91.0055 19.64C91.3755 20.28 91.5605 21.025 91.5605 21.875C91.5605 22.725 91.3705 23.475 90.9905 24.125C90.6205 24.765 90.1155 25.26 89.4755 25.61C88.8355 25.96 88.1255 26.135 87.3455 26.135ZM87.3455 24.935C87.8355 24.935 88.2955 24.82 88.7255 24.59C89.1555 24.36 89.5005 24.015 89.7605 23.555C90.0305 23.095 90.1655 22.535 90.1655 21.875C90.1655 21.215 90.0355 20.655 89.7755 20.195C89.5155 19.735 89.1755 19.395 88.7555 19.175C88.3355 18.945 87.8805 18.83 87.3905 18.83C86.8905 18.83 86.4305 18.945 86.0105 19.175C85.6005 19.395 85.2705 19.735 85.0205 20.195C84.7705 20.655 84.6455 21.215 84.6455 21.875C84.6455 22.545 84.7655 23.11 85.0055 23.57C85.2555 24.03 85.5855 24.375 85.9955 24.605C86.4055 24.825 86.8555 24.935 87.3455 24.935ZM104.305 17.78L101.74 26H100.33L98.3502 19.475L96.3702 26H94.9602L92.3802 17.78H93.7752L95.6652 24.68L97.7052 17.78H99.1002L101.095 24.695L102.955 17.78H104.305ZM109.665 17.63C110.665 17.63 111.475 17.935 112.095 18.545C112.715 19.145 113.025 20.015 113.025 21.155V26H111.675V21.35C111.675 20.53 111.47 19.905 111.06 19.475C110.65 19.035 110.09 18.815 109.38 18.815C108.66 18.815 108.085 19.04 107.655 19.49C107.235 19.94 107.025 20.595 107.025 21.455V26H105.66V17.78H107.025V18.95C107.295 18.53 107.66 18.205 108.12 17.975C108.59 17.745 109.105 17.63 109.665 17.63ZM116.62 14.9V26H115.255V14.9H116.62ZM122.531 26.135C121.761 26.135 121.061 25.96 120.431 25.61C119.811 25.26 119.321 24.765 118.961 24.125C118.611 23.475 118.436 22.725 118.436 21.875C118.436 21.035 118.616 20.295 118.976 19.655C119.346 19.005 119.846 18.51 120.476 18.17C121.106 17.82 121.811 17.645 122.591 17.645C123.371 17.645 124.076 17.82 124.706 18.17C125.336 18.51 125.831 19 126.191 19.64C126.561 20.28 126.746 21.025 126.746 21.875C126.746 22.725 126.556 23.475 126.176 24.125C125.806 24.765 125.301 25.26 124.661 25.61C124.021 25.96 123.311 26.135 122.531 26.135ZM122.531 24.935C123.021 24.935 123.481 24.82 123.911 24.59C124.341 24.36 124.686 24.015 124.946 23.555C125.216 23.095 125.351 22.535 125.351 21.875C125.351 21.215 125.221 20.655 124.961 20.195C124.701 19.735 124.361 19.395 123.941 19.175C123.521 18.945 123.066 18.83 122.576 18.83C122.076 18.83 121.616 18.945 121.196 19.175C120.786 19.395 120.456 19.735 120.206 20.195C119.956 20.655 119.831 21.215 119.831 21.875C119.831 22.545 119.951 23.11 120.191 23.57C120.441 24.03 120.771 24.375 121.181 24.605C121.591 24.825 122.041 24.935 122.531 24.935ZM128.031 21.86C128.031 21.02 128.201 20.285 128.541 19.655C128.881 19.015 129.346 18.52 129.936 18.17C130.536 17.82 131.201 17.645 131.931 17.645C132.651 17.645 133.276 17.8 133.806 18.11C134.336 18.42 134.731 18.81 134.991 19.28V17.78H136.371V26H134.991V24.47C134.721 24.95 134.316 25.35 133.776 25.67C133.246 25.98 132.626 26.135 131.916 26.135C131.186 26.135 130.526 25.955 129.936 25.595C129.346 25.235 128.881 24.73 128.541 24.08C128.201 23.43 128.031 22.69 128.031 21.86ZM134.991 21.875C134.991 21.255 134.866 20.715 134.616 20.255C134.366 19.795 134.026 19.445 133.596 19.205C133.176 18.955 132.711 18.83 132.201 18.83C131.691 18.83 131.226 18.95 130.806 19.19C130.386 19.43 130.051 19.78 129.801 20.24C129.551 20.7 129.426 21.24 129.426 21.86C129.426 22.49 129.551 23.04 129.801 23.51C130.051 23.97 130.386 24.325 130.806 24.575C131.226 24.815 131.691 24.935 132.201 24.935C132.711 24.935 133.176 24.815 133.596 24.575C134.026 24.325 134.366 23.97 134.616 23.51C134.866 23.04 134.991 22.495 134.991 21.875ZM138.167 21.86C138.167 21.02 138.337 20.285 138.677 19.655C139.017 19.015 139.482 18.52 140.072 18.17C140.672 17.82 141.342 17.645 142.082 17.645C142.722 17.645 143.317 17.795 143.867 18.095C144.417 18.385 144.837 18.77 145.127 19.25V14.9H146.507V26H145.127V24.455C144.857 24.945 144.457 25.35 143.927 25.67C143.397 25.98 142.777 26.135 142.067 26.135C141.337 26.135 140.672 25.955 140.072 25.595C139.482 25.235 139.017 24.73 138.677 24.08C138.337 23.43 138.167 22.69 138.167 21.86ZM145.127 21.875C145.127 21.255 145.002 20.715 144.752 20.255C144.502 19.795 144.162 19.445 143.732 19.205C143.312 18.955 142.847 18.83 142.337 18.83C141.827 18.83 141.362 18.95 140.942 19.19C140.522 19.43 140.187 19.78 139.937 20.24C139.687 20.7 139.562 21.24 139.562 21.86C139.562 22.49 139.687 23.04 139.937 23.51C140.187 23.97 140.522 24.325 140.942 24.575C141.362 24.815 141.827 24.935 142.337 24.935C142.847 24.935 143.312 24.815 143.732 24.575C144.162 24.325 144.502 23.97 144.752 23.51C145.002 23.04 145.127 22.495 145.127 21.875ZM156.398 26.135C155.628 26.135 154.928 25.96 154.298 25.61C153.678 25.26 153.188 24.765 152.828 24.125C152.478 23.475 152.303 22.725 152.303 21.875C152.303 21.035 152.483 20.295 152.843 19.655C153.213 19.005 153.713 18.51 154.343 18.17C154.973 17.82 155.678 17.645 156.458 17.645C157.238 17.645 157.943 17.82 158.573 18.17C159.203 18.51 159.698 19 160.058 19.64C160.428 20.28 160.613 21.025 160.613 21.875C160.613 22.725 160.423 23.475 160.043 24.125C159.673 24.765 159.168 25.26 158.528 25.61C157.888 25.96 157.178 26.135 156.398 26.135ZM156.398 24.935C156.888 24.935 157.348 24.82 157.778 24.59C158.208 24.36 158.553 24.015 158.813 23.555C159.083 23.095 159.218 22.535 159.218 21.875C159.218 21.215 159.088 20.655 158.828 20.195C158.568 19.735 158.228 19.395 157.808 19.175C157.388 18.945 156.933 18.83 156.443 18.83C155.943 18.83 155.483 18.945 155.063 19.175C154.653 19.395 154.323 19.735 154.073 20.195C153.823 20.655 153.698 21.215 153.698 21.875C153.698 22.545 153.818 23.11 154.058 23.57C154.308 24.03 154.638 24.375 155.048 24.605C155.458 24.825 155.908 24.935 156.398 24.935ZM169.698 17.78V26H168.333V24.785C168.073 25.205 167.708 25.535 167.238 25.775C166.778 26.005 166.268 26.12 165.708 26.12C165.068 26.12 164.493 25.99 163.983 25.73C163.473 25.46 163.068 25.06 162.768 24.53C162.478 24 162.333 23.355 162.333 22.595V17.78H163.683V22.415C163.683 23.225 163.888 23.85 164.298 24.29C164.708 24.72 165.268 24.935 165.978 24.935C166.708 24.935 167.283 24.71 167.703 24.26C168.123 23.81 168.333 23.155 168.333 22.295V17.78H169.698ZM173.368 19.115C173.608 18.645 173.948 18.28 174.388 18.02C174.838 17.76 175.383 17.63 176.023 17.63V19.04H175.663C174.133 19.04 173.368 19.87 173.368 21.53V26H172.003V17.78H173.368V19.115ZM83.736 46.28H76.44L75.096 50H72.792L78.84 33.368H81.36L87.384 50H85.08L83.736 46.28ZM83.112 44.504L80.088 36.056L77.064 44.504H83.112ZM92.2039 39.272C92.6359 38.52 93.2759 37.896 94.1239 37.4C94.9879 36.888 95.9879 36.632 97.1239 36.632C98.2919 36.632 99.3479 36.912 100.292 37.472C101.252 38.032 102.004 38.824 102.548 39.848C103.092 40.856 103.364 42.032 103.364 43.376C103.364 44.704 103.092 45.888 102.548 46.928C102.004 47.968 101.252 48.776 100.292 49.352C99.3479 49.928 98.2919 50.216 97.1239 50.216C96.0039 50.216 95.0119 49.968 94.1479 49.472C93.2999 48.96 92.6519 48.328 92.2039 47.576V56.24H90.0199V36.848H92.2039V39.272ZM101.132 43.376C101.132 42.384 100.932 41.52 100.532 40.784C100.132 40.048 99.5879 39.488 98.8999 39.104C98.2279 38.72 97.4839 38.528 96.6679 38.528C95.8679 38.528 95.1239 38.728 94.4359 39.128C93.7639 39.512 93.2199 40.08 92.8039 40.832C92.4039 41.568 92.2039 42.424 92.2039 43.4C92.2039 44.392 92.4039 45.264 92.8039 46.016C93.2199 46.752 93.7639 47.32 94.4359 47.72C95.1239 48.104 95.8679 48.296 96.6679 48.296C97.4839 48.296 98.2279 48.104 98.8999 47.72C99.5879 47.32 100.132 46.752 100.532 46.016C100.932 45.264 101.132 44.384 101.132 43.376ZM108.423 39.272C108.855 38.52 109.495 37.896 110.343 37.4C111.207 36.888 112.207 36.632 113.343 36.632C114.511 36.632 115.567 36.912 116.511 37.472C117.471 38.032 118.223 38.824 118.767 39.848C119.311 40.856 119.583 42.032 119.583 43.376C119.583 44.704 119.311 45.888 118.767 46.928C118.223 47.968 117.471 48.776 116.511 49.352C115.567 49.928 114.511 50.216 113.343 50.216C112.223 50.216 111.231 49.968 110.367 49.472C109.519 48.96 108.871 48.328 108.423 47.576V56.24H106.239V36.848H108.423V39.272ZM117.351 43.376C117.351 42.384 117.151 41.52 116.751 40.784C116.351 40.048 115.807 39.488 115.119 39.104C114.447 38.72 113.703 38.528 112.887 38.528C112.087 38.528 111.343 38.728 110.655 39.128C109.983 39.512 109.439 40.08 109.023 40.832C108.623 41.568 108.423 42.424 108.423 43.4C108.423 44.392 108.623 45.264 109.023 46.016C109.439 46.752 109.983 47.32 110.655 47.72C111.343 48.104 112.087 48.296 112.887 48.296C113.703 48.296 114.447 48.104 115.119 47.72C115.807 47.32 116.351 46.752 116.751 46.016C117.151 45.264 117.351 44.384 117.351 43.376ZM142.008 50H139.824L131.04 36.68V50H128.856V33.248H131.04L139.824 46.544V33.248H142.008V50ZM151.467 50.216C150.235 50.216 149.115 49.936 148.107 49.376C147.115 48.816 146.331 48.024 145.755 47C145.195 45.96 144.915 44.76 144.915 43.4C144.915 42.056 145.203 40.872 145.779 39.848C146.371 38.808 147.171 38.016 148.179 37.472C149.187 36.912 150.315 36.632 151.563 36.632C152.811 36.632 153.939 36.912 154.947 37.472C155.955 38.016 156.747 38.8 157.323 39.824C157.915 40.848 158.211 42.04 158.211 43.4C158.211 44.76 157.907 45.96 157.299 47C156.707 48.024 155.899 48.816 154.875 49.376C153.851 49.936 152.715 50.216 151.467 50.216ZM151.467 48.296C152.251 48.296 152.987 48.112 153.675 47.744C154.363 47.376 154.915 46.824 155.331 46.088C155.763 45.352 155.979 44.456 155.979 43.4C155.979 42.344 155.771 41.448 155.355 40.712C154.939 39.976 154.395 39.432 153.723 39.08C153.051 38.712 152.323 38.528 151.539 38.528C150.739 38.528 150.003 38.712 149.331 39.08C148.675 39.432 148.147 39.976 147.747 40.712C147.347 41.448 147.147 42.344 147.147 43.4C147.147 44.472 147.339 45.376 147.723 46.112C148.123 46.848 148.651 47.4 149.307 47.768C149.963 48.12 150.683 48.296 151.467 48.296ZM178.602 36.848L174.498 50H172.242L169.074 39.56L165.906 50H163.65L159.522 36.848H161.754L164.778 47.888L168.042 36.848H170.274L173.466 47.912L176.442 36.848H178.602Z" fill="white"/>
</svg>
