<svg width="100" height="100" viewBox="0 0 100 100" fill="none" xmlns="http://www.w3.org/2000/svg">
<path d="M49.7127 99C76.5259 99 98.2457 77.0527 98.2457 50C98.2457 22.9473 76.5259 1 49.7127 1C22.8995 1 1.17969 22.9473 1.17969 50C1.17969 77.0527 22.8995 99 49.7127 99Z" fill="#850B3A" stroke="#FFAF00" stroke-width="2" stroke-linecap="round" stroke-linejoin="bevel"/>
<path fill-rule="evenodd" clip-rule="evenodd" d="M29.5576 41.8728C28.0366 41.8526 26.6833 42.0798 24.6439 42.297C24.2319 42.4541 23.8132 42.6723 23.5494 42.8276C23.4526 42.9652 23.3901 43.1687 23.3347 43.2918C24.09 44.0717 24.6184 43.99 25.8231 44.2947C25.9371 44.3237 26.2744 44.4118 26.3451 44.4389C27.4283 44.8527 25.4889 44.0164 26.5913 44.5499L26.8255 44.6885C28.2632 44.5638 27.3333 45.2716 28.9736 45.4917C29.675 45.5858 30.8486 45.7442 32.0848 45.9308C31.2169 44.9508 30.496 43.8727 29.9396 42.7306C29.8025 42.4485 29.6748 42.1625 29.5576 41.8728ZM63.7191 49.2611C64.1668 49.2239 64.6163 49.1854 65.0645 49.1467C65.1568 47.3297 65.1093 45.5228 64.9083 43.7565C64.4633 43.7899 64.0183 43.8226 63.5738 43.8511C63.778 45.6193 63.822 47.4349 63.7191 49.2611ZM66.4146 49.0267C70.1178 48.6909 73.4869 48.3221 74.5653 48.0459C75.9492 47.6916 75.7838 47.388 76.5736 46.7767C76.4876 45.381 76.4523 44.8933 75.4092 44.3762C74.5696 43.9602 73.5199 43.8034 72.4109 43.6642C70.3618 43.4062 68.3039 43.5074 66.2463 43.656C66.4449 45.4197 66.4969 47.2195 66.4146 49.0267ZM62.4376 56.9885C62.8966 56.9611 63.3664 56.931 63.8455 56.8989C64.2401 55.3988 64.5496 53.8728 64.7627 52.3395L63.3904 52.4745C63.1657 53.9944 62.8457 55.5058 62.4376 56.9885ZM65.2573 56.7974C72.6882 56.2286 81.3902 55.0184 81.19 52.5388C80.8592 48.4313 72.0754 50.449 68.8405 50.8146C67.9955 50.9101 67.1329 51.0176 66.259 51.1288C66.226 51.4507 66.1888 51.7725 66.1479 52.0941H67.255L66.1337 52.2046C65.9324 53.7474 65.6377 55.2839 65.2573 56.7974ZM64.8917 51.3039C64.4374 51.3621 63.9813 51.4196 63.5242 51.4763C63.4994 51.6824 63.4727 51.8885 63.4445 52.0941H64.7938C64.8289 51.8308 64.8624 51.5675 64.8917 51.3039ZM41.7194 51.6123L36.0586 51.4307C32.3956 51.9436 30.8365 50.6249 29.8199 50.5745C28.9989 50.5342 28.3291 50.6083 27.4826 50.5015C26.0974 50.3267 24.8001 49.8726 23.4571 49.6965C22.4433 49.5636 20.0465 49.8565 18.9544 49.9904L18.2184 50.4459L19.6854 51.2646C20.2776 51.597 19.1725 50.942 19.9014 51.4001L20.1074 51.5514C21.9142 51.8076 21.1761 52.5807 22.7027 53.0942C24.6912 53.7635 27.251 54.2859 29.2514 54.8927C30.3881 55.2372 31.4 55.864 32.6754 55.9217C35.1388 56.034 42.0352 56.5459 47.3142 56.9123C46.9821 56.3058 46.5867 55.7206 46.1319 55.1631C44.9992 53.7745 43.5037 52.5594 41.7194 51.6123ZM48.1468 58.903C47.4192 58.8953 46.6904 58.8769 46.0272 58.7345C44.1745 58.3378 35.5099 58.6441 33.1761 58.3879C31.1114 58.1612 27.5161 57.8183 25.4799 57.9482C21.5602 58.1994 20.1225 57.0449 18.1904 57.4334C18.3574 57.9163 17.9208 57.8449 19.4432 58.3573C29.8391 61.8502 25.1486 58.0389 28.7183 62.181C30.4522 61.798 29.2786 62.2748 31.4928 62.9001L33.0131 63.2406C33.1772 63.2709 33.3497 63.301 33.5325 63.3308C37.1323 63.7971 43.3528 64.2871 47.0491 64.8651C47.1172 64.7882 47.1839 64.7101 47.2483 64.6305C47.7669 63.9948 48.1808 63.282 48.4675 62.5142C48.5021 62.2192 48.5216 61.92 48.5253 61.6172L48.5272 61.3807C48.5158 60.5407 48.386 59.7103 48.1468 58.903ZM59.476 64.5096C59.988 64.4671 60.5127 64.4218 61.0466 64.3738C61.9216 62.6162 62.6729 60.7573 63.2826 58.8392C62.8003 58.884 62.3129 58.9272 61.8346 58.9696C61.2843 60.6179 60.6256 62.2171 59.8711 63.7378C59.7421 63.9974 59.6103 64.2547 59.476 64.5096ZM62.6072 64.2278C66.952 63.8029 71.6406 63.1934 74.8159 62.3418C76.9967 61.7571 78.7338 61.0702 78.589 58.3405C75.7429 56.3598 70.405 57.851 66.8836 58.423C66.2782 58.5213 65.5351 58.6117 64.7316 58.6963C64.1536 60.6052 63.4403 62.462 62.6072 64.2278Z" fill="#EF7F1A"/>
<path fill-rule="evenodd" clip-rule="evenodd" d="M53.299 26.0706C73.2023 35.9336 65.2143 69.503 49.4982 76.6772C43.0706 79.6115 36.5986 77.0818 34.1182 74.7116C35.0974 75.0727 48.3766 77.8328 53.0455 65.9008C55.8317 58.7804 52.6754 50.8073 45.9544 47.4639C29.2838 38.8719 44.9309 23.9747 53.299 26.0706Z" fill="#036922"/>
<path d="M53.403 39.1184C54.7961 39.9397 56.0463 39.7983 56.1954 38.8026C56.3445 37.807 55.336 36.3341 53.9429 35.5129C52.5498 34.6916 51.2995 34.833 51.1504 35.8287C51.0013 36.8243 52.0098 38.2972 53.403 39.1184Z" fill="#FEFEFE"/>
<path d="M54.0754 35.2857C54.8053 35.7159 55.4356 36.3182 55.8634 36.9435C56.3069 37.5911 56.539 38.2751 56.4546 38.8403C56.4285 39.0158 56.3731 39.1729 56.2929 39.3087C56.1454 39.5586 55.9172 39.7333 55.6297 39.8295C55.3633 39.9186 55.0467 39.9384 54.7011 39.887C54.2651 39.8219 53.7731 39.6421 53.2674 39.3442C52.5375 38.9141 51.9073 38.3118 51.4794 37.6865C51.036 37.0389 50.8038 36.3549 50.8882 35.7897C50.9144 35.6142 50.9697 35.4571 51.0499 35.3213C51.1974 35.0715 51.4261 34.8964 51.7131 34.8005C51.9796 34.7114 52.2964 34.6911 52.6425 34.743C53.0783 34.8084 53.5703 34.9881 54.0754 35.2857ZM55.4287 37.2403C55.0417 36.6749 54.4703 36.1292 53.8074 35.7386C53.3626 35.4766 52.9366 35.3192 52.5652 35.2639C52.2995 35.2243 52.0661 35.2365 51.8798 35.2987C51.7142 35.354 51.5841 35.4521 51.5032 35.5891C51.4575 35.6664 51.4253 35.7594 51.4095 35.8662C51.3454 36.2961 51.543 36.8475 51.9142 37.3897C52.3011 37.9551 52.8725 38.5008 53.5354 38.8914C53.9802 39.1534 54.4065 39.3105 54.7784 39.3661C55.0436 39.4057 55.277 39.3936 55.463 39.3314C55.6286 39.276 55.7584 39.1782 55.8397 39.0409C55.8853 38.9636 55.9175 38.8709 55.9333 38.7638C55.9974 38.3339 55.7998 37.7825 55.4287 37.2403Z" fill="#036922"/>
<path d="M33.4591 75.4413C29.9989 72.3098 29.2009 69.9523 28.6253 68.2476L26.5337 62.1146L30.2284 66.9869C31.0129 68.0215 32.0117 68.904 33.1629 69.5769C34.289 70.2354 35.5679 70.6961 36.9428 70.9057L37.0238 70.9249C37.7983 71.111 38.5475 71.1701 39.2737 71.1239C40.0002 71.0778 40.7032 70.9252 41.3859 70.6882L41.4592 70.665C43.6155 70.0904 45.48 68.876 46.8003 67.2576C48.0823 65.686 48.8526 63.7333 48.8766 61.6196L48.8785 61.3763C48.8479 59.0733 47.9597 56.8478 46.4049 54.9413C44.8239 53.0028 42.5558 51.3957 39.7941 50.3643C39.6512 50.311 39.3694 50.2027 39.0558 50.0783L38.3826 49.8047L37.9283 49.627C34.4009 48.1817 31.7347 45.6101 30.2566 42.5762C28.7654 39.5159 28.4794 35.9848 29.7256 32.6536L29.8699 32.2845C31.3838 28.5948 34.4694 25.8579 38.1082 24.3454C41.8549 22.7878 46.2078 22.5256 50.0373 23.8591L60.4221 27.4761C57.1693 26.9629 55.5919 26.5367 52.5865 25.7309L49.3008 25.7208C49.2443 25.7124 49.1222 25.6858 49.0731 25.6858C48.8719 25.6586 48.6566 25.6362 48.43 25.6201C48.1876 25.6027 47.9713 25.593 47.7824 25.5914C47.6492 25.5898 47.4009 25.583 47.2709 25.6025L47.2701 25.5998C47.0691 25.6083 46.8628 25.6233 46.652 25.6444C46.4405 25.6657 46.2247 25.695 46.0078 25.7309C45.9092 25.7309 45.6628 25.8015 45.5536 25.8186L45.5531 25.8157L45.3418 25.8629V25.8669L45.3262 25.8703C45.1682 25.9061 45.0352 25.9401 44.9242 25.9707C44.8052 26.0037 44.6707 26.0445 44.5203 26.0933L44.3277 26.155L44.3291 26.1584C44.1768 26.2127 44.0138 26.2659 43.8656 26.3292L43.8645 26.3266C42.8977 26.7214 42.0657 27.2067 41.2432 27.8485L41.245 27.8507C40.6085 28.3705 40.1848 28.808 39.6551 29.4254C39.3716 29.7933 39.1307 30.1257 38.887 30.5172L38.8841 30.5153L38.649 30.921L38.487 31.2286L38.49 31.2302L38.4198 31.3707L38.4169 31.3693C38.1132 32.002 37.889 32.6103 37.7049 33.2851L37.702 33.2843C37.5825 33.749 37.5044 34.1916 37.4361 34.6669L37.3968 35.0441L37.3994 35.0443C37.3514 35.6606 37.3493 36.2044 37.4042 36.8194L37.4015 36.8196L37.4564 37.3057L37.4928 37.5521C37.5532 37.8824 37.6178 38.1987 37.6991 38.5248L37.702 38.524C37.9668 39.5022 38.2976 40.279 38.7986 41.1562L38.7962 41.1575C39.4536 42.2594 40.3228 43.2665 41.3421 44.0494L41.3397 44.0523C41.8196 44.4213 42.3089 44.734 42.8415 45.0215L42.8428 45.0186L43.1916 45.1989L43.4379 45.3131C43.6893 45.4243 43.9434 45.5337 44.1966 45.6391C44.2378 45.656 45.6325 46.1937 45.6531 46.2056V46.2341C49.395 47.8633 52.1965 50.8016 53.7276 54.296C55.3333 57.9612 55.5398 62.2393 53.9668 66.2596C52.2463 70.6561 49.4142 73.1892 46.4012 74.6054C41.0155 77.137 35.0384 76.0112 33.9503 75.6922L33.619 75.5858L33.4591 75.4413ZM32.4018 71.4107C32.9505 72.1488 33.6649 72.9538 34.6151 73.83C35.8153 74.1439 40.9237 75.0037 45.5665 72.8215C48.1678 71.5989 50.6206 69.3929 52.1276 65.5416C53.5028 62.0269 53.3224 58.287 51.919 55.0836C50.5161 51.8817 47.8895 49.2137 44.3723 47.8396C44.1394 47.7444 43.8883 47.6606 43.6485 47.5744V47.5567L43.6208 47.5459V47.5362L43.439 47.4616C43.166 47.3477 42.8937 47.2307 42.6273 47.1105L41.9306 46.7715L41.923 46.7639C41.2751 46.4178 40.7143 46.0522 40.1326 45.6054L40.1213 45.6014L39.839 45.371H39.8258L39.5486 45.1278L39.5507 45.1251L39.4035 44.9957H39.3863C39.3016 44.9121 39.05 44.6899 38.9925 44.6027H38.978L38.6 44.1928H38.5873L38.4113 43.9817H38.3987C38.1101 43.6171 37.8141 43.256 37.5529 42.8714H37.5334L37.2469 42.4033H37.2266L36.9621 41.923H36.9441L36.8243 41.6787H36.8077L36.6946 41.4314H36.6822L36.5743 41.1818H36.5561L36.3519 40.6752H36.3276L36.148 40.1596H36.1145L35.9636 39.6358H35.9398L35.8103 39.105H35.7792L35.6755 38.5678H35.6452L35.5666 38.0253H35.5336C35.5083 37.753 35.489 37.4746 35.4571 37.2037H35.4123C35.3875 35.9118 35.4125 35.1073 35.5259 33.8439H35.5631C35.6652 33.2762 35.8029 32.745 35.9406 32.1802H35.9678L36.1329 31.6284H36.1509L36.2403 31.3533H36.2685C36.3851 31.0638 36.5112 30.7868 36.6463 30.5058L36.6502 30.4903L36.7204 30.3498L36.7281 30.3421C36.8758 30.0535 37.0283 29.7683 37.2021 29.4939C37.5506 28.6056 39.232 26.9645 39.993 26.3218C40.4349 26.0556 40.8805 25.657 41.3745 25.3658C40.5172 25.5624 39.676 25.831 38.8659 26.1679C35.6842 27.4903 32.9964 29.859 31.6938 33.0337L31.5727 33.341C30.5254 36.1409 30.7716 39.12 32.0341 41.7111C33.3093 44.3286 35.618 46.5509 38.678 47.8045C39.0479 47.9498 39.414 48.0982 39.7823 48.2479L40.4821 48.5186C43.5804 49.6758 46.1382 51.4951 47.9349 53.6982C49.7662 55.9434 50.8124 58.5902 50.849 61.3531L50.8472 61.6428C50.8158 64.2236 49.8827 66.5975 48.3303 68.5007C46.756 70.4304 44.5433 71.8781 41.99 72.5647C41.1522 72.8515 40.2896 73.0366 39.3971 73.093C38.5142 73.1491 37.5994 73.0795 36.6489 72.8592C35.1239 72.6269 33.6891 72.1261 32.4018 71.4107Z" fill="#FEFEFE"/>
<path fill-rule="evenodd" clip-rule="evenodd" d="M34.1192 74.7118C30.6041 71.5302 30.0021 69.2072 29.4395 67.5819C31.1428 69.8277 33.7654 71.4208 36.7951 71.8829C38.5496 72.3044 40.1749 72.1518 41.7096 71.6191C46.3788 70.3747 49.8066 66.3794 49.8612 61.6276C49.8636 61.5393 49.8638 61.4515 49.863 61.3651C49.7957 56.3049 46.0053 51.6333 40.1374 49.4418C39.885 49.348 39.226 49.0918 38.7388 48.8869C31.74 46.2721 28.1767 39.007 30.7811 32.6595C33.6488 25.6701 42.6466 22.3293 49.7121 24.7899L49.7021 24.7884L49.4882 24.7515L49.443 24.7443L49.2336 24.7132L49.2038 24.7093C48.7313 24.645 48.2591 24.6115 47.7893 24.6073L47.7381 24.6067L47.5263 24.6081L47.5031 24.6083C47.4258 24.6094 47.3475 24.6115 47.2702 24.6144H47.2694C46.7914 24.6326 46.3168 24.6806 45.8486 24.7583L45.8214 24.7625L45.6075 24.801L45.584 24.8055L45.3682 24.8485L45.3442 24.8537L45.1284 24.902L45.1129 24.9054C44.8095 24.9768 44.5101 25.0596 44.2144 25.1553L44.1975 25.1608C44.0627 25.2043 43.929 25.251 43.796 25.2997L43.7158 25.3293L43.5512 25.3928L43.5055 25.4107L43.3227 25.4853L43.2726 25.5064C43.1373 25.5633 43.0028 25.6234 42.8698 25.6859L42.8437 25.6985C42.6522 25.7897 42.4625 25.8857 42.276 25.9872L42.2193 26.0178L42.0837 26.0944L41.9856 26.1506L41.8658 26.2218L41.7814 26.2724L41.6461 26.3565L41.5545 26.4147L41.439 26.4901L41.3327 26.5615L41.2314 26.6306L41.0982 26.7247L41.0338 26.7703L41.0145 26.7843C40.9499 26.8309 40.8858 26.8789 40.822 26.9277L40.8151 26.9329L40.7779 26.9619L40.6183 27.0866L40.5028 27.181L40.4326 27.2382L40.3157 27.3375L40.2202 27.4203L40.1332 27.4976L40.038 27.5835L39.9325 27.6813L39.847 27.7627L39.7502 27.8566L39.6613 27.9454L39.5679 28.0395L39.5589 28.0485L39.3951 28.2211L39.3917 28.2248C39.3368 28.2838 39.2817 28.3442 39.2279 28.4051L39.2265 28.4067L39.1358 28.5111L39.0493 28.6112L38.9741 28.7019L38.8828 28.8129L38.8132 28.9004L38.7158 29.0256L38.6446 29.1189L38.5628 29.2294L38.4903 29.3295L38.4125 29.4399L38.332 29.5562L38.3244 29.5667L38.198 29.7573L38.1877 29.7737C38.1426 29.8432 38.0983 29.9134 38.055 29.9843L38.0476 29.9961L38.0081 30.0625L37.9149 30.2186L37.8635 30.309L37.7809 30.4553L37.7334 30.5436L37.6498 30.7018L37.6045 30.7903L37.5343 30.9308L37.4784 31.0471L37.4129 31.1878L37.3678 31.2861L37.2858 31.4738L37.2594 31.5355C37.2235 31.6214 37.1882 31.7079 37.1539 31.7951C37.118 31.8864 37.0837 31.977 37.051 32.0682C37.018 32.1594 36.9864 32.2506 36.9558 32.3421H36.9555C36.9252 32.4336 36.8959 32.5253 36.8679 32.6173H36.8674C36.8394 32.709 36.8128 32.8005 36.787 32.8925C36.7616 32.9845 36.7371 33.0767 36.7142 33.169H36.7136C36.6907 33.261 36.6688 33.3535 36.6479 33.4458C36.6271 33.538 36.6076 33.6303 36.5894 33.7228C36.5706 33.815 36.5537 33.9076 36.5379 34.0001C36.5218 34.0929 36.5071 34.1854 36.4936 34.2776C36.4799 34.3704 36.4672 34.4629 36.4562 34.5555C36.4445 34.6483 36.4348 34.7403 36.4261 34.8328H36.4258C36.4168 34.9253 36.4092 35.0175 36.4026 35.1101C36.396 35.2026 36.3905 35.2946 36.3862 35.3871C36.382 35.4796 36.3789 35.5716 36.3768 35.6639C36.3749 35.7559 36.3739 35.8484 36.3744 35.9401C36.3746 36.0321 36.3757 36.1239 36.3781 36.2156H36.3786C36.3812 36.3076 36.3847 36.399 36.3891 36.4905C36.3939 36.5814 36.4 36.6734 36.4068 36.7646C36.4139 36.8556 36.4219 36.9465 36.4308 37.0372H36.4313C36.4408 37.1281 36.4506 37.2185 36.4619 37.3092C36.4733 37.3996 36.4854 37.4898 36.4991 37.5797H36.4994C36.5126 37.6696 36.5274 37.7594 36.5429 37.8488C36.5588 37.9384 36.5757 38.0275 36.5933 38.1169H36.5936C36.6115 38.2057 36.63 38.2945 36.6498 38.3831C36.6698 38.4716 36.6909 38.5599 36.7128 38.6477H36.7131C36.7353 38.7355 36.7579 38.8233 36.7822 38.9105L36.8574 39.1715H36.8576C36.8838 39.2582 36.9112 39.3444 36.9391 39.4303C36.9676 39.5163 36.9964 39.6019 37.0267 39.6871H37.0273C37.0574 39.7725 37.0887 39.8573 37.1209 39.9417C37.1531 40.0263 37.1863 40.1101 37.2206 40.1937H37.2209C37.2552 40.2773 37.2903 40.3608 37.3267 40.4433H37.3269C37.3631 40.5261 37.4003 40.6083 37.4382 40.6906H37.4385C37.4768 40.7723 37.5155 40.8543 37.5559 40.9349H37.5562C37.5963 41.0161 37.6374 41.0965 37.6796 41.1766C37.7218 41.2565 37.7643 41.3361 37.8086 41.4152H37.8092C37.8529 41.4943 37.8981 41.5731 37.944 41.6508C37.9899 41.7288 38.0365 41.8063 38.0843 41.8833H38.0845C38.1326 41.96 38.1814 42.0362 38.231 42.1121C38.2806 42.188 38.3312 42.2634 38.3827 42.338C38.4344 42.4129 38.4866 42.4864 38.5401 42.5599C38.5934 42.6332 38.648 42.7065 38.7029 42.7787C38.7583 42.8509 38.8142 42.9227 38.8712 42.9936H38.8715C38.9284 43.0642 38.9857 43.1348 39.0448 43.2047H39.045C39.1036 43.2743 39.1632 43.3434 39.2239 43.4116C39.2846 43.4799 39.3455 43.5481 39.408 43.6146H39.4083C39.4705 43.6815 39.5338 43.7477 39.5977 43.8131C39.6618 43.8787 39.7267 43.9438 39.7921 44.0076H39.7924C39.8583 44.0719 39.9248 44.1349 39.9921 44.1974C40.0596 44.2604 40.1279 44.3221 40.1968 44.3829H40.197C40.2661 44.4438 40.3363 44.5045 40.407 44.5638C40.4777 44.6234 40.5492 44.6816 40.6215 44.7396C40.6943 44.7976 40.7676 44.8545 40.8415 44.9107C40.9159 44.9668 40.9903 45.0224 41.066 45.0767C41.1414 45.131 41.2182 45.1851 41.2952 45.2381C41.3725 45.2908 41.4506 45.3424 41.5295 45.3936C41.6083 45.4447 41.6883 45.4948 41.7687 45.5438C41.8492 45.5931 41.9299 45.6413 42.012 45.6888C42.0943 45.7362 42.1768 45.7826 42.2602 45.8282C42.3438 45.8733 42.428 45.9178 42.5132 45.9616C42.5981 46.0051 42.6838 46.0478 42.7704 46.0894C42.8572 46.1308 42.9445 46.1717 43.0323 46.2112C43.5501 46.445 44.0814 46.6622 44.6093 46.8728V46.8731L44.637 46.8839V46.8842L44.6502 46.8889V46.8894L44.6631 46.8942V46.8945L44.6874 46.9039L44.699 46.9087H44.6992L44.7098 46.9129H44.7103L44.7206 46.9171L44.7309 46.9211C52.2725 49.8678 55.9952 58.3654 53.0465 65.901C48.5047 77.5074 35.8191 75.2131 34.2279 74.7466L34.1192 74.7118Z" fill="#850B3A"/>
</svg>
