<svg width="100" height="100" viewBox="0 0 100 100" fill="none" xmlns="http://www.w3.org/2000/svg">
<path d="M49.8021 99C76.6153 99 98.3351 77.0527 98.3351 50C98.3351 22.9473 76.6153 1 49.8021 1C22.9888 1 1.26904 22.9473 1.26904 50C1.26904 77.0527 22.9888 99 49.8021 99Z" fill="#850B3A" stroke="#FFAF00" stroke-width="2" stroke-linecap="round" stroke-linejoin="bevel"/>
<path d="M57.021 55.6153C57.021 56.2413 57.1448 56.8612 57.3855 57.4395C57.6262 58.0179 57.979 58.5434 58.4237 58.986C58.8684 59.4287 59.3964 59.7798 59.9775 60.0194C60.5585 60.2589 61.1813 60.3822 61.8102 60.3822H72.3173V70.5679C72.3173 71.2129 72.0599 71.8315 71.6016 72.2877C71.1434 72.7438 70.5219 73 69.8738 73H27.7282C27.0801 73 26.4586 72.7438 26.0004 72.2877C25.5421 71.8315 25.2847 71.2129 25.2847 70.5679V37C25.2847 37.4773 25.3809 37.9498 25.5677 38.3894C25.7544 38.829 26.028 39.2268 26.372 39.5593C26.7161 39.8918 27.1237 40.1522 27.5707 40.325C28.0177 40.4978 28.495 40.5796 28.9744 40.5655H69.996C70.6115 40.566 71.2016 40.8096 71.6369 41.2428C72.0721 41.676 72.3168 42.2633 72.3173 42.876V50.8484H61.8102C60.54 50.8484 59.3219 51.3506 58.4237 52.2446C57.5255 53.1386 57.021 54.3511 57.021 55.6153Z" fill="#850B3A"/>
<path d="M72.3173 36.5715V44C72.3171 43.3527 72.0727 42.7319 71.6378 42.2742C71.2029 41.8165 70.6132 41.5593 69.9983 41.5592H28.9557C28.4819 41.5704 28.0107 41.4827 27.5693 41.3012C27.1278 41.1197 26.7249 40.848 26.3836 40.5018C26.0424 40.1556 25.7696 39.7417 25.5811 39.2839C25.3925 38.8262 25.2919 38.3337 25.285 37.8348C25.2782 37.336 25.3652 36.8406 25.541 36.3773C25.7169 35.914 25.9781 35.492 26.3097 35.1355C26.6412 34.779 27.0365 34.4951 27.4728 34.3002C27.9091 34.1053 28.3777 34.0033 28.8516 34H69.8731C70.5211 34.0001 71.1425 34.2711 71.6008 34.7532C72.0591 35.2354 72.3168 35.8894 72.3173 36.5715Z" fill="#850B3A"/>
<path d="M73.1456 51H62.1397C61.5051 51 60.8767 51.1293 60.2905 51.3806C59.7042 51.6319 59.1715 52.0002 58.7227 52.4645C58.274 52.9288 57.9181 53.48 57.6752 54.0866C57.4324 54.6932 57.3074 55.3434 57.3074 56C57.3074 56.6566 57.4324 57.3068 57.6752 57.9134C57.9181 58.52 58.274 59.0712 58.7227 59.5355C59.1715 59.9998 59.7042 60.3681 60.2905 60.6194C60.8767 60.8707 61.5051 61 62.1397 61H73.1456C73.4561 61.0004 73.7541 60.8733 73.9741 60.6466C74.1942 60.4199 74.3183 60.1121 74.3192 59.7908V52.2092C74.3183 51.8879 74.1942 51.5801 73.9741 51.3534C73.7541 51.1267 73.4561 50.9996 73.1456 51Z" fill="#850B3A"/>
<path d="M43.6087 26.4907C43.7288 26.6265 43.8786 26.7404 44.0494 26.8259C44.2202 26.9114 44.4087 26.9668 44.6042 26.989C44.7997 27.0112 44.9982 26.9997 45.1886 26.9552C45.379 26.9107 45.5574 26.8341 45.7136 26.7297C45.8699 26.6252 46.001 26.4951 46.0994 26.3467C46.1978 26.1982 46.2616 26.0344 46.2871 25.8646C46.3126 25.6947 46.2994 25.5221 46.2482 25.3567C46.197 25.1913 46.1088 25.0363 45.9886 24.9005L42.9866 21.5093C42.8665 21.3735 42.7167 21.2596 42.5459 21.1741C42.3751 21.0886 42.1866 21.0332 41.9911 21.011C41.7956 20.9888 41.5971 21.0003 41.4067 21.0448C41.2163 21.0893 41.0379 21.1659 40.8817 21.2703C40.7254 21.3748 40.5943 21.5049 40.4959 21.6533C40.3975 21.8018 40.3337 21.9656 40.3082 22.1354C40.2827 22.3053 40.2959 22.4779 40.3471 22.6433C40.3983 22.8087 40.4865 22.9637 40.6067 23.0995L43.6087 26.4907Z" fill="white"/>
<path d="M53.894 26.7308C54.21 26.9411 54.609 27.0339 55.0036 26.9889C55.3982 26.9439 55.7562 26.7648 55.9991 26.4908L59.0064 23.0929C59.2447 22.8179 59.3484 22.4721 59.2951 22.1309C59.2417 21.7897 59.0356 21.4806 58.7215 21.2707C58.4074 21.0609 58.0107 20.9673 57.6176 21.0102C57.2245 21.0532 56.8668 21.2292 56.6222 21.5001L53.615 24.898C53.4948 25.0343 53.4066 25.1898 53.3556 25.3556C53.3046 25.5215 53.2917 25.6945 53.3176 25.8647C53.3435 26.0349 53.4078 26.199 53.5067 26.3476C53.6056 26.4962 53.7372 26.6264 53.894 26.7308Z" fill="white"/>
<path d="M49.8022 27C50.2003 27 50.5821 26.8505 50.8636 26.5844C51.1451 26.3183 51.3032 25.9575 51.3032 25.5812V21.4188C51.3032 21.0425 51.1451 20.6817 50.8636 20.4156C50.5821 20.1495 50.2003 20 49.8022 20C49.4041 20 49.0223 20.1495 48.7408 20.4156C48.4593 20.6817 48.3011 21.0425 48.3011 21.4188V25.5812C48.3011 25.9575 48.4593 26.3183 48.7408 26.5844C49.0223 26.8505 49.4041 27 49.8022 27Z" fill="white"/>
<path d="M70.0919 75C71.0628 74.9978 71.9932 74.6127 72.6793 73.929C73.3653 73.2454 73.7511 72.3189 73.752 71.3527V62.2326C74.2092 62.0666 74.6045 61.7653 74.8848 61.3693C75.1651 60.9733 75.317 60.5014 75.3201 60.017V52.7906C75.3168 52.3064 75.1649 51.8348 74.8846 51.439C74.6043 51.0433 74.2091 50.7423 73.752 50.5764C73.752 38.0123 73.752 49.3665 73.752 36.6473C73.751 35.6803 73.3645 34.7532 72.6774 34.0694C71.9903 33.3856 71.0587 33.001 70.087 33H29.0917C28.4595 32.9996 27.8335 33.1234 27.2495 33.3642C26.6655 33.6051 26.135 33.9583 25.6885 34.4035C25.2419 34.8488 24.888 35.3774 24.6471 35.959C24.4062 36.5407 24.2831 37.1639 24.2847 37.793V47.4704C24.2847 47.7929 24.4134 48.1021 24.6425 48.3301C24.8716 48.5581 25.1823 48.6862 25.5063 48.6862C25.8303 48.6862 26.1411 48.5581 26.3702 48.3301C26.5993 48.1021 26.728 47.7929 26.728 47.4704V41.9509C27.4882 42.355 28.3359 42.5686 29.1977 42.5734C29.3658 42.5734 70.1095 42.5704 70.2771 42.5797C70.5552 42.5958 70.8167 42.7167 71.0084 42.9179C71.2 43.1191 71.3074 43.3854 71.3087 43.6627V50.4223H62.029C61.2397 50.4223 60.4581 50.577 59.7288 50.8776C58.9996 51.1782 58.337 51.6188 57.7789 52.1742C57.2207 52.7297 56.778 53.3891 56.476 54.1148C56.1739 54.8405 56.0184 55.6183 56.0184 56.4038C56.0184 57.1893 56.1739 57.9671 56.476 58.6928C56.778 59.4185 57.2207 60.0779 57.7789 60.6334C58.337 61.1888 58.9996 61.6294 59.7288 61.93C60.4581 62.2306 61.2397 62.3853 62.029 62.3853H71.3087V71.3527C71.3087 71.6743 71.1806 71.9828 70.9526 72.2107C70.7246 72.4385 70.4151 72.5672 70.0919 72.5685H27.9497C27.6256 72.5685 27.3149 72.4404 27.0858 72.2124C26.8567 71.9844 26.728 71.6752 26.728 71.3527V57.1965C26.728 56.874 26.5993 56.5648 26.3702 56.3368C26.1411 56.1088 25.8303 55.9807 25.5063 55.9807C25.1823 55.9807 24.8716 56.1088 24.6425 56.3368C24.4134 56.5648 24.2847 56.874 24.2847 57.1965V71.3527C24.2867 72.3194 24.6735 73.2459 25.3604 73.9295C26.0473 74.613 26.9783 74.9979 27.9497 75H70.0919ZM71.2862 40.3086C70.9402 40.2032 70.5808 40.147 70.219 40.1418H29.1957C28.8814 40.1545 28.5677 40.1047 28.2729 39.9953C27.9781 39.886 27.7082 39.7193 27.4789 39.5049C27.2496 39.2905 27.0655 39.0329 26.9374 38.7469C26.8094 38.4609 26.7398 38.1524 26.7329 37.8394C26.726 37.5264 26.7818 37.2152 26.8972 36.9239C27.0125 36.6326 27.185 36.3671 27.4046 36.143C27.6242 35.9188 27.8865 35.7404 28.1762 35.6182C28.4658 35.4961 28.7771 35.4326 29.0917 35.4315H70.0875C70.4115 35.4315 70.7222 35.5596 70.9514 35.7876C71.1805 36.0156 71.3092 36.3248 71.3092 36.6473V40.312C71.3018 40.312 71.2935 40.312 71.2862 40.3086ZM62.029 59.9553C61.0829 59.9553 60.1756 59.5812 59.5066 58.9155C58.8376 58.2497 58.4617 57.3468 58.4617 56.4053C58.4617 55.4637 58.8376 54.5608 59.5066 53.895C60.1756 53.2293 61.0829 52.8552 62.029 52.8552H72.8773V59.9553H62.029Z" fill="white"/>
<path d="M25.2854 54C25.838 54 26.2861 53.1046 26.2861 52C26.2861 50.8954 25.838 50 25.2854 50C24.7327 50 24.2847 50.8954 24.2847 52C24.2847 53.1046 24.7327 54 25.2854 54Z" fill="white"/>
<path d="M63.2869 55H62.3355C62.0635 55 61.8027 55.1054 61.6105 55.2929C61.4182 55.4804 61.3102 55.7348 61.3102 56C61.3102 56.2652 61.4182 56.5196 61.6105 56.7071C61.8027 56.8946 62.0635 57 62.3355 57H63.2869C63.5589 57 63.8196 56.8946 64.0119 56.7071C64.2042 56.5196 64.3122 56.2652 64.3122 56C64.3122 55.7348 64.2042 55.4804 64.0119 55.2929C63.8196 55.1054 63.5589 55 63.2869 55Z" fill="white"/>
<path d="M52.3039 49.375V47H38.2942V49.375H42.7518C44.41 49.375 45.8097 50.3701 46.337 51.75H38.2942V54.125H46.337C46.0756 54.8176 45.5906 55.4177 44.9486 55.843C44.3067 56.2682 43.5393 56.4977 42.7518 56.5H38.2942V59.3666L45.4086 66H49.0103L41.3687 58.875H42.7518C44.219 58.8732 45.6406 58.3997 46.7769 57.5344C47.9133 56.6692 48.6949 55.465 48.99 54.125H52.3039V51.75H48.99C48.7947 50.8857 48.3924 50.0738 47.8131 49.375H52.3039Z" fill="#FFAF00"/>
</svg>
