<svg width="60" height="60" viewBox="0 0 60 60" fill="none" xmlns="http://www.w3.org/2000/svg">
<circle cx="30" cy="30" r="30" fill="#01BAD2"/>
<path d="M29.1016 20.8749C27.8375 20.166 24.9967 19.0868 25.2201 17.3109C27.4387 19.2226 29.8981 20.7365 32.4627 22.1152C32.4981 22.1564 32.5462 22.1833 32.6117 22.1944C32.8621 22.3291 33.1161 22.4612 33.3686 22.5932C32.6064 23.3666 29.765 21.2478 29.1016 20.8749ZM26.6574 30.41C26.7388 32.7443 27.7583 34.7152 27.6632 36.8154C27.6035 36.7346 27.5137 36.6723 27.3922 36.6569C26.2396 36.5138 25.0801 36.4731 24.3084 35.3475C24.0089 34.9117 23.843 34.4209 23.5239 33.9857C22.7152 32.8832 21.2298 33.5393 20.3545 32.2599C19.7687 31.4021 19.5511 30.7682 18.7028 30.1301C18.4233 29.9193 17.9305 29.8575 17.6003 29.7857C16.677 29.5839 16.0991 29.1307 15.6628 28.4128C16.4456 27.864 17.3822 27.4097 18.502 27.0748C20.4406 26.4948 22.4215 26.2877 24.0131 24.9323C25.4863 23.6772 25.6126 21.2832 25.3617 19.398C26.4593 20.4079 28.2358 21.2103 28.9869 21.5959C29.4534 21.8363 30.8278 22.7839 32.0142 23.2187C28.7313 23.974 26.5375 26.9834 26.6574 30.41V30.41ZM33.6898 27.4625C34.6544 28.8871 34.5107 31.0254 34.1319 32.6038C33.7115 34.3602 30.8289 38.4133 28.6631 37.2829C28.7366 36.8957 28.7661 36.5053 28.7529 36.1118C29.9631 36.2206 31.4506 34.6703 32.0396 33.9629C32.9851 32.8278 34.0722 30.9293 33.4009 29.417C32.6856 27.808 29.662 26.4979 28.005 27.2126C28.2485 26.7114 28.5681 26.255 28.9447 25.8414C30.5283 24.9465 32.7886 26.1314 33.6898 27.4625V27.4625ZM27.5871 28.435C28.8147 26.593 32.2916 27.8471 32.9682 29.8464C33.4236 31.1897 32.2493 32.8468 31.4485 33.8066C30.6583 34.7548 29.8247 35.3105 28.6948 35.4399C28.4566 33.5594 27.5676 31.6419 27.4788 29.8285C27.454 29.3346 27.4973 28.8729 27.5871 28.435V28.435ZM25.863 40.8089C25.8207 40.7106 25.7483 40.6256 25.6342 40.5849C24.8551 40.3097 23.8335 40.1998 23.3871 39.4175C23.2139 39.1132 22.936 38.7984 22.6598 38.5977C21.4723 37.7367 19.8326 38.3774 18.8802 37.0114C18.1904 36.0194 18.3325 35.208 17.2617 34.4938C16.9194 34.2672 16.3167 34.2757 15.9269 34.2508C13.8187 34.114 13.5033 32.6725 13.2503 31.2035C13.7094 30.2838 14.349 29.4576 15.2032 28.7604C15.4842 29.4682 16.0051 29.9832 16.7964 30.325C17.9046 30.8031 18.3594 30.2949 19.2622 31.7644C19.6451 32.3862 19.877 32.9514 20.4053 33.4664C20.7269 33.7781 21.2309 33.8605 21.6434 33.9519C23.038 34.2593 23.2588 35.1573 23.9597 36.1873C24.6538 37.2079 26.3003 37.3241 27.3922 37.4002C27.4889 37.407 27.5581 37.3785 27.6156 37.3378C27.519 38.0335 27.2908 38.7466 26.8455 39.4957C26.5719 39.9547 26.2385 40.3926 25.863 40.8089V40.8089ZM17.3193 46.3548C16.3342 45.7595 15.1847 45.3855 14.1335 44.9206C12.9883 44.413 11.9794 43.7395 10.8949 43.1357C11.0159 42.3518 11.2314 41.6641 12.2218 41.9905C12.8726 42.2045 13.497 42.6196 14.077 42.9788C14.6639 43.3423 15.3199 43.6096 15.9359 43.918C16.265 44.0829 16.5819 44.2646 16.8967 44.4553C17.5649 44.8583 17.9632 45.9016 17.3193 46.3548V46.3548ZM13.0934 41.3978C12.2498 38.2823 11.906 35.0199 12.7818 32.3376C12.9123 33.0951 13.2926 33.7812 13.8726 34.4141C14.1943 34.7632 14.8878 35.0004 15.3522 35.0332C17.3214 35.1694 17.6114 36.7256 18.4872 38.005C19.5305 39.5263 21.5008 38.332 22.5948 39.8802C23.2836 40.8559 24.1853 41.2209 25.3596 41.3297C23.4849 43.1273 20.7829 44.3549 18.3943 44.3686C18.2696 44.3692 18.1872 44.431 18.1397 44.5123C17.2533 43.5229 15.8936 43.0549 14.7236 42.4554C14.19 42.1823 13.6518 41.8278 13.0855 41.5653C13.1029 41.5156 13.1103 41.4618 13.0934 41.3978V41.3978ZM16.1197 27.1725C15.77 26.2449 15.5994 25.508 15.9713 24.4405C16.3754 23.2831 17.1751 22.2393 18.0868 21.4385C20.5922 19.2379 23.3354 22.9149 22.0232 25.3269C21.2937 25.592 20.5104 25.7526 19.849 25.9111C18.5195 26.2296 17.2749 26.5962 16.1197 27.1725V27.1725ZM15.9174 21.0128C17.146 19.1175 19.1951 18.5686 21.3165 19.1919C23.6861 19.8882 24.4278 21.8379 23.9883 23.9196C23.6634 24.4378 23.17 24.8055 22.6059 25.0802C24.0759 22.8743 21.2763 19.4967 18.7144 20.3498C17.2052 20.8538 16.126 22.5214 15.4953 23.88C15.0331 24.8757 14.4853 26.6622 15.3363 27.6041C15.2613 27.6516 15.1879 27.7044 15.1129 27.7536C15.0796 27.7662 15.0495 27.7853 15.0278 27.8117C14.666 28.0541 14.311 28.3182 13.9698 28.6257C13.7696 28.8074 13.5847 28.9949 13.4114 29.1867C13.5889 26.2655 14.2561 23.5747 15.9174 21.0128V21.0128ZM49.1343 30.8606C48.9288 30.6277 48.5253 30.4766 48.2564 30.3456C46.5623 29.5216 47.7186 27.8286 48.4439 26.8952C49.6462 25.3512 49.4211 23.7152 48.4048 22.1405C47.3214 20.4602 45.8873 20.3593 44.0839 20.3387C42.0972 20.3166 41.9186 18.9616 41.42 17.481C41.1384 16.6443 40.6245 15.9106 40.0471 15.2545C39.0567 14.132 37.547 13.7252 36.1091 13.6761C32.9181 13.5657 28.9241 15.6105 26.8471 17.9701C26.8413 17.9765 26.8391 17.9844 26.8339 17.9913C26.2729 17.5692 25.7145 17.1424 25.1615 16.7119C25.0416 16.6184 24.8942 16.6728 24.8292 16.77C24.8282 16.7716 24.825 16.7721 24.8239 16.7737C24.2577 17.4741 24.3659 18.1571 24.8118 18.7852C24.9211 19.9542 24.9322 21.0223 24.6908 22.084C24.1753 19.408 20.1691 17.4366 17.5391 18.7635C15.5386 19.7714 14.563 21.9002 13.7733 23.8969C13.1346 25.5086 12.2123 28.174 12.7585 30.0207C10.5711 33.2879 11.4654 37.7018 12.4643 41.3302C12.131 41.2325 11.7898 41.1797 11.4295 41.2156C10.4544 41.3139 10.3968 42.4485 10.5864 43.1901C10.5732 43.2292 10.5732 43.2725 10.6023 43.3159C11.2282 44.2957 12.4479 44.8419 13.4537 45.3438C14.4811 45.8577 15.5503 46.3627 16.6242 46.7938C16.6157 46.986 16.781 47.2052 17.0335 47.1688C18.0356 47.0214 19.2342 46.1572 18.5121 45.002C18.5099 44.9983 18.5078 44.9962 18.5057 44.9935C22.6708 45.0606 27.1608 42.0534 28.4598 38.033C31.4992 39.1497 34.6818 34.1468 34.9306 31.6794C35.1197 29.8047 34.9454 27.126 33.1436 25.993C32.2329 25.4198 30.9277 24.909 29.792 25.0511C30.6646 24.3554 31.6994 23.8161 32.7559 23.4173C33.3348 23.5002 33.7854 23.3465 33.9196 22.7459C34.0622 22.6556 34.1187 22.4274 33.9302 22.3418C34.8752 22.5816 35.5777 23.1553 36.1926 24.1896C36.9495 25.4642 36.4018 26.5645 36.7287 27.8449C37.1323 29.4249 38.1301 29.6922 39.2981 30.6562C41.6028 32.5584 40.3255 36.9242 38.6367 38.6769C37.2295 40.1375 34.6966 40.007 32.9202 40.7492C32.6671 40.8553 32.7744 41.2721 33.0353 41.1675C35.2529 40.2732 37.5845 40.3287 39.3287 38.519C40.999 36.7879 41.1849 33.9598 40.5595 31.7739C40.2964 30.8543 39.7302 30.1787 38.9584 29.6526C37.6938 28.7873 37.3885 28.0251 37.4397 26.4663C37.4646 25.7183 37.408 25.114 37.2147 24.4009C36.697 22.4865 34.517 20.9029 32.5937 21.6641C32.5805 21.6694 32.5721 21.6778 32.5599 21.6847C31.5837 21.1839 30.6408 20.624 29.7217 20.0255C31.4041 19.3266 32.6909 18.276 34.7088 18.6077C36.538 18.9078 36.9744 20.6816 37.4149 22.1865C38.1581 24.7183 39.586 25.4283 42.1405 25.2883C43.6681 25.2555 44.4473 26.0991 44.4758 27.8217C44.2978 28.3346 44.0807 28.8317 43.824 29.3097C43.5588 29.8438 43.272 30.3514 43.1082 30.9261C42.8478 31.8384 43.759 32.7639 44.2561 33.4035C46.1218 35.8007 45.1932 38.8422 44.1193 41.372C43.2112 43.5124 41.0159 43.6481 39.1058 44.3015C38.7572 44.4199 38.9061 44.9745 39.2595 44.8557C40.8849 44.3105 42.5367 44.1404 43.8335 42.9234C45.1477 41.6915 45.5809 39.0805 45.873 37.4155C46.032 36.5053 45.9089 35.6221 45.6802 34.7437C45.35 33.4743 44.1668 32.6925 43.6787 31.5082C43.0253 29.922 45.9443 28.1957 45.031 26.33C44.2138 24.6597 42.6788 24.5424 41.0095 24.5725C38.4365 24.619 38.4228 21.8368 37.6637 20.1132C37.0261 18.6685 35.9924 17.9358 34.4388 17.6786C32.3698 17.3378 30.7502 18.5623 29.0894 19.5786C29.082 19.5828 29.0789 19.5886 29.0715 19.5939C28.502 19.2073 27.9389 18.8084 27.3838 18.3996C29.9642 16.6157 32.4379 14.7548 35.6913 14.4664C37.6431 14.2936 39.241 15.2069 40.2573 16.8371C40.8796 17.8344 40.8416 19.848 41.9524 20.5305C43.4135 21.4274 45.0685 20.7344 46.5666 21.4126C48.4698 22.2737 49.0144 24.8536 47.8951 26.471C47.4936 27.0494 46.9099 27.6252 46.715 28.3219C46.4208 29.3678 46.5787 30.1269 47.5095 30.7164C48.9114 31.6054 49.2817 32.4617 48.904 34.1505C48.549 35.7368 47.4265 36.8936 46.6189 38.2459C46.4747 38.4878 46.8265 38.773 47.015 38.5512C48.539 36.7526 49.653 34.9407 49.7793 32.5457C49.8142 31.8632 49.5643 31.3466 49.1343 30.8606" fill="white"/>
<path d="M38.1547 36.725C38.2989 36.5824 38.0834 36.3721 37.936 36.5052C36.9588 37.3779 35.7798 37.82 34.5363 38.1681C33.7308 38.3931 32.7525 38.4761 32.1328 39.0793C32.0467 39.1633 32.0779 39.3434 32.2079 39.3656C33.2511 39.5468 34.4375 38.9372 35.3836 38.5453C36.4295 38.1121 37.3481 37.5157 38.1547 36.725" fill="white"/>
<path d="M42.7931 41.5694C42.9046 41.4669 42.7604 41.2841 42.632 41.3612C42.0113 41.7342 41.3764 42.0812 40.7568 42.4578C40.1271 42.8398 39.3844 43.1202 38.8345 43.6099C38.7099 43.7198 38.8012 43.9691 38.9756 43.9522C40.453 43.8001 41.7562 42.5223 42.7931 41.5694Z" fill="white"/>
<path d="M13.329 22.9213C14.1103 21.6234 14.5577 20.1628 15.3955 18.8861C15.4689 18.7736 15.2925 18.6346 15.2069 18.7408C14.264 19.9251 13.5704 21.3883 13.105 22.8262C13.0607 22.9619 13.2588 23.0385 13.329 22.9213Z" fill="white"/>
<path d="M19.6998 46.1502C19.5809 46.3726 19.4431 46.5791 19.2799 46.7708C19.123 46.9541 18.9196 47.0936 18.8002 47.3059C18.7442 47.4047 18.8351 47.5246 18.9465 47.4956C19.4293 47.3677 19.7801 46.7354 19.9856 46.3166C20.0775 46.1269 19.8018 45.9616 19.6998 46.1502Z" fill="white"/>
<path d="M38.5003 12.7259C39.7084 13.41 40.3924 14.6772 41.3459 15.6281C41.4801 15.7617 41.6686 15.5932 41.5942 15.4363C40.9867 14.1411 39.889 13.1343 38.6239 12.5141C38.4839 12.4449 38.3608 12.6483 38.5003 12.7259Z" fill="white"/>
</svg>
