<svg width="60" height="60" viewBox="0 0 60 60" fill="none" xmlns="http://www.w3.org/2000/svg">
<circle cx="30" cy="30" r="30" fill="#F34235"/>
<path d="M31.1544 26.3319C30.939 26.2686 30.7265 26.2847 30.5122 26.2398C30.3591 26.2076 30.3086 26.4129 30.449 26.4695C30.7553 26.5933 31.0594 26.8131 31.353 26.9701C31.6505 27.1294 31.9169 27.4724 32.2599 27.5007C32.3648 27.5101 32.4524 27.4063 32.4524 27.3076C32.4524 26.9257 32.0223 26.7048 31.7254 26.5489C31.5434 26.454 31.3508 26.3896 31.1544 26.3319Z" fill="white"/>
<path d="M38.8278 25.6154C38.8522 25.5333 38.8511 25.4406 38.8006 25.344C38.5503 24.8678 38.3233 24.3911 38.103 23.9172C38.3228 23.8961 38.5586 23.8162 38.7507 23.8023C39.2912 23.7645 39.794 23.8916 40.3262 23.9199C40.5061 23.9288 40.5444 23.6913 40.4123 23.6036C39.9955 23.3256 39.3894 23.3189 38.9033 23.3061C38.628 23.2989 38.1585 23.2512 37.861 23.3933C37.4753 22.5486 37.0946 21.7139 36.6501 20.8975C36.7361 20.9125 36.8304 20.8975 36.912 20.8309C37.4243 20.413 38.1008 20.2044 38.7668 20.322C38.9349 20.352 39.0043 20.1178 38.8383 20.0639C38.0991 19.8225 36.9042 19.6394 36.4381 20.4658C36.4308 20.478 36.4303 20.4891 36.4253 20.5013C36.175 20.0701 35.9064 19.6438 35.5984 19.2265C35.4363 19.0078 35.2693 18.7942 35.0961 18.586C36.4908 17.9151 37.8105 17.2263 39.3722 17.7691C41.863 20.4763 43.1827 23.8589 43.3192 27.6205C41.9579 26.626 40.4184 25.9051 38.8278 25.6154ZM33.8585 26.2958C33.6349 25.9933 33.374 25.7225 33.0838 25.4794C33.0932 25.4317 33.0938 25.379 33.0693 25.3185C32.9228 24.9611 32.7502 24.6231 32.5649 24.2951C33.1254 23.794 33.6598 23.3023 34.3291 22.9232C34.9879 22.5497 35.7177 22.3122 36.4453 22.1013C36.9919 23.2107 37.4853 24.3612 38.0647 25.5083C36.6562 25.3784 35.2249 25.6071 33.8585 26.2958V26.2958ZM30.5037 24.3556C30.5841 23.4765 29.6129 22.7045 28.8992 22.3838C28.4919 22.2006 28.0834 22.1529 27.7166 22.2295C28.1594 21.9265 28.7655 21.8071 29.2738 21.861C29.3648 21.871 29.4309 21.831 29.4758 21.7722C30.6019 22.5969 31.5498 23.6563 32.1714 24.854C32.1631 24.8495 32.1558 24.844 32.1481 24.8401C31.6403 24.5609 31.0714 24.4577 30.5037 24.3556V24.3556ZM31.2867 29.3698C30.7218 29.8011 30.1085 30.1529 29.4425 30.4154C28.6789 30.7173 27.948 30.6951 27.1743 30.7184C27.3802 30.1257 27.4729 29.4758 27.4274 28.7721C27.6405 28.8382 27.8875 28.8354 28.1145 28.8149C28.5585 28.7738 29.2317 28.6756 29.5752 28.3714C29.5952 28.3548 29.6085 28.3359 29.6207 28.3165C30.0952 28.7377 30.6702 29.0885 31.2867 29.3698V29.3698ZM25.9834 31.8356C25.808 31.1358 25.3324 30.4976 24.6603 30.2656C24.824 29.8355 24.8629 29.3204 24.7863 28.8154C25.2641 28.7827 26.1293 28.2482 25.7714 27.7465C25.7236 27.6794 25.6187 27.6472 25.556 27.7188C25.4428 27.8486 25.3474 28.0051 25.2042 28.1045C25.0399 28.2183 24.849 28.2471 24.6697 28.3148C24.5454 27.9225 24.3473 27.5595 24.0776 27.2781C24.1675 27.1705 24.2435 27.0506 24.3018 26.9451C24.5021 26.5844 24.4705 26.1182 24.3384 25.7425C24.2735 25.5571 24.0098 25.6309 24.0459 25.8235C24.1064 26.1482 24.0448 26.4174 23.8883 26.7037C23.8361 26.7986 23.7584 26.8785 23.678 26.9568C23.5981 26.9085 23.5143 26.8647 23.4249 26.8291C22.4431 26.4384 21.7056 26.5322 21.18 26.9657C21.1667 26.9746 21.1539 26.9845 21.1423 26.9962C20.7821 27.3109 20.5257 27.7904 20.3664 28.3897C19.2337 27.4246 19.9824 24.9899 20.9336 24.2851C22.3038 23.269 24.3362 24.284 25.3596 25.2597C27.2687 27.0806 27.3664 29.8538 25.9834 31.8356V31.8356ZM24.8545 33.0177C22.6513 34.7021 19.3647 34.4623 16.9538 33.4367C15.7801 32.9367 14.8299 32.082 14.0951 31.0487C15.2545 31.4599 17.0632 31.1302 17.5377 30.507C17.9251 30.9066 18.4268 31.244 18.9878 31.5054C18.9257 31.5415 18.873 31.597 18.8463 31.6847C18.6604 32.3001 18.177 32.7425 17.5571 32.9212C17.4211 32.9606 17.4811 33.1487 17.6143 33.1276C18.3396 33.0149 19.2354 32.6187 19.4662 31.8561C19.4829 31.8012 19.4834 31.7518 19.4746 31.7063C20.3104 32.0099 21.2266 32.1486 22.0685 32.0543C22.0979 32.2463 22.1423 32.4372 22.1368 32.637C22.1307 32.9284 21.9392 33.2208 22.0158 33.5089C22.0363 33.5871 22.1213 33.6337 22.1984 33.6121C22.7201 33.4722 22.7967 32.5116 22.5253 31.9771C23.3688 31.789 24.0875 31.3356 24.5127 30.5625C25.1242 30.8921 25.566 31.5104 25.6321 32.2113C25.6337 32.2319 25.6382 32.2519 25.6443 32.2718C25.4112 32.5415 25.1481 32.793 24.8545 33.0177V33.0177ZM18.9812 15.1646C18.5655 16.9155 18.8252 18.803 19.504 20.453C18.7953 20.8404 18.182 21.3276 17.6731 21.8882C17.2813 21.5685 16.9094 21.2893 16.6153 20.8254C16.2868 20.3087 16.0254 19.6677 15.8672 19.0789C15.8306 18.9418 15.6058 18.9662 15.6158 19.1133C15.6902 20.2277 16.1697 21.8044 17.2813 22.3632C16.8562 22.9287 16.5265 23.552 16.3056 24.2119C16.1697 24.1958 16.032 24.188 15.8949 24.153C15.6374 24.0887 15.4066 23.9494 15.189 23.8034C14.78 23.5315 14.4148 23.0964 14.1129 22.7129C14.0352 22.6141 13.8859 22.7223 13.9137 22.8289C14.0696 23.4299 14.4065 23.9038 14.9171 24.2685C15.2295 24.4921 15.7018 24.7657 16.1402 24.8085C15.9665 25.5627 15.9288 26.3524 16.0398 27.1471C15.7151 27.176 15.4138 27.2709 15.0708 27.2176C14.6412 27.1505 14.245 26.9474 13.9037 26.686C13.7866 26.5955 13.6306 26.7981 13.7461 26.8919C14.3477 27.3847 15.32 28.0634 16.1336 27.6744C16.3101 28.4636 16.6358 29.2511 17.1253 30.0058C17.1375 30.0253 17.1536 30.0419 17.167 30.0608C17.1109 30.1268 17.0587 30.2018 16.9838 30.2761C16.6791 30.5753 16.1885 30.6774 15.7856 30.7551C15.2018 30.8672 14.3171 30.8411 13.7289 30.4942C12.9463 29.1995 12.4691 27.6938 12.2909 26.2647C11.6854 21.4125 14.7733 17.0809 18.9812 15.1646V15.1646ZM27.0345 14.5208C26.3419 15.1868 25.8041 16.3062 25.45 17.0832C25.1159 17.8163 24.9061 18.7792 25.3007 19.5062C25.2536 19.4762 25.1914 19.474 25.1381 19.4984C24.3317 19.4019 23.5126 19.3969 22.6968 19.4923C22.6302 19.0367 22.4776 18.6693 22.5175 18.1926C22.5558 17.7369 22.6257 17.2807 22.6746 16.8268C22.6901 16.6747 22.4448 16.6453 22.411 16.7907C22.2317 17.5804 21.5269 18.8169 22.1601 19.5678C21.8127 19.6272 21.4653 19.6993 21.1228 19.7953C20.7222 19.9074 20.3437 20.0495 19.9846 20.2132C19.595 19.2975 19.368 18.3923 19.3153 17.3795C19.2742 16.5798 19.4091 15.7845 19.3835 14.9876C20.6223 14.4775 21.9475 14.1751 23.2984 14.1268C24.5171 14.0835 25.7858 14.225 27.0345 14.5208V14.5208ZM20.7987 22.7306C20.9569 22.6463 21.0995 22.5042 21.2488 22.4082C21.5574 22.2112 21.8976 21.9881 22.2284 21.836C22.3532 21.7777 22.29 21.5757 22.1595 21.5801C21.7494 21.5957 21.4137 21.6373 21.0407 21.8366C20.9608 21.8798 20.8703 21.9281 20.7815 21.9831C20.7932 21.7122 20.8137 21.4386 20.8082 21.1689C20.8204 21.1278 20.832 21.0868 20.8426 21.0468C20.8837 20.8886 20.9169 20.7061 20.9192 20.5296C22.0841 20.13 23.3339 19.9552 24.4727 19.9801C24.5476 19.9813 24.622 19.9901 24.6964 19.994C24.3856 20.4946 24.1891 21.1573 24.0176 21.6456C23.7978 22.2689 23.6807 22.9315 23.7224 23.5886C22.856 23.2678 21.9253 23.2323 21.0496 23.6613C20.9869 23.6918 20.9286 23.7335 20.8692 23.7707C20.877 23.4277 20.8298 23.0792 20.7987 22.7306V22.7306ZM23.4554 27.5723C23.5187 27.5861 23.5786 27.5823 23.6375 27.5717C24.2385 28.0762 24.3367 28.9986 24.117 29.7977C23.532 29.5524 23.0497 29.2156 22.5919 28.7416C22.1784 28.3137 21.9376 27.802 21.6307 27.3231C21.907 27.1871 22.2894 27.1366 22.8344 27.2204C23.0342 27.2509 23.2046 27.3125 23.3577 27.3902C23.3572 27.3925 23.3561 27.3941 23.3555 27.3969C23.3389 27.469 23.3772 27.5551 23.4554 27.5723V27.5723ZM20.2671 28.8976C20.2826 29.1257 20.5745 29.2244 20.7044 29.0518C20.8393 29.003 20.9147 28.801 20.8232 28.6883C20.9169 28.3293 21.013 27.9707 21.2078 27.6927C21.417 28.231 21.8626 28.7405 22.2078 29.1257C22.6551 29.6251 23.2523 30.1157 23.9116 30.3322C23.7679 30.6152 23.5836 30.86 23.3661 31.0265C22.4781 31.7024 21.089 31.4421 20.1122 31.1769C17.233 30.3971 16.0415 27.4163 16.7091 24.6547C16.7424 24.6065 16.7563 24.551 16.7552 24.496C16.9638 23.7351 17.3296 23.078 17.8118 22.5208C17.9201 22.4981 18.005 22.4049 18.0177 22.3022C18.6343 21.6634 19.4007 21.1628 20.2415 20.7954C20.1361 21.3459 20.1433 21.9403 20.1189 22.4842C20.0928 23.0397 20.1028 23.6563 20.4186 24.1203C19.1726 25.3435 18.6915 27.9685 20.2671 28.8976V28.8976ZM26.6166 23.2423C26.6022 23.5348 27.0023 23.547 27.0944 23.3067C27.4135 22.4742 28.2504 22.5713 28.9175 22.9127C29.5119 23.2179 29.8771 23.7063 30.1313 24.2868C29.477 24.1597 28.8437 23.9843 28.3304 23.4865C28.1561 23.3178 27.8436 23.4354 27.8475 23.6869C27.8736 25.2685 28.1794 26.7709 29.2583 27.9607C28.973 27.9891 28.6634 28.1389 28.3975 28.206C28.0351 28.2971 27.7105 28.2849 27.3647 28.2216C27.2931 27.7754 27.1732 27.312 26.9879 26.8286C26.5522 25.6925 25.5449 24.5282 24.3401 23.8739C24.2219 23.068 24.3795 22.3005 24.6237 21.5302C24.7818 21.0307 25.0998 20.5484 25.2641 20.0434C26.4795 20.1983 27.6816 20.6378 28.7616 21.2916C27.7143 21.3648 26.6721 22.1706 26.6166 23.2423ZM31.0714 22.3172C31.0936 22.29 31.113 22.26 31.1247 22.2239C31.2712 21.7855 31.4172 21.3798 31.6697 20.9874C31.9089 20.6139 32.3229 20.4236 32.5632 20.0684C32.6043 20.0079 32.5726 19.9258 32.516 19.8891C32.041 19.5872 31.5026 20.1722 31.2401 20.5068C30.9365 20.8925 30.6824 21.3632 30.5581 21.8499C29.9054 21.2866 29.1789 20.8171 28.4031 20.4441C28.4053 20.4097 28.4047 20.372 28.4014 20.3276C28.382 20.0889 28.468 19.8431 28.5468 19.6222C28.7083 19.1643 28.9947 18.7325 29.2089 18.2974C29.2805 18.1537 29.1001 17.9955 28.9802 18.1204C28.5679 18.55 28.2244 18.9873 27.9791 19.5356C27.903 19.7054 27.8137 19.9463 27.7909 20.1755C27.2293 19.9496 26.6471 19.7731 26.0522 19.6483C26.0488 19.6139 26.0394 19.5789 26.0216 19.5439C25.4706 18.4201 25.8707 17.4633 26.4479 16.4294C26.762 15.8683 27.3381 15.2834 27.5728 14.6584C29.7655 15.2628 31.8545 16.3511 33.4312 17.8063C34.6399 18.9218 35.4613 20.1938 36.1611 21.5391C34.7387 21.9886 33.1837 22.6346 32.3085 23.8672C31.9477 23.3023 31.5354 22.7817 31.0714 22.3172V22.3172ZM31.6536 13.1794C33.8741 13.5069 35.8853 14.7345 37.6046 16.1147C37.9815 16.4161 38.3339 16.733 38.673 17.0571C37.4004 16.7235 35.5762 17.4816 34.7248 18.1487C34.7226 18.1504 34.7226 18.1532 34.7198 18.1548C34.2453 17.6276 33.7336 17.1403 33.1864 16.6952C33.2652 16.5815 33.3368 16.4616 33.4206 16.3689C33.6593 16.1086 33.9334 15.8877 34.1687 15.6224C34.3125 15.4604 34.1343 15.2456 33.9451 15.3327C33.5605 15.5103 33.2342 15.6779 32.9311 15.9865C32.8468 16.072 32.7569 16.1841 32.6858 16.3062C32.2263 15.9676 31.744 15.6602 31.2401 15.3832C31.3533 15.199 31.4743 15.022 31.6552 14.8921C31.8284 14.7678 31.7257 14.5069 31.511 14.5491C31.1918 14.6124 30.9099 14.8377 30.7551 15.1268C29.5552 14.5314 28.2471 14.0896 26.8969 13.8238C28.448 13.2654 29.8727 12.9164 31.6536 13.1794V13.1794ZM47.2807 32.2008C46.5193 30.7234 45.3943 29.3282 44.0513 28.1949C43.9036 22.962 41.7342 18.6471 37.6302 15.3755C34.6888 13.0307 29.5441 11.1987 26.1587 13.6956C23.4238 13.291 20.5762 13.6095 18.1659 14.8244C11.6876 18.0904 9.48771 28.1555 15.3555 33.0521C18.8807 35.9935 25.2103 34.8952 26.974 31.2096C28.5895 31.7923 30.6413 30.674 31.8389 29.6002C31.9949 29.6607 32.152 29.7145 32.309 29.7661C32.2785 33.3091 30.1707 35.9142 28.0579 38.6386C26.5017 40.6442 24.0393 43.327 24.173 46.0464C24.1797 46.1791 24.3806 46.2618 24.445 46.1202C25.1786 44.5019 25.7181 42.9241 26.7226 41.4262C27.7926 39.8301 29.0491 38.3538 30.2023 36.8177C31.4971 35.0945 33.7925 32.3046 32.9334 29.9531C33.1953 30.0231 33.455 30.0869 33.7048 30.1357C34.0833 30.209 34.2237 29.6917 33.863 29.5613C32.4983 29.0663 31.0858 28.7938 29.9392 27.8375C28.872 26.9485 28.5257 25.6049 28.4375 24.2774C29.018 24.6348 29.6873 24.7874 30.3771 24.9339C32.0865 25.2968 33.1304 26.04 34.0306 27.5501C34.1599 27.7671 34.5439 27.6233 34.4496 27.373C34.368 27.1577 34.2681 26.9568 34.1582 26.7631C36.0213 26.2592 37.6746 25.9345 39.6192 26.4556C41.3824 26.9279 42.9507 28.3503 44.2527 29.5619C45.5869 30.8056 46.6264 32.3123 47.2679 34.0183C47.5809 34.8514 47.6903 35.7499 47.7086 36.6329C47.7608 39.017 45.447 39.471 43.9436 37.9193C43.625 37.5902 43.1289 38.0891 43.4425 38.4204C43.8171 38.8156 44.2411 39.1253 44.6862 39.3356C43.8581 40.3279 42.6749 39.43 41.7364 39.0942C40.7647 38.7468 39.7258 38.6269 38.7928 38.1757C36.7738 37.2017 35.256 35.0695 35.2487 32.8335C35.2482 32.6775 35.0428 32.667 34.9912 32.7991C34.0844 35.1438 36.7067 37.6124 38.5015 38.6735C38.9255 38.9244 39.4166 39.133 39.9305 39.3206C39.9872 40.2641 40.5233 41.0327 41.0005 41.8558C41.8702 43.3587 42.035 44.8837 42.5856 46.4704C42.6355 46.6153 42.8525 46.6319 42.8958 46.4704C43.5213 44.1378 41.6771 41.6443 40.6121 39.5548C41.4667 39.8301 42.3469 40.0643 43.0956 40.3251C44.1656 40.6981 44.7639 40.44 45.3433 39.5659C46.3106 39.7863 47.3068 39.4988 48.0615 38.4843C49.2886 36.8343 48.076 33.7436 47.2807 32.2008" fill="white"/>
<path d="M28.1743 44.4506C27.7092 43.6825 27.5405 42.8267 27.4112 41.9515C27.3946 41.8455 27.2159 41.8472 27.1987 41.9515C26.8962 43.7363 27.7853 45.4801 29.2066 46.5434C29.3242 46.6316 29.4413 46.4674 29.3897 46.3597C29.0567 45.6715 28.5695 45.1021 28.1743 44.4506Z" fill="white"/>
<path d="M30.9363 45.777C30.3908 45.3541 29.9218 44.8474 29.4218 44.374C29.3213 44.2791 29.1731 44.399 29.2347 44.5183C29.5866 45.2065 30.1144 45.7909 30.7082 46.2804C31.1544 46.6489 31.8143 47.16 32.4253 47.013C32.5352 46.9863 32.5624 46.8465 32.4897 46.7693C32.0851 46.3431 31.4091 46.1433 30.9363 45.777Z" fill="white"/>
<path d="M35.6531 47.1626C35.0531 46.8263 34.3383 46.6964 33.704 46.4261C33.0103 46.1309 32.3576 45.7374 31.776 45.2596C31.5657 45.0864 31.2626 45.3783 31.4724 45.5631C32.5075 46.4733 34.1136 47.5788 35.5626 47.4956C35.7335 47.4856 35.8151 47.2542 35.6531 47.1626Z" fill="white"/>
<path d="M43.058 33.0464C42.5291 32.7828 42.4431 32.063 41.8947 31.8499C41.8087 31.8166 41.7183 31.8865 41.6938 31.9648C41.4857 32.6019 42.3759 33.6092 42.9764 33.7557C43.5486 33.895 44.3472 33.622 44.2451 32.901C44.1402 32.1596 43.4037 31.5302 42.8382 31.1079C41.7138 30.2682 40.3053 30.1822 39.0738 29.5823C38.8895 29.4924 38.733 29.7515 38.9117 29.8603C40.1343 30.6007 41.6006 30.8715 42.6861 31.8294C42.877 31.9975 43.0541 32.1779 43.225 32.366C43.3294 32.482 44.0309 33.5298 43.058 33.0464Z" fill="white"/>
<path d="M45.9223 37.5404C46.1021 37.3312 46.1032 36.9905 46.1709 36.7285C46.2575 36.3988 46.4656 36.1291 46.6393 35.8444C46.7276 35.7023 46.5849 35.5614 46.4423 35.5864C46.0405 35.6574 45.7547 36.0159 45.6165 36.3778C45.4933 36.698 45.354 37.279 45.657 37.5404C45.7297 37.6026 45.8524 37.6215 45.9223 37.5404Z" fill="white"/>
<path d="M43.2705 20.9531C43.3382 21.0757 43.5302 20.9919 43.4936 20.8593C42.9592 18.9196 41.5423 17.5855 40.0766 16.3146C39.9845 16.2347 39.8496 16.3662 39.9423 16.4489C41.3236 17.6926 42.3775 19.3392 43.2705 20.9531Z" fill="white"/>
<path d="M11.5047 22.1619C11.5119 22.072 11.3598 22.0509 11.3465 22.1408C11.0435 24.2198 10.7144 26.3814 11.4247 28.4221C11.4702 28.5542 11.6961 28.5431 11.6817 28.3877C11.4902 26.291 11.3315 24.2714 11.5047 22.1619Z" fill="white"/>
<path d="M26.201 39.7067C25.3491 40.9376 24.2369 41.9998 23.9445 43.5355C23.9195 43.6687 24.1026 43.7641 24.1731 43.6326C24.8674 42.3345 25.5933 41.0558 26.3758 39.8088C26.4458 39.6967 26.2743 39.6007 26.201 39.7067Z" fill="white"/>
<path d="M18.4751 13.9907C18.8847 13.9785 19.2659 13.873 19.6638 13.782C20.12 13.6765 20.5945 13.6854 21.0463 13.5717C21.1645 13.5417 21.1506 13.383 21.0463 13.3474C20.2499 13.0755 19.1544 13.4862 18.4312 13.8297C18.3524 13.8669 18.3924 13.9929 18.4751 13.9907Z" fill="white"/>
<path d="M26.0484 33.4271C26.0717 33.3627 25.9862 33.295 25.9302 33.3361C25.4185 33.709 25.0561 34.2685 24.4634 34.5332C24.3629 34.577 24.4373 34.7224 24.5338 34.7014C25.2198 34.5526 25.8009 34.0975 26.0484 33.4271Z" fill="white"/>
</svg>
