<svg width="60" height="60" viewBox="0 0 60 60" fill="none" xmlns="http://www.w3.org/2000/svg">
<circle cx="30" cy="30" r="30" fill="#019486"/>
<path d="M17.5252 25.1988C17.6749 25.1498 17.6921 24.92 17.5252 24.8796C16.9214 24.7316 16.3579 24.6983 15.8003 24.3877C15.1572 24.0287 14.6658 23.3517 14.429 22.6676C14.3838 22.5374 14.1825 22.5896 14.2196 22.7258C14.5931 24.0669 15.9246 25.7203 17.5252 25.1988Z" fill="white"/>
<path d="M9.2589 27.6511C9.22876 27.4799 8.97742 27.5553 9.00164 27.7221C9.27827 29.6053 9.5759 31.4244 11.1657 32.6784C11.2847 32.772 11.5016 32.6477 11.3955 32.5007C10.3224 31.0153 9.58558 29.468 9.2589 27.6511Z" fill="white"/>
<path d="M21.9312 12.7288C23.1626 12.9656 24.2842 13.4106 25.3719 14.0296C25.4752 14.0882 25.5839 13.9494 25.4983 13.8649C24.5511 12.9236 23.2643 12.6954 21.9931 12.5016C21.8467 12.479 21.7799 12.6997 21.9312 12.7288Z" fill="white"/>
<path d="M45.196 22.6678C44.9592 23.3518 44.4679 24.0289 43.8247 24.3873C43.2666 24.6979 42.7037 24.7318 42.0998 24.8792C41.9335 24.9201 41.9507 25.15 42.0998 25.1989C43.7004 25.7199 45.0314 24.0671 45.4049 22.7254C45.4425 22.5898 45.2418 22.5376 45.196 22.6678Z" fill="white"/>
<path d="M50.3657 27.6511C50.0401 29.468 49.3027 31.0153 48.229 32.5007C48.123 32.6477 48.3399 32.772 48.4588 32.6784C50.0487 31.4244 50.3468 29.6053 50.6229 27.7221C50.6477 27.5553 50.3964 27.4799 50.3657 27.6511Z" fill="white"/>
<path d="M34.2535 14.0296C35.3412 13.4106 36.4623 12.9656 37.6942 12.7288C37.8449 12.6997 37.7787 12.479 37.6318 12.5016C36.3605 12.6954 35.0732 12.9236 34.127 13.8649C34.0404 13.9494 34.1502 14.0882 34.2535 14.0296Z" fill="white"/>
<path d="M26.702 36.7757C27.5093 36.6309 28.0502 36.1821 28.7294 35.7456C29.6421 35.1584 31.3816 36.5572 32.3121 36.8198C32.8676 36.977 33.4364 36.6525 33.8815 36.3742C35.4084 35.4238 35.9148 36.195 37.3066 36.195C38.6139 36.195 39.6924 35.0244 39.1774 33.779C39.052 33.4776 38.4944 33.4723 38.545 33.8646C38.9185 36.7359 36.1624 34.7957 35.4423 34.8371C34.628 34.885 34.1108 35.1563 33.4434 35.6245C31.8681 36.7316 30.4796 33.9685 28.7304 34.7704C27.4495 35.3581 26.9307 36.4501 25.18 35.4469C24.497 35.0556 23.8711 34.4803 23.0283 34.4792C21.6144 34.4776 20.3464 34.9814 19.6791 36.272C19.5563 36.5104 19.8879 36.702 20.0359 36.4813C21.235 34.6983 23.2758 35.1342 24.7424 36.195C25.2661 36.5739 26.0432 36.8936 26.702 36.7757Z" fill="white"/>
<path d="M35.6683 38.8129C34.8492 39.5997 33.4176 39.0685 32.4666 39.5744C31.8261 39.914 32.2411 40.301 30.9392 40.0787C30.4801 40.0001 29.8891 39.498 29.3617 39.5475C28.1169 39.6648 27.0507 40.3499 25.7752 39.8236C24.8495 39.4425 24.3947 39.35 23.6622 39.9781C23.5013 40.1158 23.7198 40.4011 23.8893 40.273C24.6487 39.703 26.4194 40.9656 27.3935 40.9344C28.7476 40.8919 27.6842 39.4662 30.1878 40.5523C30.5366 40.7035 30.9349 40.9124 31.3304 40.8871C32.4827 40.8123 33.0349 39.9899 34.3572 40.1266C35.2603 40.2197 35.6839 39.9248 36.1376 39.1756C36.3174 38.8796 35.9105 38.5798 35.6683 38.8129Z" fill="white"/>
<path d="M40.1953 38.7658C40.3057 38.6426 40.4198 38.5247 40.5263 38.3961C40.6625 38.2319 40.8137 38.0742 40.9725 37.9209C41.0107 37.9445 41.0548 37.9628 41.1065 37.9693C42.7631 38.1614 44.2819 39.7636 45.4605 41.3352C43.8605 40.185 42.0021 39.24 40.1953 38.7658ZM42.114 42.3884C40.9913 41.5671 39.6814 40.9584 38.4252 40.4154C38.6932 40.2103 38.9543 39.9924 39.2088 39.7636C40.2373 40.5322 41.2604 41.3971 42.114 42.3884V42.3884ZM40.0021 45.8609C39.0684 44.2344 37.7148 42.509 36.0631 41.8465C36.3984 41.6882 36.7277 41.5144 37.0496 41.3276C38.4747 42.3873 39.5958 44.0805 40.0021 45.8609V45.8609ZM35.4312 45.3953C35.287 44.299 34.8882 43.2027 34.0545 42.6075C34.3532 42.5214 34.6487 42.4261 34.9404 42.3201C35.6153 43.3356 35.6384 44.3496 35.4312 45.3953V45.3953ZM29.1419 42.4901C27.0251 42.4073 25.0214 41.8664 23.1582 40.8707C21.4613 39.9644 20.0792 38.3966 18.6476 37.1243C17.1304 35.7761 18.118 34.4253 18.9027 33.0346C19.1761 32.5518 20.908 29.6633 21.7664 30.0879C21.8719 30.3479 22.0597 30.5793 22.2879 30.7392C22.7879 31.0901 23.3799 31.0357 23.8762 30.7047C24.4208 30.3414 24.7609 29.6778 24.4396 29.0799C25.0849 28.6531 25.7937 28.4292 26.5671 28.2888C26.9869 28.2129 27.4196 28.2005 27.8437 28.2161C28.1274 28.2285 28.3905 28.3092 28.6354 28.4577C28.7743 28.5579 28.9147 28.658 29.0547 28.7581C29.553 29.1359 29.5595 29.525 29.0757 29.9243C28.8685 29.8 28.6295 30.046 28.749 30.2516C29.0482 30.765 29.6079 30.7731 29.9287 30.2252C29.9362 30.2123 29.9384 30.1983 29.9459 30.1848C30.398 30.8269 31.2128 31.1649 31.8662 30.462C32.1924 30.1106 31.6682 29.5837 31.3393 29.9351C30.799 30.0928 30.4637 29.9254 30.335 29.4335C30.0826 28.7979 30.9244 28.5998 31.2737 28.5132C31.7936 28.384 32.3506 28.4405 32.8796 28.4125C33.3231 28.3894 33.7617 28.3689 34.2058 28.3899C34.8801 28.4212 35.1562 28.7247 35.4484 29.1843C35.3376 30.5562 37.2923 31.047 38.0921 30.2473C38.9139 30.9426 39.7707 31.5949 40.5602 32.3306C40.8401 32.5916 41.0984 32.8704 41.3363 33.1659C41.3347 33.1675 41.3331 33.1686 41.332 33.1702C41.2464 33.2897 41.3331 33.4813 41.4714 33.5114C41.5155 33.5216 41.5618 33.5216 41.6076 33.5254C41.7265 33.6922 41.8401 33.8629 41.9461 34.0399C42.8621 35.5775 41.4741 36.6141 40.4935 37.5958C39.0194 39.071 37.8816 40.3912 35.9619 41.3755C33.8984 42.4336 31.412 42.5795 29.1419 42.4901V42.4901ZM24.6221 45.7581C24.431 44.6009 24.8761 43.4842 24.8368 42.2625C25.1248 42.3728 25.4251 42.4735 25.7367 42.5639C24.9827 43.4869 24.7292 44.6031 24.6221 45.7581ZM19.7014 45.9287C19.9425 44.0606 20.9618 42.2415 22.4736 41.1716C22.5113 41.1457 22.5328 41.1102 22.5473 41.0731C22.8197 41.2539 23.0979 41.4267 23.3848 41.587C21.7094 42.4396 20.633 44.2683 19.7014 45.9287V45.9287ZM16.286 44.6322C16.8554 42.3938 18.3946 40.5569 20.4392 39.4773C20.4462 39.4736 20.45 39.4682 20.4554 39.4639C20.81 39.7658 21.1599 40.05 21.5119 40.3234C19.1944 40.5914 17.7714 42.9573 16.286 44.6322ZM15.046 40.325C15.9474 39.2707 17.2784 38.5613 18.4398 37.8111C18.8117 38.1189 19.1992 38.4009 19.527 38.6657C17.3834 39.4827 15.6025 40.9014 13.8808 42.3847C14.1854 41.6527 14.518 40.945 15.046 40.325ZM17.1654 35.0894C17.1153 35.2406 17.0922 35.3849 17.0814 35.527C15.3872 34.4839 13.496 33.7875 12.6515 31.7768C12.3146 30.9722 12.2048 30.0804 12.3184 29.2306C12.5923 30.1692 13.2462 30.9518 14.06 31.5712C14.7446 32.0922 15.4749 32.5346 16.251 32.9038C16.7192 33.1261 17.3371 33.513 17.8887 33.5324C17.519 34.2288 17.2558 34.8192 17.1654 35.0894V35.0894ZM10.7006 24.1339C10.9234 22.7416 11.489 21.5403 12.2963 20.5527C11.5784 22.6388 12.1144 24.6317 13.5794 25.9115C11.9056 26.8023 11.5649 28.8883 11.7581 30.6611C10.8071 28.638 10.3163 26.5439 10.7006 24.1339V24.1339ZM13.3872 19.4613C14.4426 18.6023 15.7343 18.0006 17.1541 17.6927C17.1767 17.6879 17.1907 17.6766 17.209 17.6691C17.301 17.8246 17.4162 17.9554 17.5529 18.0609C17.0873 19.4467 17.2682 21.444 18.6643 22.0511C19.3973 24.5531 23.7012 23.4401 25.6985 22.2809C24.6834 25.1075 21.2546 26.1118 18.4721 26.3959C16.8134 26.5655 15.1154 26.3163 13.828 25.1887C11.9567 23.551 12.6876 21.4079 13.3872 19.4613V19.4613ZM17.9818 16.322C18.2972 15.1638 19.7218 14.6498 20.7713 14.568C22.2481 14.4533 23.7701 15.1029 24.9924 15.8629C26.4164 16.7493 27.0558 17.9705 27.6166 19.3859C26.6075 18.6534 24.9154 19.3466 23.8568 19.8288C22.7868 20.3154 21.7702 21.0823 20.633 21.3939C18.1471 22.0753 18.1045 19.9957 18.083 18.3364C18.7488 18.5603 19.5889 18.5 20.2256 18.3623C20.6222 18.2762 20.5388 17.6136 20.1292 17.6497C19.1685 17.7336 17.604 17.7094 17.9818 16.322V16.322ZM22.8057 29.1585C23.0118 29.0853 23.331 29.1703 23.5091 29.3146C23.6431 29.4238 23.663 29.4604 23.6915 29.5659C23.7018 29.5993 23.6964 29.6143 23.6856 29.6585C23.677 29.6978 23.6539 29.7478 23.5984 29.8124C23.4042 30.0417 23.1372 30.1934 22.8326 30.1299C22.6609 30.0933 22.5258 29.9792 22.4106 29.8415C22.5086 29.6811 22.5597 29.4836 22.6248 29.3506C22.6948 29.2064 22.7406 29.1811 22.8057 29.1585ZM37.3472 29.4486C37.3623 29.4728 37.3687 29.4922 37.372 29.5062C37.3085 29.5519 37.1432 29.6127 37.0356 29.6439C36.6922 29.7451 36.1573 29.5261 35.9581 29.201C36.0141 28.9954 36.0232 28.8135 35.992 28.6531C36.4834 28.8549 37.0394 28.9615 37.3472 29.4486ZM43.3739 32.9038C44.1505 32.5346 44.8809 32.0922 45.5655 31.5712C46.3787 30.9518 47.0331 30.1692 47.3065 29.2306C47.4201 30.0804 47.3114 30.9722 46.9734 31.7768C46.2038 33.6094 44.565 34.3494 42.9983 35.2562C43.0268 34.8994 42.959 34.5049 42.7405 34.0507C42.6291 33.8176 42.502 33.5975 42.3643 33.386C42.7243 33.2477 43.079 33.0437 43.3739 32.9038V32.9038ZM46.0461 25.9115C47.5116 24.6317 48.0471 22.6388 47.3286 20.5527C48.1364 21.5403 48.7021 22.7416 48.9243 24.1339C49.3092 26.5439 48.8189 28.638 47.8673 30.6611C48.0605 28.8883 47.7193 26.8023 46.0461 25.9115ZM41.1533 26.3959C38.3709 26.1118 34.942 25.1075 33.927 22.2809C35.9242 23.4401 40.2287 24.5531 40.9607 22.0511C42.3573 21.444 42.5381 19.4467 42.072 18.0609C42.2087 17.9554 42.3239 17.8246 42.4165 17.6691C42.4348 17.6766 42.4488 17.6879 42.4714 17.6927C43.8906 18.0006 45.1823 18.6023 46.2382 19.4613C46.9373 21.4079 47.6682 23.551 45.7974 25.1887C44.5106 26.3163 42.8115 26.5655 41.1533 26.3959V26.3959ZM38.9919 21.3939C37.8547 21.0823 36.8386 20.3154 35.7687 19.8288C34.7095 19.3466 33.0174 18.6534 32.0088 19.3859C32.5691 17.9705 33.2085 16.7493 34.6325 15.8629C35.8559 15.1029 37.3773 14.4533 38.8542 14.568C39.9036 14.6498 41.3288 15.1638 41.6431 16.322C42.0209 17.7094 40.4569 17.7336 39.4962 17.6497C39.0867 17.6136 39.0027 18.2762 39.3999 18.3623C40.0366 18.5 40.8767 18.5603 41.5424 18.3364C41.5204 19.9957 41.4784 22.0753 38.9919 21.3939V21.3939ZM41.508 37.4284C42.044 36.9483 42.5672 36.4704 42.8309 35.8929C44.5601 35.3768 46.3781 34.1831 47.2802 32.5771C49.3231 30.2602 50.0406 26.4982 49.3667 23.5768C48.5713 20.1259 46.0881 17.816 42.6318 17.1099C42.6231 17.1083 42.6167 17.111 42.6081 17.1099C42.6129 17.0797 42.621 17.0523 42.6253 17.0211C42.7615 15.7262 41.727 14.5664 40.5915 14.0922C36.9828 12.5858 31.2252 16.0545 31.4001 20.1507C31.4007 20.1744 31.4147 20.1873 31.4217 20.2056C31.4001 20.423 31.6461 20.6297 31.8302 20.4279C33.9065 18.1534 37.6567 22.5214 40.3385 22.219C38.9747 23.9401 35.027 22.4337 33.617 21.4564C33.42 21.3191 33.1929 21.5435 33.2397 21.747C34.1213 25.5919 38.7869 27.5956 42.4493 27.3135C43.6791 27.2183 44.7248 26.8512 45.5504 26.292C45.5558 26.2964 45.5579 26.3007 45.5633 26.3044C46.3582 26.8345 46.8846 27.623 47.1494 28.5035C46.7699 29.9722 45.6661 31.0196 44.3185 31.7047C43.6812 32.0292 43.0263 32.3274 42.3589 32.5868C42.1958 32.6498 42.0424 32.6982 41.8998 32.7552C40.9192 31.568 39.5823 30.6902 38.38 29.7166C38.3924 29.6617 38.4107 29.61 38.4166 29.5497C38.5345 28.4427 36.3241 27.1354 35.5512 28.0342C34.4383 27.2818 31.6251 27.6133 30.8119 27.8259C30.2441 27.9755 29.9045 28.2575 29.736 28.5918C29.587 28.384 29.4061 28.201 29.207 28.0713C27.8572 27.1919 25.276 27.4384 24.0839 28.6526C23.6915 28.3259 23.1614 28.1817 22.6512 28.2785C22.1819 28.3673 21.7863 28.8447 21.7546 29.3172C21.7331 29.3388 21.7126 29.363 21.704 29.3996C21.6873 29.4642 21.6787 29.5288 21.6749 29.5939C20.5824 29.2941 19.1314 31.315 18.1659 33.0254C17.9221 32.7892 17.6159 32.7219 17.266 32.5868C16.5992 32.3274 15.9442 32.0292 15.307 31.7047C13.9593 31.0196 12.8555 29.9722 12.4761 28.5035C12.7409 27.623 13.2678 26.8345 14.0616 26.3044C14.067 26.3007 14.0702 26.2964 14.0745 26.292C14.9006 26.8512 15.9464 27.2183 17.1761 27.3135C20.838 27.5956 25.5037 25.5919 26.3858 21.747C26.432 21.5435 26.2049 21.3191 26.0079 21.4564C24.5984 22.4337 20.6507 23.9401 19.2864 22.219C21.9682 22.5214 25.7195 18.1534 27.7953 20.4279C27.9788 20.6297 28.2248 20.423 28.2032 20.2056C28.2108 20.1873 28.2242 20.1744 28.2248 20.1507C28.3997 16.0545 22.6426 12.5858 19.034 14.0922C17.8979 14.5664 16.864 15.7262 17.0007 17.0211C17.0039 17.0523 17.012 17.0797 17.0168 17.1099C17.0088 17.111 17.0018 17.1083 16.9937 17.1099C13.5369 17.816 11.0542 20.1259 10.2587 23.5768C9.58435 26.4982 10.3018 30.2602 12.3448 32.5771C13.3006 34.2783 15.2828 35.5173 17.0992 35.9785C17.209 36.5657 17.6164 37.0721 18.1072 37.5226C16.892 38.2109 15.6988 39.0042 14.7096 39.9881C13.8555 40.8368 13.4906 42.0876 13.038 43.1688C12.9346 43.4148 13.2812 43.5466 13.4443 43.4056C15.4265 41.6898 17.3844 40.0214 19.8542 39.057C19.8854 39.0451 19.9091 39.0274 19.9312 39.0085C19.9855 39.0564 20.0399 39.1027 20.0942 39.1501C17.6788 39.8664 16.0551 42.9815 15.7101 45.2807C15.6794 45.489 15.9028 45.6504 16.0739 45.4922C17.8344 43.855 19.189 41.2453 21.7675 40.8621C21.8821 40.8449 21.9446 40.7636 21.9634 40.6689C22.0447 40.7281 22.1276 40.7814 22.2094 40.839C20.1018 41.6473 19.0367 45.0051 19.1158 47.0357C19.1266 47.2952 19.4753 47.4055 19.6126 47.1698C20.7288 45.2484 21.8396 42.9153 23.9241 41.8922C23.9332 41.8874 23.938 41.8798 23.9467 41.8739C24.0887 41.9439 24.2324 42.0144 24.3804 42.079C24.1232 43.8346 23.6103 45.5455 24.5817 47.1708C24.7222 47.4066 25.0699 47.2984 25.0817 47.0357C25.1533 45.5164 25.2292 43.9363 26.2975 42.7479C26.3045 42.7393 26.3066 42.7291 26.3136 42.7205C28.7743 43.3168 31.3016 43.3157 33.6493 42.713C34.639 44.1155 35.1352 45.4782 34.9436 47.2392C34.9113 47.5373 35.3677 47.5745 35.449 47.3075C36.0033 45.4831 36.5119 43.7974 35.3903 42.1392C35.4678 42.1075 35.5464 42.0779 35.6244 42.0451C36.4678 42.7382 37.3461 43.3335 38.1007 44.1472C38.9758 45.0912 39.6577 46.2107 40.204 47.3705C40.318 47.6122 40.6905 47.4851 40.6889 47.2392C40.6776 44.8996 39.2928 42.5402 37.4968 41.0655C37.6943 40.9407 37.8859 40.8034 38.077 40.6667C38.5625 41.3572 39.7621 41.5924 40.4553 41.9428C41.7427 42.5951 43.3734 44.1731 43.918 45.4922C44.0725 45.8657 44.6694 45.7295 44.5424 45.32C43.7517 42.7743 41.698 40.9299 39.6184 39.3729C39.705 39.2879 39.7944 39.2066 39.8789 39.1189C40.8686 39.7766 42.0548 40.1915 43.1156 40.7254C44.4858 41.4137 45.7425 42.2673 46.8496 43.3297C47.1117 43.5811 47.5762 43.2512 47.3641 42.9325C46.0665 40.9751 44.0262 37.9381 41.508 37.4284" fill="white"/>
</svg>
