<svg width="60" height="60" viewBox="0 0 60 60" fill="none" xmlns="http://www.w3.org/2000/svg">
<circle cx="30" cy="30" r="30" fill="#725347"/>
<path d="M28.0276 24.5314C27.9259 24.5635 27.9039 24.742 28.0276 24.7607C28.4238 24.8173 28.8229 24.978 29.139 25.2231C29.4584 25.4701 29.6167 25.8423 29.88 26.1363C29.9903 26.2586 30.1812 26.1569 30.187 26.0092C30.2268 24.953 28.938 24.2465 28.0276 24.5314Z" fill="white"/>
<path d="M31.4757 24.7371C31.4752 24.7375 31.4748 24.738 31.4743 24.7385C31.2627 24.4776 31.0306 24.2306 30.7841 23.9965C29.701 21.1833 27.5742 19.1247 25.011 17.6195C23.5883 16.7835 21.6112 15.8117 19.7765 15.7628C25.4503 13.9579 31.1999 19.671 34.3853 24.0747C33.4773 24.0732 32.505 24.278 31.4757 24.7371ZM27.4442 13.2921C32.4182 14.5728 36.3226 20.0087 37.2426 24.8268C36.595 24.4689 35.8923 24.2277 35.1417 24.1279C35.1369 24.1212 35.1369 24.114 35.1321 24.1078C34.2951 22.9235 33.272 21.6443 32.1146 20.4264C32.129 20.3929 32.1376 20.3559 32.1314 20.3118C31.7918 17.904 29.8727 14.7387 27.4442 13.2921ZM41.9465 31.9381C41.3287 29.2482 39.8869 26.6159 37.8109 25.1831C37.905 25.1098 37.9654 24.9961 37.927 24.8488C36.4032 18.9645 31.5971 12.2297 24.8455 12.5084C24.5179 12.5218 24.5155 13.0149 24.8455 13.0182C28.2712 13.06 30.4593 16.9754 31.5827 19.8816C27.7296 16.0352 22.5422 13.0763 17.6138 16.2559C17.3533 16.4238 17.585 16.8286 17.8575 16.6737C20.0538 15.4198 23.1845 17.1097 25.105 18.2421C27.25 19.5065 28.7451 21.2193 29.9437 23.3C28.5671 22.3052 26.8768 21.722 25.235 21.8299C25.0527 21.8424 24.9112 22.0026 24.962 22.1887C25.3789 23.7197 26.1391 25.5861 27.2788 26.7406C24.5275 28.1129 22.4266 31.2023 21.3637 33.9771C20.6035 35.9619 19.9449 38.01 19.4456 40.0758C19.0053 41.8971 19.2206 43.5682 19.2216 45.3918C19.2221 45.8192 19.8849 45.8192 19.8854 45.3918C19.8859 43.8037 19.696 42.5062 19.9574 40.9056C20.2399 39.1808 20.7795 37.5097 21.3349 35.8573C22.6031 32.0858 24.5721 29.4952 27.6572 27.0859C28.6736 27.9114 29.9547 28.1671 31.5251 27.2456C31.8633 27.0476 31.5568 26.5214 31.2172 26.7204C28.1565 28.5162 26.2494 25.0038 25.5947 22.4064C28.1383 22.5163 30.6363 24.066 31.9952 26.1976C32.1204 26.3938 32.4082 26.223 32.305 26.0163C32.1726 25.7496 32.0168 25.4935 31.8474 25.2436C36.5106 23.2689 39.7233 26.9041 41.0817 30.9927C41.7177 32.906 43.0454 40.0634 39.013 38.751C38.9429 38.1697 38.6259 37.6397 38.0992 37.1701C37.8675 36.9629 37.5519 37.2785 37.7591 37.5102C38.2997 37.9529 38.5156 38.5261 38.4067 39.2312C38.0383 38.8566 37.7021 38.4484 37.3399 38.0675C36.7629 37.4613 36.0689 37.0881 35.3028 36.7802C33.9426 36.2338 32.7914 35.8938 31.9227 34.6001C31.0623 33.3195 31.3937 31.8517 31.928 30.5504C31.9693 30.4507 31.8182 30.3706 31.7501 30.4468C30.4771 31.8623 30.7068 33.8063 31.6398 35.3417C32.1731 36.2199 33.1224 36.677 34.0332 37.0478C34.2687 37.1437 34.4985 37.2325 34.7244 37.3212C34.6304 38.3592 34.5949 39.3166 35.0294 40.3128C35.9485 42.417 36.2257 44.1553 36.2219 46.4298C36.2219 46.5742 36.4291 46.6389 36.4996 46.5056C37.184 45.2052 36.7941 43.6747 36.3993 42.3292C36.1178 41.369 35.654 40.4711 35.3067 39.5348C35.0438 38.8244 35.2314 38.1476 35.1215 37.4814C35.7446 37.738 36.3331 38.0301 36.8939 38.5136C37.4224 38.9683 37.8757 39.5223 38.3793 40.0063C38.4973 40.12 38.7487 40.1224 38.8216 39.9492C38.93 39.696 38.9918 39.4509 39.0168 39.2125C40.1694 39.7756 41.2165 39.3712 41.8731 38.1491C42.8794 36.2799 42.3921 33.8768 41.9465 31.9381" fill="white"/>
<path d="M38.3623 31.9501C38.3724 32.2288 38.7863 32.2297 38.7945 31.9501C38.829 30.7889 38.5076 29.7849 37.5176 29.1216C36.5257 28.4563 35.2302 28.1517 34.1553 27.6332C34.0373 27.5757 33.9361 27.7104 34.0186 27.8093C34.3841 28.2477 34.8757 28.5163 35.3956 28.7331C35.1371 29.7044 35.5976 31.1323 36.7392 31.2133C37.1349 31.2412 37.533 31.0891 37.7469 30.7442C37.9426 30.4277 37.8069 29.879 37.3992 29.8224C37.2274 29.7984 37.0672 29.9202 37.1142 30.1073C37.1478 30.2425 37.3008 30.3754 37.1881 30.4991C37.0452 30.6565 36.7938 30.6397 36.6096 30.5908C35.8993 30.4013 35.8484 29.4919 35.693 28.8525C35.9448 28.9489 36.2 29.0396 36.4466 29.1345C37.779 29.6506 38.3114 30.525 38.3623 31.9501Z" fill="white"/>
<path d="M30.3057 31.1716C30.2966 31.0536 30.1431 31.032 30.1023 31.1438C29.6798 32.3045 29.5728 34.0035 30.263 35.0803C30.3402 35.2007 30.5666 35.1657 30.5527 35.0026C30.499 34.3958 30.3119 33.8193 30.2736 33.2073C30.2304 32.5271 30.3604 31.8498 30.3057 31.1716Z" fill="white"/>
<path d="M19.8487 33.9076C18.4241 36.7898 17.9991 40.4481 17.991 43.6378C17.9905 43.7855 18.2303 43.8268 18.2543 43.6737C18.7776 40.3785 19.1992 37.2258 20.0487 33.9929C20.0798 33.8754 19.9053 33.7939 19.8487 33.9076Z" fill="white"/>
<path d="M29.4661 12.6802C30.754 13.1234 31.6293 14.0529 32.7551 14.7552C32.8424 14.8089 32.9301 14.688 32.862 14.6165C31.9622 13.6721 30.7583 12.8999 29.5102 12.5219C29.4076 12.4902 29.3668 12.6466 29.4661 12.6802Z" fill="white"/>
<path d="M24.7654 24.2658C24.6325 23.5492 24.2886 22.8667 24.196 22.1462C24.1807 22.0249 23.9922 22.0182 24.0013 22.1462C24.0603 22.9559 24.2032 23.6183 24.6095 24.3315C24.6599 24.4198 24.7822 24.3574 24.7654 24.2658Z" fill="white"/>
<path d="M39.2964 25.4973C40.1794 26.0604 40.5775 27.0336 41.2193 27.8159C41.296 27.909 41.4639 27.8092 41.4232 27.6974C41.0524 26.6858 40.3564 25.8225 39.4192 25.2877C39.282 25.209 39.1645 25.4138 39.2964 25.4973Z" fill="white"/>
<path d="M37.2396 42.8556C37.5759 43.6168 37.5524 44.4505 37.6555 45.262C37.6684 45.3637 37.8008 45.3637 37.8133 45.262C37.9236 44.3881 37.8406 43.5319 37.4502 42.7324C37.3802 42.5899 37.1778 42.7146 37.2396 42.8556Z" fill="white"/>
<path d="M22.1218 36.8202C22.1232 36.6892 21.9318 36.6931 21.9208 36.8202C21.5975 40.5072 22.41 44.6327 25.5897 46.9355C25.7201 47.03 25.8453 46.8334 25.7518 46.725C23.1545 43.7099 22.0647 40.8324 22.1218 36.8202Z" fill="white"/>
<path d="M25.1265 43.8936C25.0459 43.7348 24.8161 43.8739 24.8895 44.0327C25.5087 45.3604 26.7765 46.2357 28.0989 46.7835C28.1924 46.8224 28.2591 46.6847 28.1938 46.6214C27.1688 45.6304 25.81 45.2453 25.1265 43.8936Z" fill="white"/>
<path d="M30.5817 46.5457C29.8358 46.2761 29.1643 45.8646 28.6151 45.29C28.5048 45.1744 28.2947 45.3293 28.3906 45.4636C29.1907 46.5788 30.8714 47.5578 32.2801 47.4973C32.4399 47.4906 32.4931 47.2892 32.3602 47.2028C31.8398 46.8642 31.163 46.7558 30.5817 46.5457Z" fill="white"/>
<path d="M33.1473 46.6605C32.7362 46.5276 32.353 46.3195 32.035 46.0269C31.8421 45.8484 31.5577 46.1305 31.7462 46.3142C32.0422 46.6034 32.3813 46.8159 32.7583 46.9843C33.0825 47.1286 33.518 47.3167 33.8759 47.2145C33.9694 47.1876 34.0217 47.05 33.9373 46.9809C33.7176 46.8001 33.414 46.7473 33.1473 46.6605Z" fill="white"/>
</svg>
