<svg width="60" height="60" viewBox="0 0 60 60" fill="none" xmlns="http://www.w3.org/2000/svg">
<circle cx="30" cy="30" r="30" fill="#88BF43"/>
<path d="M16.0817 21.1446C15.9447 21.1069 15.8951 21.3063 16.0241 21.3534C16.357 21.4754 16.6685 21.6892 16.9577 21.8931C17.2617 22.1074 17.5584 22.401 17.8996 22.5518C18.0227 22.6064 18.1412 22.4953 18.0812 22.3698C17.7444 21.6595 16.7801 21.3365 16.0817 21.1446Z" fill="white"/>
<path d="M16.4488 25.4025C15.9081 25.4462 15.4379 25.9159 15.0778 26.284C14.7008 26.6709 14.2563 27.277 14.3049 27.848C14.3178 27.9963 14.5331 28.091 14.6105 27.9313C14.8456 27.4467 15.0659 27.0464 15.4453 26.6515C15.7921 26.2889 16.295 26.031 16.5664 25.6074C16.6195 25.5245 16.551 25.3946 16.4488 25.4025Z" fill="white"/>
<path d="M16.4812 32.4837C15.8155 32.2714 15.1151 32.9157 14.753 33.3924C14.6602 33.5135 14.8537 33.6459 14.9574 33.5492C15.1915 33.3304 15.5015 33.194 15.7892 33.0561C16.0437 32.9351 16.3259 32.8875 16.5338 32.6851C16.6017 32.6201 16.5655 32.51 16.4812 32.4837Z" fill="white"/>
<path d="M18.3291 40.9537C18.288 40.8247 18.1143 40.8807 18.1327 41.0082C18.3009 42.2012 18.66 43.4686 19.595 44.3019C19.7012 44.3962 19.8545 44.2786 19.7895 44.1516C19.2483 43.0956 18.6982 42.0921 18.3291 40.9537Z" fill="white"/>
<path d="M19.2861 15.6099C19.3868 15.6133 19.427 15.4665 19.3382 15.4194C18.8402 15.155 18.2687 14.9506 17.8387 14.5796C17.7429 14.4968 17.6115 14.6252 17.6983 14.72C18.1268 15.1803 18.6308 15.5851 19.2861 15.6099Z" fill="white"/>
<path d="M12.7647 32.3083C12.2781 32.5251 12.042 33.164 12.0003 33.6556C11.9919 33.7608 12.16 33.7816 12.1828 33.6809C12.2409 33.4195 12.3614 33.2171 12.5127 33.0008C12.6437 32.8143 12.8213 32.669 12.913 32.4567C12.9572 32.354 12.8679 32.2627 12.7647 32.3083Z" fill="white"/>
<path d="M24.4151 23.2634C24.2787 22.7172 23.5098 22.6091 23.0659 22.807C22.8461 22.9042 22.6958 23.0565 22.614 23.2832C22.5748 23.3928 22.614 23.7485 22.8134 23.6662C22.92 23.623 22.9463 23.5446 22.9875 23.4424C23.0406 23.3105 23.1626 23.2291 23.2925 23.1835C23.6566 23.055 23.9409 23.314 24.2707 23.4082C24.3585 23.433 24.4369 23.3492 24.4151 23.2634Z" fill="white"/>
<path d="M23.6785 27.5175C24.3015 27.4078 24.8045 27.3925 25.4231 27.5631C25.749 27.6529 26.0481 27.8062 26.3278 27.9922C26.5158 28.1182 26.5853 28.2129 26.8095 28.2238C26.8645 28.2268 26.929 28.1703 26.9211 28.1122C26.8497 27.5611 25.9846 27.3255 25.5272 27.1861C24.9379 27.008 24.121 26.9381 23.5738 27.2685C23.4349 27.3528 23.5307 27.5438 23.6785 27.5175Z" fill="white"/>
<path d="M24.6588 29.6906C24.3711 29.5958 24.2436 29.3795 24.0616 29.1772C24.3766 29.2883 24.6841 29.4172 24.9683 29.5675C25.068 29.6196 25.1583 29.6876 25.2531 29.7496C25.0616 29.7625 24.8786 29.763 24.6588 29.6906ZM25.8553 30.4862C25.9078 30.449 25.945 30.4009 25.9753 30.3513C26.1385 30.5383 26.258 30.7476 26.4599 30.8999C26.5467 30.9634 26.6881 30.8969 26.7099 30.7967C26.8726 30.0547 25.9743 29.4659 25.4143 29.1782C24.6171 28.7684 23.7337 28.5918 22.8502 28.6732C22.7476 28.6821 22.7054 28.8518 22.824 28.8671C23.1608 28.9138 23.5035 28.9961 23.8393 29.1018C23.8145 29.1152 23.7907 29.1315 23.7724 29.1558C23.4817 29.5403 23.8949 30.0889 24.1925 30.3185C24.6191 30.6469 25.386 30.8181 25.8553 30.4862Z" fill="white"/>
<path d="M43.7552 31.5284C45.5826 31.6311 46.8133 33.1921 46.7587 34.9203C46.2597 34.6088 45.535 34.7437 44.9199 34.9188C43.5731 35.3008 42.1937 36.026 40.7988 35.5314C40.6574 35.4813 40.5126 35.6663 40.6004 35.7904C41.0414 36.4208 41.9079 36.3405 42.8559 36.0736C43.3678 36.8856 43.6609 37.7433 43.588 38.6962C42.8817 38.4714 42.2016 38.4843 41.4119 38.4729C41.2656 38.471 41.1525 38.595 41.149 38.7368C41.0944 40.8142 40.2164 42.4408 38.9084 43.9477C38.7665 43.0539 38.2764 42.3172 37.5259 41.7508C37.9476 41.215 38.4491 40.8366 39.0423 40.3777C39.1589 40.2874 39.0989 40.0598 38.9327 40.1173C37.7784 40.5161 36.9669 41.3276 36.3964 42.3996C35.4163 44.2404 34.3518 45.4949 32.6578 46.5693C32.7585 45.3897 31.4648 44.4983 30.185 44.7761C28.9048 44.4983 27.6111 45.3897 27.7113 46.5693C26.0173 45.4949 24.9528 44.2404 23.9726 42.3996C23.4022 41.3276 22.5912 40.5161 21.4364 40.1173C21.2702 40.0598 21.2097 40.2874 21.3268 40.3777C21.9205 40.8366 22.4215 41.215 22.8432 41.7508C22.0931 42.3172 21.6026 43.0539 21.4612 43.9477C20.1521 42.4408 19.2746 40.8142 19.2206 38.7368C19.2171 38.595 19.103 38.471 18.9572 38.4729C18.1675 38.4843 17.4874 38.4714 16.7816 38.6962C16.7086 37.7433 17.0008 36.8856 17.5137 36.0736C18.4611 36.3405 19.3272 36.4208 19.7692 35.7904C19.856 35.6663 19.7117 35.4813 19.5698 35.5314C18.1759 36.026 16.7954 35.3008 15.4492 34.9188C14.8341 34.7437 14.1094 34.6088 13.6104 34.9203C13.5553 33.1921 14.7865 31.6311 16.6144 31.5284C17.4066 31.4847 18.4854 31.4818 18.5618 30.4877C18.5708 30.3647 18.414 30.323 18.3342 30.3949C17.9061 30.7804 17.4681 30.8463 17.0028 30.8637C17.0018 30.8627 17.0018 30.8607 17.0003 30.8607C16.2131 30.2059 15.3703 29.6092 14.5781 28.9396C14.1724 28.5988 13.7592 28.3691 13.2805 28.3284C13.8252 26.322 14.722 24.0982 17.098 24.1131C18.0182 25.1697 18.9423 26.2029 20.1015 25.625C20.2176 25.5665 20.2151 25.379 20.1015 25.32C19.5018 25.0114 18.9165 24.8934 18.3709 24.4554C17.7677 23.9717 17.2632 23.3665 16.7186 22.8209C16.04 22.1423 15.2919 21.6557 14.4209 21.7063C14.8108 21.0481 15.3197 20.4791 15.9428 20.0039C16.9681 19.2221 17.984 19.1755 19.172 19.367C20.0311 20.0237 21.0976 20.3427 22.2975 20.0123C22.4458 19.9717 22.4448 19.7549 22.2975 19.7142C21.3203 19.4429 20.3907 19.4508 19.4825 18.926C18.6298 18.4339 18.1372 17.5763 17.857 16.6636C18.5058 17.0718 19.2424 17.2519 20.0619 17.2985C21.5306 17.3813 22.7921 16.4652 24.236 16.5356C24.2603 16.5366 24.2817 16.5326 24.301 16.5257C24.4146 16.608 24.5272 16.6904 24.6353 16.7757C25.3457 17.3392 25.5029 17.9131 25.7996 18.7172C25.8422 18.8313 26.0257 18.8913 26.0882 18.7549C27.1726 16.3902 22.5827 15.9195 23.1224 13.6799C23.5738 14.3887 24.5684 14.5747 25.4801 14.6601C26.3888 14.7449 27.3035 14.7241 28.2083 14.8634C29.371 15.042 29.8219 15.5465 30.0293 16.6695C30.0447 16.7514 30.1156 16.7816 30.185 16.7742C30.2535 16.7816 30.3249 16.7514 30.3398 16.6695C30.5476 15.5465 30.998 15.042 32.1603 14.8634C33.0655 14.7241 33.9797 14.7449 34.889 14.6601C35.8007 14.5747 36.7953 14.3887 37.2472 13.6799C37.7868 15.9195 33.1965 16.3902 34.2803 18.7549C34.3433 18.8913 34.5269 18.8313 34.569 18.7172C34.8662 17.9131 35.0234 17.3392 35.7337 16.7757C35.8414 16.6904 35.955 16.608 36.0681 16.5257C36.0874 16.5326 36.1087 16.5366 36.133 16.5356C37.5765 16.4652 38.8384 17.3813 40.3067 17.2985C41.1267 17.2519 41.8633 17.0718 42.5131 16.6636C42.2319 17.5763 41.7388 18.4339 40.8866 18.926C39.9783 19.4508 39.0488 19.4429 38.0716 19.7142C37.9242 19.7549 37.9237 19.9717 38.0716 20.0123C39.272 20.3427 40.338 20.0237 41.1971 19.367C42.3846 19.1755 43.401 19.2221 44.4263 20.0039C45.0494 20.4791 45.5583 21.0481 45.9482 21.7063C45.0771 21.6557 44.3291 22.1423 43.6505 22.8209C43.1059 23.3665 42.6014 23.9717 41.9987 24.4554C41.4526 24.8934 40.8668 25.0114 40.2675 25.32C40.1539 25.379 40.1515 25.5665 40.2675 25.625C41.4268 26.2029 42.3509 25.1697 43.2711 24.1131C45.6471 24.0982 46.5439 26.322 47.0886 28.3284C46.6099 28.3691 46.1972 28.5988 45.7909 28.9396C44.9988 29.6092 44.1565 30.2059 43.3683 30.8607C43.3673 30.8607 43.3673 30.8627 43.3663 30.8637C42.901 30.8463 42.4635 30.7804 42.0344 30.3949C41.9551 30.323 41.7978 30.3647 41.8072 30.4877C41.8841 31.4818 42.9625 31.4847 43.7552 31.5284ZM47.4036 28.9331C47.6268 28.9698 47.8381 28.7992 47.7761 28.5601C47.3113 26.7684 46.0672 23.1771 43.659 23.6721C44.5032 22.7286 45.3718 21.9513 46.4417 22.554C46.7002 22.6999 47.0955 22.4563 46.978 22.1418C46.3688 20.5118 44.0518 18.1214 42.0761 18.4974C42.6624 17.7593 43.0791 16.859 43.2765 15.981C43.3405 15.6963 43.0072 15.4954 42.7904 15.6978C41.6619 16.7533 40.0106 16.7995 38.5989 16.3679C37.9798 16.1784 37.3965 15.9274 36.8161 15.9666C37.0051 15.8163 37.1871 15.6601 37.3434 15.4835C38.147 14.5772 38.0587 13.6486 37.4525 12.6476C37.2923 12.3818 36.8955 12.5003 36.8836 12.8019C36.7933 15.0053 31.3934 13.5182 30.185 15.1898C28.9762 13.5182 23.5753 15.0053 23.486 12.8019C23.4736 12.5003 23.0773 12.3818 22.9166 12.6476C22.3104 13.6486 22.2216 14.5772 23.0252 15.4835C23.182 15.6601 23.3645 15.8163 23.553 15.9666C22.9726 15.9274 22.3888 16.1784 21.7702 16.3679C20.3585 16.7995 18.7067 16.7533 17.5787 15.6978C17.3619 15.4954 17.0286 15.6963 17.0926 15.981C17.29 16.859 17.7067 17.7593 18.2925 18.4974C16.3178 18.1214 14.0003 20.5118 13.3911 22.1418C13.2736 22.4563 13.6689 22.6999 13.9273 22.554C14.9968 21.9513 15.8659 22.7286 16.7106 23.6721C14.3023 23.1771 13.0573 26.7684 12.593 28.5601C12.531 28.7992 12.7423 28.9698 12.9655 28.9331C14.2389 28.7158 14.9799 30.3617 16.0067 30.9188C16.0038 30.9197 16.0008 30.9197 15.9983 30.9197C15.3073 31.0244 14.7344 31.3974 14.2165 31.8488C13.16 32.7695 12.8698 34.3335 13.1545 35.6405C13.216 35.9218 13.5876 35.8712 13.6729 35.6405C14.0216 34.6976 15.6099 35.4669 17.1174 35.9526C16.1898 36.709 16.0087 38.0821 16.2086 39.217C16.2468 39.4353 16.5063 39.4868 16.6754 39.4075C17.5767 38.9844 18.6467 38.6317 18.7727 39.7671C18.8486 40.4467 19.0812 41.0851 19.3436 41.7096C19.8223 42.8505 20.6536 43.8252 21.4865 44.7206C21.6353 44.8803 21.9146 44.7568 21.9111 44.5445C21.8977 43.5395 22.3149 42.7632 23.1249 42.161C23.1621 42.2215 23.2003 42.279 23.236 42.343C23.6259 43.0459 23.8804 43.7969 24.3094 44.4829C25.1274 45.79 26.6289 46.7236 28.0035 47.3347C28.2282 47.4344 28.4702 47.2275 28.3462 46.9919C27.5535 45.4815 29.4177 45.414 30.185 45.2389C30.9514 45.414 32.816 45.4815 32.0234 46.9919C31.8989 47.2275 32.1404 47.4344 32.3656 47.3347C33.7406 46.7236 35.2417 45.79 36.0596 44.4829C36.4897 43.7969 36.7427 43.0459 37.1336 42.343C37.1688 42.279 37.2065 42.2215 37.2447 42.161C38.0547 42.7632 38.4719 43.5395 38.4585 44.5445C38.455 44.7568 38.7338 44.8803 38.8826 44.7206C39.7154 43.8252 40.5468 42.8505 41.0255 41.7096C41.2879 41.0851 41.521 40.4467 41.5964 39.7671C41.7224 38.6317 42.7929 38.9844 43.6937 39.4075C43.8633 39.4868 44.1223 39.4353 44.1605 39.217C44.3604 38.0821 44.1788 36.709 43.2517 35.9526C44.7592 35.4669 46.348 34.6976 46.6967 35.6405C46.7815 35.8712 47.1541 35.9218 47.2146 35.6405C47.4993 34.3335 47.2096 32.7695 46.1525 31.8488C45.6342 31.3974 45.0623 31.0244 44.3713 30.9197C44.3678 30.9197 44.3653 30.9197 44.3628 30.9188C45.3891 30.3617 46.1302 28.7158 47.4036 28.9331" fill="white"/>
<path d="M42.4692 22.5518C42.8104 22.401 43.1066 22.1073 43.4111 21.8931C43.7003 21.6892 44.0123 21.4759 44.3447 21.3534C44.4741 21.3062 44.4236 21.1068 44.2871 21.1445C43.5892 21.3365 42.6244 21.6594 42.2876 22.3698C42.2276 22.4952 42.3456 22.6064 42.4692 22.5518Z" fill="white"/>
<path d="M44.9241 26.6514C45.3036 27.0467 45.5234 27.447 45.7585 27.9311C45.8359 28.0909 46.0511 27.9961 46.064 27.8478C46.1127 27.2774 45.6682 26.6707 45.2907 26.2843C44.9316 25.9157 44.4608 25.446 43.9207 25.4023C43.818 25.3944 43.7495 25.5244 43.8026 25.6072C44.0734 26.0313 44.5774 26.2892 44.9241 26.6514Z" fill="white"/>
<path d="M44.58 33.0563C44.8677 33.1937 45.1773 33.3306 45.4124 33.5493C45.5156 33.6456 45.709 33.5136 45.6162 33.3926C45.2541 32.9159 44.5537 32.2715 43.8876 32.4838C43.8037 32.5096 43.7675 32.6202 43.835 32.6852C44.0433 32.8876 44.3256 32.9352 44.58 33.0563Z" fill="white"/>
<path d="M42.0396 40.9537C41.671 42.0921 41.1214 43.0956 40.5793 44.1516C40.5148 44.2786 40.6685 44.3962 40.7742 44.3019C41.7092 43.4686 42.0679 42.2012 42.2365 41.0082C42.2544 40.8807 42.0813 40.8247 42.0396 40.9537Z" fill="white"/>
<path d="M41.0825 15.6099C41.7378 15.5851 42.2423 15.1803 42.6699 14.72C42.7576 14.6252 42.6257 14.4968 42.53 14.5796C42.1004 14.9506 41.529 15.155 41.0309 15.4194C40.9416 15.4665 40.9818 15.6133 41.0825 15.6099Z" fill="white"/>
<path d="M47.6045 32.3083C47.5009 32.2627 47.4121 32.354 47.4557 32.4567C47.548 32.669 47.7251 32.8143 47.8555 33.0008C48.0073 33.2171 48.1283 33.4195 48.1864 33.6809C48.2087 33.7816 48.3774 33.7608 48.3689 33.6556C48.3273 33.164 48.0907 32.5251 47.6045 32.3083Z" fill="white"/>
<path d="M38.1678 31.0983C37.8007 31.827 37.8225 32.6494 37.9237 33.4361C37.9277 33.4644 37.9282 33.4912 37.9312 33.5185C37.3156 34.2263 36.8329 35.1246 36.6628 36.0254C36.3771 37.5418 36.0254 38.6063 35.0938 39.8573C35.065 39.896 35.065 39.9347 35.0804 39.968C33.4484 40.8038 32.1513 41.3757 30.1905 41.3847C28.4335 41.3926 26.7613 40.8474 25.2975 39.9263C25.2975 39.904 25.2921 39.8812 25.2747 39.8573C24.3431 38.6063 23.9924 37.5418 23.7057 36.0254C23.5356 35.1246 23.0534 34.2263 22.4379 33.5185C22.4408 33.4912 22.4418 33.4644 22.4448 33.4361C22.546 32.6494 22.5678 31.827 22.2007 31.0983C21.3803 29.4688 20.7295 28.2694 21.8203 26.504C22.3734 25.6106 23.232 24.9623 23.7911 24.0689C23.8416 23.9885 23.741 23.8854 23.6596 23.938C23.1522 24.2673 22.5991 24.6914 22.0976 25.1855C21.7985 24.5972 21.5222 24.0833 21.542 23.373C21.5604 22.744 21.9334 22.1671 22.3838 21.7574C22.8545 21.3298 23.5286 21.1517 24.1507 21.236C24.9766 21.3471 25.4483 21.9627 26.0059 22.4989C25.7499 22.5932 25.4949 22.6939 25.2395 22.809C25.1472 22.8501 25.1899 23.0168 25.2921 23.0034C26.7236 22.8189 28.0629 22.3288 29.5153 22.2226C31.2237 22.0971 32.9202 22.5709 34.5253 23.0922C34.8562 23.2003 34.9981 22.6795 34.6682 22.5733C34.5715 22.5421 34.4743 22.5143 34.3775 22.4846C34.9286 21.9523 35.3994 21.3461 36.2183 21.236C36.8394 21.1517 37.5145 21.3298 37.9847 21.7574C38.4356 22.1671 38.8086 22.744 38.8265 23.373C38.8468 24.0833 38.571 24.5972 38.2709 25.1855C37.7694 24.6914 37.2164 24.2673 36.7089 23.938C36.6281 23.8854 36.5274 23.9885 36.578 24.0689C37.1365 24.9623 37.9951 25.6106 38.5477 26.504C39.639 28.2694 38.9882 29.4688 38.1678 31.0983ZM38.1613 21.2772C36.8071 20.3308 34.7868 20.7747 34.189 22.4106C34.187 22.4171 34.1905 22.4211 34.1895 22.4275C31.4841 21.6294 28.8298 21.5034 26.179 22.4369C26.1785 22.428 26.183 22.4206 26.1795 22.4106C25.5818 20.7747 23.5614 20.3308 22.2072 21.2772C20.849 22.2261 20.6219 24.3611 21.7077 25.5987C20.8748 26.5476 20.2979 27.6994 20.5598 28.9231C20.8887 30.4559 21.8302 31.4867 21.8401 33.0805C21.79 33.1107 21.7593 33.1648 21.7861 33.2327C21.7995 33.2675 21.8173 33.2987 21.8322 33.3334C21.8307 33.3682 21.8307 33.4014 21.8282 33.4361C21.726 34.7204 21.5117 35.7551 22.2072 36.8905C22.2717 36.9942 22.4701 36.962 22.4557 36.8236C22.3605 35.951 22.3183 35.137 22.3659 34.2933C22.4463 34.4198 22.5271 34.5472 22.606 34.6792C23.0991 35.4957 23.2072 36.4079 23.421 37.3137C23.6194 38.1604 23.9289 39.0726 24.5688 39.6649C25.7266 41.1451 28.3194 42.0389 30.7599 42.025C30.6478 42.1619 30.5402 42.2998 30.4365 42.4447C30.2971 42.6372 30.0793 42.8351 30.0114 43.0652C29.9896 43.1377 30.063 43.2155 30.1369 43.1912C30.3482 43.1198 30.4796 42.911 30.6076 42.7388C30.7837 42.5032 30.9444 42.2577 31.1136 42.0171C31.4712 42.0007 31.8239 41.967 32.1662 41.9109C32.0704 42.1272 31.9504 42.3356 31.8219 42.534C31.6344 42.8227 31.371 43.0667 31.2128 43.3733C31.1781 43.4412 31.2371 43.5509 31.3234 43.5161C31.9499 43.2681 32.3204 42.5057 32.4827 41.8529C33.7937 41.5811 34.9242 40.9814 35.5695 39.9918C35.6008 39.9437 35.5893 39.897 35.5636 39.8603C36.3691 39.2894 36.7258 38.2591 36.948 37.3137C37.1618 36.4079 37.2694 35.4957 37.762 34.6792C37.8414 34.5472 37.9227 34.4198 38.0026 34.2933C38.0502 35.137 38.008 35.951 37.9133 36.8236C37.8989 36.962 38.0973 36.9942 38.1608 36.8905C38.8573 35.7551 38.643 34.7204 38.5408 33.4361C38.5378 33.4014 38.5383 33.3682 38.5363 33.3334C38.5512 33.2987 38.5691 33.2675 38.582 33.2327C38.6097 33.1648 38.578 33.1107 38.5284 33.0805C38.5383 31.4867 39.4803 30.4559 39.8092 28.9231C40.0711 27.6994 39.4942 26.5476 38.6613 25.5987C39.7472 24.3611 39.5195 22.2261 38.1613 21.2772" fill="white"/>
<path d="M36.0981 23.4082C36.428 23.3139 36.7122 23.055 37.0768 23.1835C37.2062 23.2291 37.3283 23.3105 37.3813 23.4424C37.422 23.5446 37.4483 23.623 37.555 23.6661C37.7549 23.7485 37.7941 23.3928 37.7544 23.2832C37.673 23.057 37.5227 22.9042 37.303 22.807C36.859 22.6091 36.0902 22.7172 35.9532 23.2633C35.9319 23.3492 36.0103 23.433 36.0981 23.4082Z" fill="white"/>
<path d="M33.5589 28.2238C33.7836 28.2133 33.8531 28.1181 34.0416 27.9921C34.3213 27.8061 34.6199 27.6533 34.9458 27.563C35.5644 27.3924 36.0679 27.4078 36.6909 27.5174C36.8382 27.5437 36.934 27.3527 36.7951 27.2684C36.2484 26.938 35.431 27.008 34.8417 27.186C34.3843 27.3254 33.5192 27.5611 33.4473 28.1122C33.4404 28.1707 33.5043 28.2267 33.5589 28.2238Z" fill="white"/>
<path d="M35.7102 29.6906C35.4904 29.763 35.3069 29.7625 35.1164 29.7496C35.2107 29.6876 35.3014 29.6196 35.4001 29.5675C35.6849 29.4172 35.9924 29.2883 36.3074 29.1772C36.1249 29.3795 35.9979 29.5958 35.7102 29.6906ZM37.5187 28.6732C36.6353 28.5918 35.7513 28.7684 34.9547 29.1782C34.3947 29.4659 33.4963 30.0547 33.659 30.7967C33.6809 30.8969 33.8222 30.9634 33.9095 30.8999C34.1109 30.7476 34.231 30.5383 34.3937 30.3513C34.4239 30.4009 34.4611 30.449 34.5137 30.4862C34.983 30.8181 35.7499 30.6469 36.1764 30.3185C36.4741 30.0889 36.8868 29.5403 36.5966 29.1558C36.5782 29.1315 36.5549 29.1152 36.5296 29.1018C36.8654 28.9961 37.2087 28.9138 37.545 28.8671C37.6636 28.8518 37.6209 28.6821 37.5187 28.6732Z" fill="white"/>
<path d="M27.528 17.9038C27.8876 18.4469 27.962 19.0095 28.095 19.627C28.1168 19.7287 28.2721 19.7252 28.2964 19.627C28.6218 18.2842 27.404 17.1369 26.5042 16.3413C26.3822 16.2331 26.2056 16.4052 26.3236 16.5218C26.7616 16.9534 27.1872 17.3889 27.528 17.9038Z" fill="white"/>
<path d="M31.4003 21.0794C31.5263 20.5139 31.5684 19.9658 31.6007 19.3879C31.6448 18.6051 31.9474 17.9474 32.0957 17.1954C32.1225 17.0629 31.9603 16.9424 31.8561 17.056C30.9037 18.0868 31.1235 19.7683 31.1909 21.0511C31.1969 21.1672 31.3735 21.2019 31.4003 21.0794Z" fill="white"/>
<path d="M32.0391 20.8193C32.0882 20.9681 32.2995 20.9071 32.2717 20.7553C32.1467 20.0777 32.5262 19.596 32.6477 18.9656C32.6661 18.8693 32.5564 18.7964 32.4805 18.8688C31.9676 19.3555 31.8223 20.163 32.0391 20.8193Z" fill="white"/>
<path d="M29.4656 20.9191C29.4502 21.057 29.6526 21.0654 29.6938 20.9498C29.8986 20.3754 29.9517 19.6155 29.5271 19.1264C29.4472 19.0346 29.3302 19.1358 29.345 19.2326C29.4333 19.8095 29.5316 20.3318 29.4656 20.9191Z" fill="white"/>
<path d="M28.0134 33.6889C27.9842 33.798 28.1374 33.9062 28.2148 33.807C28.7248 33.1552 29.4648 33.9915 30.1097 33.9915C30.3587 33.9915 30.577 33.864 30.7848 33.7445C31.2952 33.4553 31.6286 33.7722 32.0299 34.0218C32.1092 34.0714 32.203 34.0054 32.2079 33.9196C32.2541 33.0202 31.1142 32.9592 30.508 33.2712C29.7759 33.6458 28.3423 32.4815 28.0134 33.6889Z" fill="white"/>
<path d="M32.9805 34.9668C33.4652 34.2952 33.426 33.4003 33.2757 32.5526C32.8779 30.3204 31.6378 28.7633 32.8412 26.5168C32.8997 26.4072 32.7643 26.3065 32.674 26.3868C31.7042 27.2519 31.7345 28.5049 31.9721 29.6894C32.3699 31.6716 33.2345 32.9757 32.4304 34.9261C31.3471 34.9435 30.2087 35.5288 29.8094 36.445C29.7771 36.5184 29.7558 36.5923 29.732 36.6667C29.4438 35.7679 28.7925 35.2074 28.0306 34.9767C28.0311 34.949 28.0271 34.9202 28.0097 34.8914C26.787 32.7803 28.041 30.8844 28.2806 28.6984C28.3867 27.7355 28.2746 26.7018 27.2974 26.3025C27.2037 26.2643 27.1397 26.4002 27.2037 26.4652C29.5807 28.8769 25.4214 32.3492 27.5539 34.881C26.6947 34.7758 25.7676 35.0472 25.0881 35.6955C25.0176 35.762 25.0895 35.9048 25.1873 35.8656C26.0409 35.5278 26.7855 35.2352 27.7121 35.4936C28.357 35.6742 28.8113 36.1891 29.1164 36.7545C29.732 37.892 29.3183 39.2169 27.9319 39.3424C27.6094 39.3711 27.6069 39.8771 27.9319 39.8483C29.0221 39.7496 29.6472 39.1182 29.8381 38.2809C30.2632 39.2079 31.2712 39.8672 32.365 39.6792C32.6904 39.6236 32.6145 39.0825 32.2876 39.1048C30.9324 39.1975 29.9319 38.0095 30.3654 36.6796C30.8173 35.2937 33.1323 35.1578 34.1031 35.9316C34.2162 36.0219 34.422 35.9018 34.3213 35.763C33.9954 35.3145 33.5123 35.0621 32.9805 34.9668Z" fill="white"/>
<path d="M26.2034 43.0391C25.9906 42.5306 25.9807 41.8456 25.688 41.3843C25.6369 41.2831 25.447 41.2613 25.4177 41.4041C25.2252 42.3258 26.1603 45.0957 27.4956 44.5728C27.5675 44.5441 27.6018 44.4364 27.5189 44.3938C26.8622 44.056 26.4971 43.741 26.2034 43.0391Z" fill="white"/>
<path d="M27.4199 43.3627C27.2498 43.1722 27.1104 42.9559 26.9363 42.7679C26.8743 42.7015 26.7766 42.7719 26.7934 42.8513C26.8495 43.1166 27.0082 43.3438 27.166 43.5591C27.3108 43.7575 27.4661 43.9688 27.7061 44.0517C27.7801 44.0765 27.8589 43.9961 27.8341 43.9227C27.7597 43.6975 27.5747 43.5363 27.4199 43.3627Z" fill="white"/>
<path d="M35.4954 41.1789C35.4597 42.4676 34.231 43.3153 33.3585 44.0981C33.3069 44.1447 33.3605 44.2439 33.4284 44.2181C34.6482 43.7424 35.865 42.5758 35.8109 41.1789C35.8035 40.976 35.5004 40.975 35.4954 41.1789Z" fill="white"/>
<path d="M25.2228 46.7022C24.8463 46.4512 24.4961 46.1799 24.1816 45.8535C24.0829 45.7508 23.9371 45.9026 24.0273 46.0077C24.5244 46.5851 25.2238 47.3014 25.9867 47.4963C26.0988 47.5246 26.1896 47.3823 26.1018 47.2984C25.8443 47.0544 25.5169 46.8976 25.2228 46.7022Z" fill="white"/>
<path d="M36.2423 45.0726C36.2051 45.6327 35.6585 45.8137 35.2726 46.1084C35.2031 46.1614 35.2121 46.3028 35.3227 46.2944C35.9556 46.2413 36.5152 45.7249 36.5161 45.0726C36.5161 44.8946 36.2537 44.897 36.2423 45.0726Z" fill="white"/>
<path d="M27.668 13.4041C27.9249 13.421 28.172 13.4562 28.4165 13.5386C28.6298 13.61 28.8218 13.7251 29.0316 13.8064C29.0991 13.8322 29.1665 13.7419 29.1259 13.6834C28.8079 13.2246 28.1675 13.2305 27.668 13.2558C27.5718 13.2603 27.5728 13.3977 27.668 13.4041Z" fill="white"/>
</svg>
