<svg width="60" height="60" viewBox="0 0 60 60" fill="none" xmlns="http://www.w3.org/2000/svg">
<circle cx="30" cy="30" r="30" fill="#AAB927"/>
<path d="M37.8901 18.8737C38.3456 19.1209 38.8134 19.3406 39.2625 19.5983C39.7916 19.9027 40.1038 20.3458 40.4297 20.8457C40.4952 20.9464 40.6353 20.8795 40.616 20.7669C40.4018 19.499 39.0354 19.0971 38.021 18.6498C37.8723 18.5839 37.74 18.7922 37.8901 18.8737Z" fill="white"/>
<path d="M43.7792 20.3786C43.8085 20.4912 43.9669 20.461 43.9747 20.352C44.0484 19.2145 43.5421 18.1878 42.8239 17.3391C42.7085 17.2032 42.5144 17.3995 42.6289 17.5341C43.3192 18.3489 43.5114 19.377 43.7792 20.3786Z" fill="white"/>
<path d="M20.5594 24.5927C20.6359 23.8506 20.7416 23.1063 20.9197 22.3822C21.074 21.7569 21.3591 21.1742 21.5253 20.5539C21.5546 20.444 21.4145 20.4001 21.3536 20.4816C20.4976 21.6218 20.1241 23.2258 20.3699 24.6183C20.3905 24.7341 20.5494 24.6929 20.5594 24.5927Z" fill="white"/>
<path d="M29.9081 13.276C30.148 13.0623 30.4135 12.9451 30.7238 12.8723C30.9655 12.8155 31.2054 12.8915 31.4457 12.8558C31.5231 12.8439 31.5478 12.7286 31.4919 12.68C30.9779 12.2259 30.1333 12.7281 29.7474 13.1158C29.6444 13.2202 29.7996 13.3726 29.9081 13.276Z" fill="white"/>
<path d="M32.9442 32.7212C31.0651 32.4351 28.5058 33.9685 27.5788 35.5606C27.4813 35.7268 27.7381 35.8765 27.8361 35.7107C28.9004 33.9173 31.0477 33.3167 32.9442 32.8965C33.0289 32.8786 33.0339 32.7344 32.9442 32.7212" fill="white"/>
<path d="M30.2878 36.8494C30.0877 36.9753 29.8946 37.1053 29.6845 37.1941C29.841 37.0362 30.0658 36.9199 30.2878 36.8494ZM30.7785 36.5789C30.7693 36.5107 30.7194 36.4498 30.6229 36.442C30.1596 36.4054 29.7888 36.3541 29.3549 36.5702C28.9388 36.7775 28.7429 37.222 28.7598 37.6679C28.7685 37.8725 28.9186 38.018 29.121 38.0286C29.6488 38.0579 30.0964 37.856 30.5354 37.5818C30.7359 37.4559 30.9337 37.3186 31.1552 37.2303C31.3836 37.1387 31.5411 37.1057 31.6784 36.8842C31.7297 36.8023 31.7022 36.7135 31.6473 36.6434C31.4184 36.3514 31.0765 36.4411 30.7785 36.5789Z" fill="white"/>
<path d="M32.8794 35.7743C32.7919 35.9556 32.9045 36.119 33.0652 36.141C33.0794 36.1749 33.1014 36.2023 33.1481 36.2106C33.9267 36.3429 34.6893 36.108 35.4016 35.8096C35.6048 35.7254 35.7623 35.4919 35.6186 35.2758C34.9617 34.2784 33.3362 34.8295 32.8794 35.7743Z" fill="white"/>
<path d="M40.2531 31.6259C39.0799 31.6589 37.7647 32.3217 36.6698 32.8436C36.5723 32.638 36.4606 32.4375 36.3361 32.2412C37.4768 31.7477 38.7928 31.203 40.0201 31.1577C40.9763 31.1215 41.9133 31.6928 42.8376 32.1963C41.9898 31.9514 41.1686 31.5998 40.2531 31.6259ZM41.4158 36.5056C40.2284 35.5315 38.3099 35.0344 37.0543 35.3127C37.0722 35.2101 37.0854 35.1067 37.095 35.0014C37.1431 34.453 37.0676 33.9229 36.901 33.4148C38.1305 33.5435 39.219 34.2187 40.1515 35.0266C40.644 35.4528 41.0693 35.9554 41.4158 36.5056ZM40.9255 42.4523C40.8697 42.7754 40.6463 43.0689 40.4421 43.3119C40.1922 43.6104 39.8484 43.9349 39.4689 44.1528C39.8617 43.5316 40.1533 42.7036 39.864 42.1611C39.9532 42.1465 40.0389 42.1314 40.1144 42.114C40.3126 42.0696 40.5584 41.9995 40.8129 41.9034C40.8944 42.071 40.9663 42.2193 40.9255 42.4523V42.4523ZM36.559 42.6907C36.473 40.7563 39.2854 40.3356 40.8015 39.6453C41.196 39.4659 41.6277 39.2027 41.9449 38.8914C41.9628 39.502 41.8039 40.0587 41.6488 40.6309C41.3622 40.9051 41.094 41.177 40.6582 41.35C39.9766 41.6214 39.2204 41.7249 38.5049 41.8682C37.8265 42.0046 37.0241 42.1872 36.559 42.6907V42.6907ZM40.7616 37.6518C40.6756 37.2027 40.4723 36.7615 40.1689 36.425C40.7969 36.7953 41.2661 37.3021 41.8072 37.7974C41.8227 37.8912 41.8374 37.9832 41.8525 38.0757C41.7055 38.4579 41.2565 38.7902 40.7026 39.074C40.861 38.6126 40.8266 37.9892 40.7616 37.6518V37.6518ZM36.7229 37.5786C36.7627 37.9576 36.5856 38.3412 36.4253 38.6721C36.2258 39.0786 35.9259 39.4544 35.5698 39.7566C35.8229 39.1253 35.9031 38.3673 35.4677 37.9823C35.8458 37.6509 36.1731 37.281 36.4363 36.8759C36.5668 37.0897 36.694 37.292 36.7229 37.5786V37.5786ZM32.2296 41.1719C31.6588 41.3129 31.0779 41.2896 30.4924 41.1165C29.8223 40.9183 29.4739 40.4793 29.0912 39.9914C29.7266 40.0545 30.437 40.0225 31.1648 39.9017C31.1269 40.3873 31.7027 40.8753 32.2296 41.1719V41.1719ZM24.9673 41.0634C24.6478 41.3601 24.3114 41.7752 24.0939 42.228C23.9717 40.7682 24.6995 39.1537 25.588 38.0487C26.0041 38.5463 26.4999 38.9779 27.0538 39.3075C26.3333 39.8513 25.6155 40.4652 24.9673 41.0634ZM25.6009 43.354C25.9451 43.7619 26.9695 44.6811 27.691 44.638C27.1787 44.9672 26.6651 45.223 26.1946 45.2885C25.3477 44.8349 24.6785 44.2883 24.3288 43.3252C24.4235 42.9956 24.4839 42.6596 24.646 42.3419C24.7613 42.1158 24.9161 41.9117 25.0886 41.7217C25.0117 42.293 25.2205 42.9045 25.6009 43.354V43.354ZM33.5072 43.5216C32.5761 43.4149 31.792 43.8425 31.011 44.3931C30.4668 44.7767 29.9555 45.1905 29.3833 45.5325C28.5657 46.0195 27.9175 45.8955 27.1893 45.6039C29.1448 44.6435 31.5878 41.437 33.5072 43.5216ZM33.0187 46.7529C31.7604 47.0467 30.5972 46.746 29.565 45.9614C30.0804 45.6474 30.6014 45.2565 31.12 44.8999C31.4743 45.7902 32.2703 46.2022 33.0187 46.7529V46.7529ZM21.5443 37.9329C20.6585 39.2013 20.5921 40.6437 19.7517 41.7395C20.0062 41.1838 20.1554 40.5805 20.2854 39.9154C20.6365 38.1224 22.2002 35.429 24.4299 35.9934C24.4881 36.1298 24.5462 36.2671 24.6062 36.404C23.4357 36.1756 22.2066 36.983 21.5443 37.9329V37.9329ZM21.6724 34.8311C20.2772 35.5644 18.7492 37.2668 17.0784 36.501C18.0694 36.2277 19.1104 36.0602 20.0428 35.6414C21.255 35.0989 22.3824 33.381 23.7515 34.3395C23.7685 34.3509 23.7854 34.3574 23.8023 34.3601C23.8591 34.5281 23.9172 34.6961 23.98 34.865C23.0718 34.6828 22.6049 34.3413 21.6724 34.8311ZM21.2696 31.7949C20.2809 31.5847 19.1424 31.94 18.1482 31.9972C17.8374 32.0105 17.5275 31.9926 17.2203 31.9422C17.1219 31.9175 17.023 31.8924 16.9251 31.8672C16.3108 31.745 16.0375 31.4525 16.1048 30.9901C16.7168 31.1485 17.2881 31.4703 17.928 31.5239C19.7 31.6708 22.0363 30.233 23.2929 31.9917C23.3194 32.3474 23.3707 32.7026 23.4444 33.0564C22.8177 32.4664 22.192 31.9908 21.2696 31.7949V31.7949ZM19.8107 28.57C20.0511 28.8117 20.3436 29.0081 20.631 29.1843C20.994 29.4058 21.5946 29.735 22.083 29.7304C22.1691 30.033 22.3027 30.3278 22.4831 30.6074C22.4373 30.5896 22.3911 30.5736 22.3426 30.5585C21.3506 30.0041 20.3161 29.5473 19.8107 28.57ZM21.7127 24.7349C21.7315 23.3456 22.2231 22.0745 22.9665 20.9337C23.0242 21.1507 23.1029 21.3595 23.2059 21.548C23.5469 22.1724 23.9571 22.741 24.348 23.3342C24.9014 24.1737 24.9682 25.1052 25.307 26.0075C24.6675 26.0359 24.0308 26.1961 23.4105 26.5426C22.95 26.7994 22.6062 27.1354 22.3678 27.5144C22.045 26.5842 21.6976 25.8459 21.7127 24.7349V24.7349ZM25.9639 16.5846C25.9323 16.6849 25.9021 16.7874 25.8751 16.895C25.6031 17.9625 25.5647 19.084 25.4063 20.1707C25.2708 21.1086 24.9261 21.6913 24.4524 22.3821C24.3993 22.3015 24.348 22.22 24.2931 22.1404C22.9825 20.2279 23.5684 17.2118 25.9639 16.5846ZM28.9782 14.9843C28.5827 15.5414 28.4531 16.3155 28.2714 16.9394C28.1057 17.5084 27.8956 18.0531 27.5889 18.5612C27.2346 19.148 26.7571 19.2744 26.1904 19.3398C26.466 17.4571 26.612 14.8617 28.9782 14.9843ZM32.4136 14.4337C32.4324 14.4625 32.4553 14.4808 32.4795 14.495C32.0428 14.8223 31.6272 15.1789 31.212 15.5313C30.6783 15.985 29.8703 16.8396 29.0802 16.8565C29.1956 16.4949 29.3032 16.1305 29.4236 15.7712C29.7595 14.7655 31.5095 13.0009 32.4136 14.4337V14.4337ZM36.1054 15.1029C34.5357 15.3084 33.2957 16.4116 31.6537 16.0445C33.3392 14.5041 35.1217 12.6315 36.1054 15.1029ZM29.8245 26.8735C30.1344 26.5852 30.3784 26.2487 30.6339 25.9187C30.5711 26.462 30.3391 26.9765 30.0383 27.4384C29.8433 27.3588 29.6437 27.2828 29.4405 27.2127C29.581 27.1065 29.7092 26.9811 29.8245 26.8735ZM34.2492 26.7596C35.2723 26.4089 36.6016 26.9152 37.7716 27.1482C36.8277 27.3597 35.8175 27.2173 34.8841 27.5606C34.1302 27.838 33.4715 28.4459 32.8681 28.9687C32.6709 28.8382 32.4777 28.7151 32.2882 28.5979C32.967 28.2473 33.6179 26.9752 34.2492 26.7596ZM36.5073 29.2397C37.3367 28.6684 38.4601 28.9412 39.4149 29.3683C37.8847 29.3079 36.3741 29.8164 35.151 30.791C34.9839 30.6253 34.8118 30.4655 34.636 30.3108C35.3281 30.0925 35.8939 29.6626 36.5073 29.2397ZM31.0033 39.3157C25.529 40.3956 22.9976 32.9928 24.2097 28.7792C24.2505 28.6391 24.0427 28.5485 23.9735 28.6794C23.5144 29.5464 23.3093 30.4065 23.2773 31.2629C23.2201 31.1719 23.1542 31.0876 23.08 31.0098C23.0928 30.9805 23.097 30.9476 23.086 30.9123C22.8946 30.2957 22.6085 29.7592 22.5893 29.0969C22.5582 28.0221 23.4004 27.28 24.3187 26.8928C25.0992 26.5641 25.9698 26.63 26.8144 26.8497C26.1538 26.9628 25.6004 27.3029 25.2768 27.9969C25.1353 28.3017 25.5217 28.5183 25.7208 28.2564C26.4143 27.3405 27.5738 27.2915 28.7255 27.5533C28.7493 27.5634 28.774 27.5735 28.7969 27.584C28.8504 27.6078 28.9013 27.6114 28.9502 27.6073C29.5861 27.773 30.2109 28.023 30.7428 28.266C28.4371 28.0665 25.4709 29.2717 24.651 31.2684C24.5879 31.4213 24.8511 31.5321 24.9179 31.381C25.979 29.0259 29.6442 28.4253 31.8931 28.9449C31.9494 28.9572 31.9957 28.9481 32.0341 28.9302C32.7024 29.3212 33.3593 29.794 33.9608 30.3332C31.2848 29.355 26.9192 31.3119 25.8242 33.624C25.7496 33.7788 25.9753 33.9165 26.0572 33.7609C27.6763 30.704 31.7077 30.6793 34.6319 31.1531C34.6836 31.1618 34.7285 31.1531 34.7665 31.1361C35.4966 31.9523 36.0811 32.8756 36.3979 33.8717C37.4251 37.1052 33.5122 38.8218 31.0033 39.3157V39.3157ZM44.3719 32.4325C42.8394 31.9986 41.6309 30.8972 40.0201 30.7255C38.9009 30.6056 37.1253 31.2639 36.1141 31.9093C35.9003 31.6118 35.6618 31.3257 35.4041 31.051C37.0827 30.2124 38.5068 29.4667 40.4641 29.9112C40.6834 29.9602 40.8216 29.6608 40.6193 29.5436C39.6543 28.9824 38.5653 28.5649 37.442 28.5265C36.2917 28.4871 35.3675 29.6521 34.2959 30.0201C33.9388 29.7254 33.5713 29.4516 33.2083 29.1994C34.2158 28.3205 35.1359 27.6664 36.5489 27.6192C37.3326 27.5936 37.9629 27.5753 38.6688 27.2288C38.8469 27.1409 38.7475 26.8868 38.574 26.8786C37.2072 26.8127 35.7561 26.0935 34.3819 26.3087C33.8583 26.3906 33.5031 26.6213 33.1254 26.9843C32.7212 27.3725 32.1902 27.8568 31.8368 28.3269C31.4564 28.1044 30.9282 27.8229 30.3313 27.562C30.7163 26.9289 31.0074 26.2327 30.9497 25.476C30.9405 25.3588 30.7854 25.2609 30.6934 25.3698C30.3958 25.7241 30.0717 26.0597 29.7605 26.4034C29.5449 26.6419 29.2482 26.8195 29.0065 27.0347C27.9542 26.4803 26.8185 26.0464 25.681 26.0066C25.7144 24.8539 25.3198 23.8286 24.7572 22.8714C25.6672 22.4233 25.9524 20.8916 26.1058 19.8988C27.2749 20.2425 28.2146 18.9773 28.6637 17.979C28.747 17.7945 28.8212 17.6063 28.8903 17.4164C29.5517 17.7478 30.4013 17.1555 31.2985 16.3649C32.0305 17.0612 32.9808 16.8922 33.9695 16.5517C33.9924 16.5434 34.0217 16.5325 34.0464 16.5233C34.1737 17.5835 35.1606 17.903 36.1585 17.919C35.8266 18.8894 36.2276 19.8168 37.0213 20.5309C38.3772 21.7517 42.426 22.0443 40.4202 24.7125C40.3515 24.8036 40.4838 24.9281 40.5749 24.8668C41.7362 24.0881 41.749 22.9579 40.8051 21.9884C40.2316 21.3988 39.3957 21.0322 38.6624 20.6916C37.2731 20.0457 36.7732 19.3147 36.6281 17.9071C36.8007 17.8947 36.9692 17.8755 37.1298 17.8512C39.3792 17.512 41.5879 17.6439 42.594 20.0709C43.3905 21.9925 42.1848 24.3156 40.3867 25.0567C40.1725 25.1451 40.2998 25.4481 40.5103 25.3492C42.5963 24.3715 43.9957 21.6694 42.9758 19.4474C42.3711 18.1291 41.3119 17.3148 39.9148 16.9746C38.5058 16.6313 35.3286 18.0357 34.5138 16.3484C35.7955 15.8582 38.0522 15.031 38.3232 16.6222C38.3804 16.9554 38.8688 16.808 38.824 16.4839C38.6683 15.3428 37.7583 15.1139 36.7357 15.0708C36.6831 15.0686 36.6332 15.0727 36.581 15.0727C36.0285 13.5246 34.9949 13.0668 33.5232 13.823C33.2472 13.9649 32.9899 14.1324 32.7372 14.3087C32.7368 14.305 32.7377 14.3014 32.7368 14.2977C32.3587 12.4731 30.2809 13.8189 29.3915 14.5522C27.7637 14.2844 26.7246 14.7893 26.1502 16.0907C24.5178 16.3526 23.3977 17.681 22.9633 19.2451C22.8717 19.5751 22.8406 19.9381 22.8644 20.2993C22.8278 20.3089 22.7925 20.324 22.7614 20.3533C21.5941 21.4409 21.2769 23.2124 21.2069 24.7349C21.1639 25.6463 21.2769 27.3455 22.1586 27.9278C21.991 28.3439 21.932 28.7938 21.9832 29.2443C21.8555 29.2136 21.7237 29.1889 21.6001 29.1504C21.2229 29.0323 20.8736 28.8391 20.5422 28.6254C20.2236 28.4217 19.9499 28.1498 19.7087 27.86C19.5823 27.7076 19.5471 27.6842 19.3617 27.7103C19.2761 27.7231 19.2326 27.8289 19.2518 27.903C19.44 28.6203 19.7526 29.2058 20.3298 29.6814C20.7368 30.0183 21.2202 30.2435 21.704 30.4591C20.881 30.461 20.1362 30.7141 19.3461 30.9242C18.0896 31.2584 16.9493 30.7498 15.7422 30.5058C15.6099 30.4788 15.4612 30.5923 15.5092 30.7393C15.8818 31.8644 16.6596 32.2705 17.8126 32.3377C18.5885 32.3831 19.385 32.2132 20.1541 32.1295C21.6463 31.9656 22.5119 32.7552 23.4192 33.7261C22.994 33.4364 22.517 33.288 22.0377 33.6744C21.1735 34.3697 20.4626 34.9868 19.3882 35.374C18.4242 35.7201 17.3966 35.8743 16.4243 36.2021C16.2215 36.2712 16.1991 36.5161 16.3675 36.6356C17.2766 37.2792 18.3194 37.2092 19.3173 36.756C19.9673 36.4603 20.5532 36.1119 21.1318 35.6931C21.6839 35.2939 22.0698 34.7345 22.896 34.9053C23.3158 34.9918 23.6879 35.2211 24.1196 35.3031C24.1292 35.3044 24.1374 35.3017 24.1466 35.3026C24.1727 35.3694 24.2001 35.4358 24.2267 35.5036C22.9157 35.1868 21.634 36.3934 20.8302 37.3291C19.4734 38.9083 20.1156 41.225 18.5496 42.7338C18.3757 42.9018 18.5963 43.1682 18.8009 43.0592C19.8043 42.525 20.4292 41.8654 20.8036 40.792C21.3621 39.1894 22.316 35.8267 24.792 36.815C24.9586 37.1616 25.1596 37.4939 25.3926 37.8033C23.8925 38.6163 23.4645 41.3015 23.5694 42.8088C23.6879 44.5099 25.2525 45.944 26.8995 46.2571C27.6301 46.7638 28.4101 46.5922 29.2093 46.1665C30.1752 47.4409 32.198 47.564 33.6024 47.0875C33.7594 47.0348 33.8555 46.8105 33.7086 46.6856C32.9359 46.0296 31.8831 45.6323 31.5132 44.6389C32.2781 44.1478 33.0334 43.7944 33.7539 43.9445C33.8134 43.9564 33.8642 43.9432 33.9031 43.9157C34.1196 43.9711 34.376 43.7623 34.2139 43.5385C33.2078 42.157 31.97 41.9844 30.4549 42.6775C29.8712 42.9453 29.0152 43.7106 28.1194 44.3469C28.1167 44.3332 28.113 44.319 28.1039 44.3052C27.9574 44.1006 27.8164 44.0805 27.5701 44.0173C27.1407 43.9075 26.748 43.6992 26.3845 43.4515C26.0362 43.2149 25.7629 42.9242 25.5647 42.553C25.329 42.1131 25.4265 41.6979 25.5514 41.2676C25.5871 41.2356 25.6224 41.2021 25.6581 41.171C26.2303 40.6606 27.051 40.201 27.5216 39.5519C27.8855 39.7222 28.2677 39.8504 28.6646 39.9273C28.9425 41.7047 31.6437 41.9542 32.9441 41.3944C33.1314 41.3134 33.0581 41.036 32.891 40.9865C32.4333 40.8524 31.4935 40.4006 31.6647 39.8046C32.8988 39.5327 34.1444 39.0086 35.1336 38.2528C35.5185 38.9125 35.3757 39.6288 34.8054 40.2596C34.641 40.44 34.8447 40.6876 35.0567 40.5865C35.8696 40.1992 36.7082 39.378 36.9728 38.4954C37.1578 37.8756 37.2072 36.9524 36.6355 36.539C36.7929 36.2415 36.9151 35.9261 36.9962 35.5919C37.6865 35.7526 38.3845 35.8107 39.0712 35.9842C39.0652 36.0249 39.0812 36.068 39.1311 36.0945C39.7106 36.3989 40.0897 37.0091 40.2691 37.6202C40.3744 37.9786 40.379 38.3673 40.3011 38.7312C40.2467 38.9857 40.0663 39.1674 39.9853 39.399C39.1243 39.7497 38.2188 40.0065 37.8384 40.1786C36.3809 40.8396 35.6133 42.0037 36.1974 43.5696C36.278 43.7875 36.6661 43.8566 36.7105 43.5696C36.8634 42.5754 38.276 42.3804 39.3472 42.2367C39.3573 42.2801 39.3742 42.3245 39.3898 42.3804C39.4552 42.6051 39.3627 42.8825 39.3042 43.0981C39.1737 43.5751 38.9384 44.1244 38.5786 44.4746C38.3868 44.66 38.5901 44.9177 38.8157 44.8829C39.6818 44.7474 40.4668 44.0626 40.9699 43.3829C41.2661 42.9828 41.5568 42.173 41.2258 41.7249C41.8424 41.42 42.3899 40.9591 42.3185 40.3283C42.5785 39.5423 42.5913 38.603 42.4059 37.7699C42.6233 36.6988 41.1512 35.1882 40.5369 34.6416C39.8054 33.9898 38.6409 33.185 37.5198 33.0116C38.683 32.5387 39.7537 31.9024 41.1169 32.0892C42.2356 32.243 43.1502 32.8724 44.317 32.8399C44.5505 32.833 44.6004 32.4966 44.3719 32.4325" fill="white"/>
<path d="M42.9178 35.7672C43.782 37.2851 43.4369 39.1142 43.268 40.7603C43.2579 40.8482 43.3975 40.8633 43.4195 40.7805C43.8534 39.1614 44.1395 37.1088 43.0652 35.6811C43.0011 35.595 42.861 35.6687 42.9178 35.7672Z" fill="white"/>
<path d="M18.8696 41.0483C18.962 40.5979 19.0119 40.1401 19.082 39.6851C19.12 39.4334 19.1296 39.0635 19.2042 38.8342C19.2248 38.7701 19.1346 38.7156 19.0888 38.7673C18.6274 39.2874 18.5725 40.353 18.6988 41.0483C18.7149 41.1339 18.8522 41.1321 18.8696 41.0483Z" fill="white"/>
<path d="M24.1047 45.7443C23.7856 45.4797 23.3823 45.2385 23.12 44.9125C23.0528 44.8292 22.9653 44.7327 22.8509 44.7487C22.8372 44.7505 22.828 44.7661 22.8275 44.7784C22.8271 44.8233 22.8266 44.8672 22.8262 44.9125C22.8262 44.9359 22.8655 44.9432 22.8697 44.9176C22.8806 44.8375 22.8935 45.1899 22.9914 45.2984C23.2839 45.6234 23.5993 45.9306 23.9248 46.2217C24.5066 46.7408 25.1571 47.2585 25.9105 47.4947C26.0195 47.5295 26.1005 47.3835 26.0204 47.3057C25.4344 46.7358 24.7341 46.268 24.1047 45.7443Z" fill="white"/>
</svg>
